<?xml version="1.0" standalone="no"?>
<!DOCTYPE svg PUBLIC "-//W3C//DTD SVG 1.1//EN" "http://www.w3.org/Graphics/SVG/1.1/DTD/svg11.dtd" >
<svg>
<metadata>
Created by FontForge 20090914 at Fri Feb 12 08:56:59 2021
 By www-data
KhmerOS - font for the Khmer language of Cambodia
Copyright 2007 Danh Hong
 
This font is free software; you can redistribute it and/or modify it under the terms of the GNU Lesser General Public License as published by the Free Software Foundation; either version 2.1 of the License, or (at your option) any later version.

This library is distributed in the hope that it will be useful, but WITHOUT ANY WARRANTY; without even the implied warranty of MERCHANTABILITY or FITNESS FOR A PARTICULAR PURPOSE.? See the GNU Lesser General Public License for more details.

You should have received a copy of the GNU Lesser General Public License along with this font; if not, write to the Free Software Foundation, Inc., 51 Franklin Street, Fifth Floor, Boston, MA 02110-1301  USA or visit http://www.gnu.org/licenses/lgpl.html
</metadata>
<defs>
<font id="KhmerOScontent" horiz-adv-x="0" >
  <font-face 
    font-family="Khmer OS Content"
    font-weight="400"
    font-stretch="normal"
    units-per-em="2048"
    panose-1="2 0 5 0 0 0 0 2 0 4"
    ascent="1638"
    descent="-410"
    x-height="1073"
    cap-height="1493"
    bbox="-1931 -1200 4760 2500"
    underline-thickness="48"
    underline-position="-140"
    unicode-range="U+0020-U+FB02"
  />
<missing-glyph 
 />
    <glyph glyph-name=".notdef" 
 />
    <glyph glyph-name="space" unicode=" " horiz-adv-x="600" 
 />
    <glyph glyph-name="space" unicode="&#xa0;" horiz-adv-x="600" 
 />
    <glyph glyph-name="exclam" unicode="!" horiz-adv-x="569" 
d="M425 1493v-692l-45 -457h-80l-45 457v692h170zM425 213v-213h-172v213h172z" />
    <glyph glyph-name="quotedbl" unicode="&#x22;" horiz-adv-x="727" 
d="M106 1452h190v-227l-55 -275h-80l-55 275v227zM434 1452h190v-227l-55 -275h-80l-55 275v227z" />
    <glyph glyph-name="numbersign" unicode="#" horiz-adv-x="1138" 
d="M993 1427l-74 -401h190v-139h-217l-63 -357h215v-139h-240l-80 -431h-155l77 431h-253l-80 -431h-156l78 431h-207v139h233l64 357h-221v139h248l73 401h156l-74 -401h256l72 401h158zM737 887h-254l-66 -357h256z" />
    <glyph glyph-name="dollar" unicode="$" horiz-adv-x="1138" 
d="M501 1577l121.001 0.000976562v-111c172 -12 290 -81.667 354 -209c26 -51.333 40.333 -109.333 43 -174v-20h-161c-1.33301 105.333 -41 181 -119 227c-27.333 15.333 -57.333 25.666 -90 30.999c-8.66699 1.33301 -17.667 2 -27 2v-510
c136.667 -42 226 -74.667 268 -98c116 -66 174 -171.333 174 -316c0 -142 -46.333 -254.667 -139 -338c-14.667 -13.333 -31 -25.333 -49 -36c-66.667 -39.333 -151.334 -63.333 -254.001 -72v-211h-121v211c-210 14 -344.333 100.667 -403 260
c-22 62.667 -31 133.667 -27 213h162c9.33301 -101.333 23.666 -168.333 42.999 -201c2.66699 -4 5.33398 -8.66699 8.00098 -14c48 -65.333 120.333 -104.333 217 -117v557c-126.667 38.667 -212.667 74.334 -258 107.001c-96.667 69.333 -145 169 -145 299
c0 199.333 95.333 327.666 286 384.999c36 10.667 75 18.667 117 24v111zM501.001 829.001v492.001c-130.667 -18 -207.667 -78.667 -231 -182c-4 -19.333 -6 -40 -6 -62c0 -122.667 79 -205.334 237 -248.001zM622.001 633.002l-0.000976562 -539
c83.333 10 146 35.333 188 76c57.333 54.667 86 123 86 205c0 83.333 -32 145.333 -96 186c-39.333 24.667 -98.666 48.667 -177.999 72z" />
    <glyph glyph-name="percent" unicode="%" horiz-adv-x="1820" 
d="M407 1403c114.667 0 207.001 -45.001 277.001 -135.001l37 -58c24 -50 36 -103.667 36 -161c0 -108 -43 -197 -129 -267c-64 -53.333 -137 -80 -219 -80c-110.667 0 -201.334 43 -272.001 129c-52 66 -78 140 -78 222c0 110.667 43 201.334 129 272.001
c64 52 137 78 219 78zM407.001 1260c-73.333 0 -130.667 -31.666 -172 -94.999l-24 -47c-7.33301 -22 -11 -43.667 -11 -65c0 -72.667 30.667 -130 92 -172c36 -23.333 75 -35 117 -35c74 0 131.333 30.667 172 92c23.333 34 35 71.667 35 113
c0 77.333 -32.667 136.666 -98 177.999c-32.667 20.667 -69.667 31 -111 31zM1247 1452h135l-809 -1492h-135zM1409 659c116 0 208.667 -45 278 -135c48 -62.667 72 -135 72 -217c0 -108 -43 -196.667 -129 -266c-64 -52.667 -137 -79 -219 -79
c-110.667 0 -201.667 42.667 -273 128c-52 65.333 -78 139 -78 221c0 110.667 44 201 132 271c64 51.333 136.333 77 217 77zM1409 516c-74 0 -131.332 -30.667 -171.999 -92c-23.333 -34 -35 -71.667 -35 -113c0 -74.667 32 -132.667 96 -174c34 -22 71.667 -33 113 -33
c73.333 0 130.666 31 171.999 93c23.333 34 35 70.667 35 110c0 78 -33 137.333 -99 178l-47 21c-20.667 6.66699 -41.667 10 -63 10z" />
    <glyph glyph-name="ampersand" unicode="&#x26;" horiz-adv-x="1366" 
d="M1009 684l164.001 -0.00292969c0 -128 -39.667 -253 -119 -375l250 -309h-223l-127 160c-66.667 -66 -119.334 -110.333 -158.001 -133c-76.667 -49.333 -166.667 -74 -270 -74c-158.667 0 -276 56 -352 168c-45.333 66.667 -68 146.334 -68 239.001
c0 110.667 35.333 202.334 106 275.001c49.333 49.333 124.666 103.333 225.999 162c-96 120 -150 212.667 -162 278c-2.66699 18 -4 36.333 -4 55c0 105.333 44.333 190 133 254c62.667 45.333 135 68 217 68c122.667 0 215.667 -45 279 -135l30 -57
c12.667 -28.667 20.334 -59.667 23.001 -93c1.33301 -12 2 -24.333 2 -37c0 -94 -37.667 -174.333 -113 -241c-39.333 -35.333 -96 -73.666 -170 -114.999l273 -334c43.333 76.667 64.333 158 63 244zM583.001 882.997c110.667 69.333 176.333 129.332 197 179.999
c9.33301 20.667 14 44.667 14 72c0 70.667 -30.667 121.667 -92 153c-26 14 -54.667 21 -86 21c-82 0 -136.667 -34.333 -164 -103c-8 -21.333 -12 -45.666 -12 -72.999c0 -45.333 17 -92 51 -140zM856 280.996l-327.999 408.999c-128.667 -82 -206.667 -157 -234 -225
c-10.667 -27.333 -16 -57.333 -16 -90c0 -88.667 37 -159 111 -211c47.333 -34 99.666 -51 156.999 -51c92 0 184.333 44.333 277 133c10.667 10.667 21.667 22.334 33 35.001z" />
    <glyph glyph-name="quotesingle" unicode="'" horiz-adv-x="391" 
d="M98 1452h193v-227l-56 -275h-82l-55 275v227z" />
    <glyph glyph-name="parenleft" unicode="(" horiz-adv-x="681" 
d="M483 1493h112.001c-168.667 -273.333 -261.334 -566.333 -278.001 -879c-1.33301 -28.667 -2 -56.667 -2 -84c0 -318 83.333 -622 250 -912c9.33301 -18 19.333 -35.333 30 -52h-112c-154.667 202 -257 434 -307 696c-18 92.667 -27 182 -27 268
c0 244.667 63.333 489.334 190 734.001c42.667 83.333 90.667 159.666 144 228.999z" />
    <glyph glyph-name="parenright" unicode=")" horiz-adv-x="681" 
d="M190 -434l-113 -0.000976562c169.333 273.333 262.333 566 279 878c1.33301 28.667 2 56.667 2 84c0 318.667 -83.333 623.334 -250 914.001c-10 17.333 -20.333 34.333 -31 51h113c154 -202 256.333 -434 307 -696c17.333 -93.333 26 -183 26 -269
c0 -244 -63.333 -488 -190 -732c-42 -83.333 -89.667 -160 -143 -230z" />
    <glyph glyph-name="asterisk" unicode="*" horiz-adv-x="796" 
d="M327 1493h129l-10 -229l217 77l39 -120l-222 -62l144 -182l-105 -74l-127 191l-129 -191l-102 74l141 182l-221 62l39 120l217 -77z" />
    <glyph glyph-name="plus" unicode="+" horiz-adv-x="1196" 
d="M1093 547v-144h-424v-423h-143v423h-424v144h424v424h143v-424h424z" />
    <glyph glyph-name="comma" unicode="," horiz-adv-x="569" 
d="M178 213l215 -0.000976562v-245c0 -179.333 -71.667 -269 -215 -269v78c58.667 2.66699 95 25.334 109 68.001c9.33301 26 14 65.667 14 119v36h-123v213z" />
    <glyph glyph-name="hyphen" unicode="-" horiz-adv-x="681" 
d="M581 639v-147h-487v147h487z" />
    <glyph glyph-name="period" unicode="." horiz-adv-x="569" 
d="M391 213v-213h-213v213h213z" />
    <glyph glyph-name="slash" unicode="/" horiz-adv-x="569" 
d="M469 1493h113l-485 -1533h-113z" />
    <glyph glyph-name="zero" unicode="0" horiz-adv-x="1138" 
d="M563 1452c149.333 0 263.331 -55.998 341.998 -167.998c78.667 -112.667 122.334 -281.334 131.001 -506.001c1.33301 -28.667 2 -58 2 -88c0 -184.667 -23.333 -335 -70 -451c-47.333 -116 -118 -197.667 -212 -245c-57.333 -27.333 -121.666 -41 -192.999 -41
c-120 0 -217.333 37 -292 111c-74.667 73.333 -126.667 183.666 -156 330.999c-18 90 -27 192.333 -27 307c0 266.667 47 463.334 141 590.001c74 97.333 175.667 150.666 305 159.999h29zM562.998 1292c-96.667 0 -169.333 -49.332 -218 -147.999s-73 -246.667 -73 -444
c0 -199.333 24 -348.666 72 -447.999c48 -100 119.667 -150 215 -150c80.667 0 144.667 33 192 99c48 65.333 79 163.666 93 294.999c6.66699 62.667 10 133 10 211c0 195.333 -24.333 341.666 -73 438.999c-48 97.333 -120.667 146 -218 146z" />
    <glyph glyph-name="one" unicode="1" horiz-adv-x="1138" 
d="M530 1034h-322v129c139.333 18 229.333 42.667 270 74c41.333 30 76.333 93.333 105 190l8 25h119v-1452h-180v1034z" />
    <glyph glyph-name="two" unicode="2" horiz-adv-x="1138" 
d="M581 1452c165.333 0 291.667 -54.667 379 -164l39 -61c31.333 -60 47 -127 47 -201c0 -180 -102.333 -326 -307 -438l-205 -111c-124 -72 -202.667 -141.667 -236 -209c-12 -27.333 -20.667 -57.333 -26 -90h764v-178h-967c9.33301 174.667 48.333 307.667 117 399
c57.333 75.333 154.333 152 291 230l188 106c131.333 75.333 197 171 197 287c0 98 -41 173.667 -123 227c-48 30 -102.667 45 -164 45c-102.667 0 -181.334 -38.667 -236.001 -116l-14 -25c-23.333 -44 -37.666 -112.333 -42.999 -205h-180c4 136.667 30 242 78 316
c81.333 125.333 215 188 401 188z" />
    <glyph glyph-name="three" unicode="3" horiz-adv-x="1138" 
d="M544 -47c-134 0 -240.334 31.332 -319.001 93.999c-78 63.333 -128 157.666 -150 282.999c-4 28.667 -7.33301 59.334 -10 92.001h180c6 -90 28.333 -160.333 67 -211c38.667 -50 93.667 -80.667 165 -92c22.667 -4 47 -6 73 -6c71.333 0 130 13.333 176 40
c46.667 27.333 81 67.666 103 120.999c14.667 38.667 22 81.667 22 129c0 88.667 -25 155 -75 199s-125.333 66 -226 66l-75 -2h-23v153c154 2.66699 254.333 25.334 301 68.001c36.667 34 55 87.333 55 160c0 116 -47.667 192.333 -143 229
c-32.667 12 -70.334 18 -113.001 18c-106 0 -183 -36 -231 -108l-12 -21c-20.667 -39.333 -31.667 -100 -33 -182h-180c2.66699 143.333 36.334 254 101.001 332c65.333 78 161.333 123 288 135c20.667 1.33301 42.334 2 65.001 2c96 0 176.667 -16 242 -48
c66 -32 116.667 -80 152 -144c32.667 -59.333 49 -128.333 49 -207c0 -148 -67.667 -248.333 -203 -301c126.667 -44 203.667 -118 231 -222c10 -35.333 15 -76.666 15 -123.999c0 -168 -64.333 -293 -193 -375c-82 -52 -181.667 -78 -299 -78z" />
    <glyph glyph-name="four" unicode="4" horiz-adv-x="1138" 
d="M669 348h-612v191l659 913h134v-942h215v-162h-215v-348h-181v348zM669 510v635l-454 -635h454z" />
    <glyph glyph-name="five" unicode="5" horiz-adv-x="1138" 
d="M974 1452v-177.999h-604l-57 -406c80 58.667 169.333 88 268 88c164 0 289.667 -59.333 377 -178c61.333 -83.333 92 -185 92 -305c0 -176 -59.333 -313.333 -178 -412c-87.333 -72 -194 -108 -320 -108c-152.667 0 -273.334 45.667 -362.001 137
c-11.333 12.667 -21.666 25 -30.999 37c-36.667 45.333 -66 121.666 -88 228.999h180c21.333 -80.667 56.666 -141.334 105.999 -182.001c50 -40.667 113.667 -61 191 -61c138 0 233 55.333 285 166c22 48.667 33 105.334 33 170.001c0 148.667 -52 251.667 -156 309
c-46.667 26 -100.667 39 -162 39c-87.333 0 -161.666 -29.333 -222.999 -88c-14 -14 -28.333 -29.667 -43 -47h-166l109 790h749z" />
    <glyph glyph-name="six" unicode="6" horiz-adv-x="1138" 
d="M575 -47c-162 0 -283.666 58.999 -364.999 176.999c-81.333 118.667 -122 296 -122 532c0 252 43.667 446.333 131 583c76.667 114.667 183.334 182.334 320.001 203.001c22.667 2.66699 45.667 4 69 4c157.333 0 273.333 -63.333 348 -190
c31.333 -54.667 52.666 -117.667 63.999 -189h-180c-24.667 120 -87 191 -187 213c-17.333 4 -36.333 6 -57 6c-75.333 0 -138 -24.667 -188 -74c-49.333 -48.667 -85.666 -122.334 -108.999 -221.001c-18 -73.333 -27 -158.666 -27 -255.999
c79.333 108 190.666 162 333.999 162c151.333 0 269.333 -56.667 354 -170c60.667 -80.667 91 -177.667 91 -291c0 -162 -56 -289.667 -168 -383c-84.667 -70.667 -187.334 -106 -308.001 -106zM584.001 742.999c-116 0 -201.333 -44.999 -256 -134.999
c-30 -48.667 -45 -105.334 -45 -170.001c0 -117.333 41.333 -207.333 124 -270c49.333 -36.667 106 -55 170 -55c104 0 183.333 43 238 129c34 54.667 51 116.667 51 186c0 139.333 -48.333 234.333 -145 285c-40 20 -85.667 30 -137 30z" />
    <glyph glyph-name="seven" unicode="7" horiz-adv-x="1138" 
d="M1065 1452l-0.000976562 -152c-138 -182.667 -252.667 -366 -344 -550c-91.333 -183.333 -159.666 -367.666 -204.999 -552.999c-16.667 -64.667 -30.334 -130.334 -41.001 -197.001h-193c68.667 297.333 166.334 563 293.001 797c75.333 138 176.333 297 303 477h-784
v178h971z" />
    <glyph glyph-name="eight" unicode="8" horiz-adv-x="1138" 
d="M800 764c166.667 -79.333 249.998 -200.331 249.998 -362.998c0 -152.667 -58.667 -270.667 -176 -354c-86 -62.667 -190 -94 -312 -94c-169.333 0 -299.666 56 -390.999 168c-64 79.333 -96 173.333 -96 282c0 161.333 82.667 281.666 248 360.999
c-98.667 61.333 -158.667 124.666 -180 189.999c-11.333 31.333 -17 68.333 -17 111c0 135.333 55.333 239 166 311c75.333 50.667 165.333 76 270 76c158.667 0 278.334 -52 359.001 -156c52 -65.333 78 -142.333 78 -231c0 -92.667 -31 -167 -93 -223l-65 -54
c-12 -8 -25.667 -16 -41 -24zM561.998 1292c-108.667 0 -183.665 -39.333 -224.998 -118l-20 -54l-6 -57c0 -95.333 41.333 -162.333 124 -201c37.333 -17.333 79.666 -26 126.999 -26c109.333 0 184.666 38.667 225.999 116c17.333 32.667 26 69 26 109
c0 102 -44.333 171.667 -133 209c-34 14.667 -73.667 22 -119 22zM562 684.002c-121.333 0 -208.669 -43.668 -262.002 -131.001c-27.333 -45.333 -41 -96.666 -41 -153.999c0 -112 45 -193.667 135 -245c46.667 -27.333 101.334 -41 164.001 -41
c124.667 0 213.667 44.333 267 133c27.333 44.667 41 95.667 41 153c0 112 -46 194 -138 246c-47.333 26 -102.666 39 -165.999 39z" />
    <glyph glyph-name="nine" unicode="9" horiz-adv-x="1138" 
d="M552 1452c162.667 0 285.001 -58.999 367.001 -176.999c81.333 -118 122.333 -295.333 123 -532c0 -252 -44.667 -446.333 -134 -583c-72 -110.667 -174.333 -177.334 -307 -200.001c-27.333 -4.66699 -54.666 -7 -81.999 -7c-156.667 0 -272.667 63.333 -348 190
c-31.333 54.667 -52.333 117.667 -63 189h180c12.667 -60 34.334 -107.667 65.001 -143c31.333 -35.333 71.666 -58.666 120.999 -69.999c18 -4 37.333 -6 58 -6c76 0 138.667 24.667 188 74s85.666 123 108.999 221c17.333 73.333 26 158.666 26 255.999
c-95.333 -105.333 -206 -159.333 -332 -162c-152.667 0 -271.334 56.667 -356.001 170c-60 80.667 -90 177.667 -90 291c0 162 56 289.667 168 383c84.667 70.667 187 106 307 106zM550.001 1294c-104 0 -182.999 -43.6689 -236.999 -131.002l-31 -61l-17 -72
c-2.66699 -17.333 -4 -35 -4 -53c0 -69.333 12.333 -128 37 -176c24 -47.333 60.333 -83.666 109 -108.999c39.333 -20 85 -30 137 -30c113.333 0 198 44.333 254 133c31.333 48.667 47 106 47 172c0 118.667 -41.667 209.334 -125 272.001
c-50.667 36.667 -107.334 55 -170.001 55z" />
    <glyph glyph-name="colon" unicode=":" horiz-adv-x="569" 
d="M438 213v-213h-213v213h213zM438 1073v-213h-213v213h213z" />
    <glyph glyph-name="semicolon" unicode=";" horiz-adv-x="569" 
d="M440 1073v-213h-213v213h213zM225 213l215 -0.000976562v-245c0 -179.333 -71.667 -269 -215 -269v78c58.667 2.66699 95 25.334 109 68.001c9.33301 26 14 65.667 14 119v36h-123v213z" />
    <glyph glyph-name="less" unicode="&#x3c;" horiz-adv-x="1196" 
d="M92 406v141l1001 424v-162l-806 -330l806 -336v-161z" />
    <glyph glyph-name="equal" unicode="=" horiz-adv-x="1196" 
d="M1093 723v-143h-991v143h991zM1093 371v-144h-991v144h991z" />
    <glyph glyph-name="greater" unicode="&#x3e;" horiz-adv-x="1196" 
d="M1103 547v-141l-1001 -424v161l807 330l-807 336v162z" />
    <glyph glyph-name="question" unicode="?" horiz-adv-x="1138" 
d="M675 408l-184 0.000976562v112c0 68.667 19 128 57 178c23.333 30 59 67.667 107 113l49 43c100.667 90 151.667 180 153 270c0 96 -41.667 164.333 -125 205l-63 21c-23.333 5.33301 -48 8 -74 8c-112 0 -188.333 -39.667 -229 -119
c-23.333 -46.667 -35 -113.667 -35 -201h-174c0 144 30.667 255.667 92 335c62 79.333 154.333 126 277 140c26 3.33301 52.667 5 80 5c172 0 296 -56.667 372 -170l33 -62c20.667 -49.333 31 -103.333 31 -162c0 -95.333 -35 -183.333 -105 -264
c-26 -31.333 -59.333 -65.333 -100 -102c-86 -79.333 -136 -137.333 -150 -174c-8 -20.667 -12 -47.334 -12 -80.001v-96zM675 213.001v-213h-184v213h184z" />
    <glyph glyph-name="at" unicode="@" horiz-adv-x="2078" 
d="M1361 1026h170.001l-184 -573c-16.667 -48 -25 -82.333 -25 -103c0 -36.667 20 -64 60 -82c13.333 -5.33301 27.666 -8 42.999 -8c87.333 0 167 49.333 239 148c70 96.667 105 204.334 105 323.001c0 164 -66.333 306.667 -199 428c-135.333 126 -299 193 -491 201h-31
c-200.667 0 -378.334 -69.667 -533.001 -209l-69 -70c-135.333 -154 -203 -328 -203 -522c0 -192.667 71.667 -355 215 -487c147.333 -136.667 331.666 -205 552.999 -205c108 0 239.667 22 395 66l58 -137c-153.333 -57.333 -307.666 -86 -462.999 -86
c-246 0 -458.333 73 -637 219c-166.667 136 -263 304.333 -289 505c-4 31.333 -6 62.666 -6 93.999c0 210.667 65 404.667 195 582c38 53.333 81 101 129 143c147.333 134 324 218 530 252c50.667 8.66699 101.334 13 152.001 13c226.667 0 423.667 -69 591 -207
c158.667 -128.667 250.334 -285 275.001 -469c4 -28.667 6 -57.334 6 -86.001c0 -165.333 -58.667 -317.666 -176 -456.999c-104 -121.333 -231 -182 -381 -182c-131.333 0 -206.333 52.333 -225 157c-90 -98 -187 -147 -291 -147c-112 0 -200 47 -264 141
c-46.667 67.333 -70 145.333 -70 234c0 148.667 54 280.334 162 395.001c105.333 113.333 226.666 170.666 363.999 171.999c114.667 0 198 -59.333 250 -178zM1054 938c-90 0 -169 -48.332 -237 -144.999c-62 -86 -93 -183.667 -93 -293c0 -92 32.333 -161 97 -207
c32.667 -23.333 68 -35 106 -35c79.333 0 149 44.333 209 133c45.333 65.333 78.666 155.666 99.999 270.999c6 30 9.66699 56.333 11 79c4 74 -24 130 -84 168c-33.333 19.333 -69.666 29 -108.999 29z" />
    <glyph glyph-name="A" unicode="A" horiz-adv-x="1366" 
d="M970 449h-576l-157 -449h-203l532 1493h246l525 -1493h-213zM917 608l-230 680l-245 -680h475z" />
    <glyph glyph-name="B" unicode="B" horiz-adv-x="1366" 
d="M161 0l-0.000976562 1493h606c140.667 0 248.667 -34.667 324 -104c79.333 -71.333 119 -163 119 -275c0 -152.667 -69 -261.334 -207 -326.001c143.333 -55.333 229.333 -137.666 258 -246.999c8 -27.333 12.667 -56.666 14 -87.999v-27
c0 -120 -38.333 -220.333 -115 -301c-77.333 -83.333 -185.666 -125 -324.999 -125h-674zM350.999 849.999l369 -0.000976562c98.667 0 171 17.667 217 53c54.667 42.667 82 104.334 82 185.001c0 80 -27.333 141.333 -82 184c-46 35.333 -118.333 53 -217 53h-369v-475z
M1085 423.998c0 118.667 -48.667 197 -146 235c-35.333 15.333 -76.333 23 -123 23h-465v-514h465c88.667 0 155 24 199 72c46.667 48.667 70 110 70 184z" />
    <glyph glyph-name="C" unicode="C" horiz-adv-x="1478" 
d="M1355 1030l-194.001 -0.000976562c-20.667 102.667 -57 177.667 -109 225c-73.333 60.667 -171.666 92.334 -294.999 95.001c-174.667 0 -303.667 -78.667 -387 -236c-54.667 -102 -82 -229.667 -82 -383c0 -232 65 -402 195 -510c80.667 -66.667 177.667 -100 291 -100
c148.667 0 258 52.667 328 158c8 10.667 14.667 22 20 34c30 57.333 52.667 134.666 68 231.999h196c-44.667 -394.667 -249.334 -592 -614.001 -592c-192.667 0 -345 58 -457 174c-144.667 148.667 -217 349.334 -217 602.001c0 250 69.667 450.667 209 602
c112 124.667 269.667 187 473 187c324.667 0 516.334 -162.667 575.001 -488z" />
    <glyph glyph-name="D" unicode="D" horiz-adv-x="1478" 
d="M182 0v1493h575c222.667 0 388 -90 496 -270l45 -88c45.333 -110.667 68 -239.667 68 -387c0 -286 -79.333 -493.667 -238 -623c-99.333 -83.333 -223 -125 -371 -125h-575zM372 168h353c237.333 0 381.333 123.667 432 371c12 61.333 18 130 18 206
c0 336 -114.667 526 -344 570c-34 6.66699 -69.333 10 -106 10h-353v-1157z" />
    <glyph glyph-name="E" unicode="E" horiz-adv-x="1366" 
d="M374 680v-512h881v-168h-1071v1493h1034v-168h-844v-477h814v-168h-814z" />
    <glyph glyph-name="F" unicode="F" horiz-adv-x="1251" 
d="M374 680v-680h-190v1493h1001v-168h-811v-477h713v-168h-713z" />
    <glyph glyph-name="G" unicode="G" horiz-adv-x="1593" 
d="M1452 788l0.00195312 -795.999h-121l-47 198c-142 -158 -312 -237 -510 -237c-208.667 0 -377.334 77.667 -506.001 233c-118.667 142 -178 323.667 -178 545c0 240.667 69.667 436 209 586c19.333 20.667 39.666 39.667 60.999 57c116 96 265 144 447 144
c244 0 421.333 -80.667 532 -242c45.333 -66.667 76 -145.334 92 -236.001h-194c-28.667 134 -108 225.667 -238 275c-57.333 23.333 -122 35 -194 35c-180.667 0 -319.334 -71 -416.001 -213c-72.667 -106.667 -109 -238.667 -109 -396c0 -172 41.667 -315.333 125 -430
l33 -39c98.667 -98 224.334 -148.333 377.001 -151c155.333 0 278.333 54.667 369 164c66.667 82 100 180.333 100 295v41h-455v167h623z" />
    <glyph glyph-name="H" unicode="H" horiz-adv-x="1478" 
d="M1127 680h-765v-680h-193v1493h190v-645h768v645h191v-1493h-191v680z" />
    <glyph glyph-name="I" unicode="I" horiz-adv-x="569" 
d="M397 1493v-1493h-193v1493h193z" />
    <glyph glyph-name="J" unicode="J" horiz-adv-x="1024" 
d="M681 1493h190.999v-1120c0 -169.333 -61.667 -290.333 -185 -363c-66.667 -38 -145.667 -57 -237 -57c-169.333 0 -289.666 58.667 -360.999 176c-36.667 62.667 -55 135.667 -55 219v131h195v-96c0 -151.333 55 -239.333 165 -264c18 -4 37.333 -6 58 -6
c79.333 0 140 30.667 182 92c31.333 46 47 125 47 237v1051z" />
    <glyph glyph-name="K" unicode="K" horiz-adv-x="1366" 
d="M351 522v-522h-190v1493h190v-756l744 756h246l-609 -608l615 -885h-225l-527 766z" />
    <glyph glyph-name="L" unicode="L" horiz-adv-x="1138" 
d="M353 1493v-1325h738v-168h-928v1493h190z" />
    <glyph glyph-name="M" unicode="M" horiz-adv-x="1705" 
d="M958 0h-201l-424 1251v-1251h-180v1493h264l443 -1300l434 1300h264v-1493h-180v1251z" />
    <glyph glyph-name="N" unicode="N" horiz-adv-x="1478" 
d="M1322 1493v-1493h-215l-772 1210v-1210h-180v1493h207l780 -1221v1221h180z" />
    <glyph glyph-name="O" unicode="O" horiz-adv-x="1593" 
d="M796 1518c237.333 0 422.333 -84.001 555 -252.001l53 -78c76.667 -131.333 115 -286.333 115 -465c0 -202 -56 -374.667 -168 -518c-27.333 -35.333 -57.333 -66.666 -90 -93.999c-124.667 -105.333 -279 -158 -463 -158c-228 0 -409 80 -543 240
c-118.667 142 -178 322.667 -178 542c0 251.333 75.667 450 227 596c130 124.667 294 187 492 187zM796 1350c-177.333 0 -315.332 -69.668 -413.999 -209.001c-76.667 -109.333 -115 -244.666 -115 -405.999c0 -215.333 65 -379.666 195 -492.999
c91.333 -80.667 203.333 -121 336 -121c176 0 313.333 68.333 412 205c78.667 107.333 118 241 118 401c0 225.333 -66.667 394.666 -200 507.999c-90.667 76.667 -201.334 115 -332.001 115z" />
    <glyph glyph-name="P" unicode="P" horiz-adv-x="1366" 
d="M376 633l-0.000976562 -633h-190v1493h616c220 0 362 -80.667 426 -242c23.333 -56 35 -121.333 35 -196c0 -132.667 -43 -238 -129 -316c-79.333 -70.667 -175.666 -106 -288.999 -106h-469zM375.999 801l398 -0.000976562c139.333 0 229.333 50.333 270 151
c14 32.667 21 69.667 21 111c0 122.667 -54 203.334 -162 242.001l-70 16c-19.333 2.66699 -39 4 -59 4h-398v-524z" />
    <glyph glyph-name="Q" unicode="Q" horiz-adv-x="1593" 
d="M1500 -2l-96.001 -118l-215 177c-117.333 -69.333 -247.666 -104 -390.999 -104c-228 0 -409 80 -543 240c-118.667 142 -178 322.667 -178 542c0 251.333 75.667 450 227 596c131.333 124.667 296 187 494 187c226.667 0 407 -79.333 541 -238
c120 -142 180 -322.333 180 -541c0 -234.667 -70.333 -429 -211 -583zM983.999 420l183.003 -150.001c107.333 122 161 277.667 161 467c0 214.667 -64 378.667 -192 492c-92.667 80.667 -205.334 121 -338.001 121c-178.667 0 -317.334 -69.667 -416.001 -209
c-76.667 -109.333 -115 -244.666 -115 -405.999c0 -216.667 65 -381.667 195 -495c91.333 -79.333 202.666 -119 333.999 -119c82 0 164 19 246 57l-152 127z" />
    <glyph glyph-name="R" unicode="R" horiz-adv-x="1478" 
d="M380 643l0.000976562 -642.999h-190v1493h688c232 0 376 -82 432 -246c15.333 -44.667 23 -95.667 23 -153c0 -134 -49.333 -236 -148 -306c-26 -17.333 -55.333 -34.333 -88 -51c84.667 -36.667 140 -82.334 166 -137.001c23.333 -50.667 35.666 -134.667 36.999 -252
c2.66699 -130.667 15.667 -214.667 39 -252c12 -17.333 29 -33.666 51 -48.999v-47h-231c-28.667 65.333 -43 146.666 -43 243.999l2 133c0 148.667 -54.667 234.667 -164 258c-24.667 5.33301 -52 8 -82 8h-492zM380.001 811.001h461c165.333 0 260.333 58.667 285 176
c5.33301 23.333 8 50 8 80c0 90 -26 157 -78 201c-43.333 38 -115 57 -215 57h-461v-514z" />
    <glyph glyph-name="S" unicode="S" horiz-adv-x="1366" 
d="M1220 1055l-180.001 0.000976562c-1.33301 151.333 -76.333 246.666 -225 285.999c-44 11.333 -93.333 17 -148 17c-142 0 -241 -42.333 -297 -127l-24 -49c-8 -23.333 -12 -48.666 -12 -75.999c0 -76.667 36.667 -134 110 -172c34 -18 79 -34.333 135 -49l375 -101
c164 -44.667 265 -133.334 303 -266.001c10 -34 15 -70 15 -108c0 -114.667 -39.667 -215 -119 -301c-15.333 -15.333 -30.333 -29 -45 -41c-100 -76.667 -240 -115 -420 -115c-230.667 0 -398 71 -502 213c-57.333 78 -86.666 181 -87.999 309h180
c-1.33301 -61.333 9.66699 -115.333 33 -162c12 -22.667 27 -45 45 -67c69.333 -83.333 184 -125 344 -125c121.333 0 213 21 275 63c60 42.667 94.667 102 104 178c1.33301 10 2 19.667 2 29c0 104 -75 179.667 -225 227l-49 15l-371 98
c-195.333 50.667 -293 166.667 -293 348c0 169.333 71 292.333 213 369c87.333 46.667 193 70 317 70c240.667 0 404 -76 490 -228c38 -66.667 57 -145 57 -235z" />
    <glyph glyph-name="T" unicode="T" horiz-adv-x="1251" 
d="M725 1325v-1325h-190v1325h-492v168h1171v-168h-489z" />
    <glyph glyph-name="U" unicode="U" horiz-adv-x="1478" 
d="M1130 1493h190.999v-1049c0 -177.333 -71 -310.333 -213 -399c-98.667 -61.333 -219.667 -92 -363 -92c-225.333 0 -387.666 69 -486.999 207c-56 79.333 -84 174 -84 284v1049h190v-1049c0 -159.333 75.333 -260.333 226 -303c46 -13.333 97.667 -20 155 -20
c169.333 0 285 54.667 347 164c25.333 46 38 99 38 159v1049z" />
    <glyph glyph-name="V" unicode="V" horiz-adv-x="1366" 
d="M802 0h-204l-537 1493h205l438 -1264l414 1264h203z" />
    <glyph glyph-name="W" unicode="W" horiz-adv-x="1933" 
d="M1524 0h-209l-344 1227l-334 -1227h-209l-383 1493h213l281 -1212l331 1212h205l340 -1212l275 1212h213z" />
    <glyph glyph-name="X" unicode="X" horiz-adv-x="1366" 
d="M801 766l528 -766h-235l-408 623l-410 -623h-231l528 766l-495 727h231l383 -586l385 586h228z" />
    <glyph glyph-name="Y" unicode="Y" horiz-adv-x="1366" 
d="M792 586v-586h-191v586l-575 907h236l438 -727l426 727h227z" />
    <glyph glyph-name="Z" unicode="Z" horiz-adv-x="1251" 
d="M1190 1493v-172l-893 -1153h897v-168h-1137v168l897 1157h-840v168h1076z" />
    <glyph glyph-name="bracketleft" unicode="[" horiz-adv-x="569" 
d="M512 1493v-147h-211v-1632h211v-148h-381v1927h381z" />
    <glyph glyph-name="backslash" unicode="\" horiz-adv-x="569" 
d="M97 1493l485 -1533h-113l-485 1533h113z" />
    <glyph glyph-name="bracketright" unicode="]" horiz-adv-x="569" 
d="M47 -434v148h211v1632h-211v147h381v-1927h-381z" />
    <glyph glyph-name="asciicircum" unicode="^" horiz-adv-x="960" 
d="M403 1452h150l317 -778h-141l-250 614l-248 -614h-141z" />
    <glyph glyph-name="underscore" unicode="_" horiz-adv-x="1138" 
d="M1184 -258v-102h-1229v102h1229z" />
    <glyph glyph-name="glyph65" unicode="`" horiz-adv-x="681" 
d="M276 1516l197 -304h-123l-305 304h231z" />
    <glyph glyph-name="a" unicode="a" horiz-adv-x="1138" 
d="M1096 100v-128.002c-48 -12.667 -87 -19 -117 -19c-96.667 0 -154 43 -172 129l-4 29c-118.667 -104 -240.334 -156.667 -365.001 -158c-150 0 -254.333 51 -313 153c-26 48 -39 102.667 -39 164c0 139.333 62.667 235 188 287c49.333 20.667 138.333 39 267 55
c21.333 2.66699 47 6.33398 77 11.001c100 12 157.667 37.667 173 77c4 11.333 6 25 6 41v45c0 88 -55.333 140 -166 156c-23.333 2.66699 -48 4 -74 4c-140.667 0 -222.667 -51 -246 -153c-2.66699 -12.667 -4.66699 -25 -6 -37h-172c4 98 28.667 172.333 74 223
c74.667 83.333 193.334 125 356.001 125c240.667 0 374 -79.333 400 -238c2.66699 -17.333 4 -35.666 4 -54.999v-631c0 -56 30.667 -84 92 -84c12 0 24.333 1.33301 37 4zM797 337.998l-0.000976562 192.002c-44 -20 -122 -37.667 -234 -53
c-12 -1.33301 -25.667 -3.33301 -41 -6c-144.667 -20.667 -228 -67.667 -250 -141c-5.33301 -16.667 -8 -35.334 -8 -56.001c0 -88.667 45.667 -143 137 -163c22 -6 46.667 -9 74 -9c98.667 0 183.334 32.333 254.001 97c44 39.333 66.667 85.666 68 138.999z" />
    <glyph glyph-name="b" unicode="b" horiz-adv-x="1138" 
d="M110 1493h169.999v-565c78 117.333 188.667 176 332 176c174.667 0 302.334 -73.667 383.001 -221c50.667 -93.333 76 -207.333 76 -342c0 -220 -62.333 -382.667 -187 -488c-78 -66.667 -171.333 -100 -280 -100c-146.667 0 -260 61.333 -340 184v-137h-154v1493z
M578.999 944c-113.333 0 -196.667 -57.332 -250 -171.999c-32.667 -68 -49 -149.333 -49 -244c0 -170.667 47 -291.334 141 -362.001c45.333 -35.333 98 -53 158 -53c114.667 0 200.667 53.667 258 161c36.667 70 55 152.667 55 248c0 173.333 -49 296.333 -147 369
c-50.667 34 -106 51.667 -166 53z" />
    <glyph glyph-name="c" unicode="c" horiz-adv-x="1024" 
d="M964 713h-171.998c-18 132 -84.333 208.333 -199 229l-55 4c-128 0 -216 -68.333 -264 -205c-22 -62.667 -33 -137 -33 -223c0 -186.667 54 -311 162 -373c39.333 -22.667 85.666 -34 138.999 -34c146 0 233.333 86 262 258h172c-14.667 -187.333 -93 -312.333 -235 -375
c-58.667 -27.333 -126.334 -41 -203.001 -41c-176 0 -306.333 71.667 -391 215c-56 95.333 -84 212 -84 350c0 218.667 62.667 380.667 188 486c80.667 66.667 177 100 289 100c144.667 0 256.667 -46.333 336 -139l16 -21c40 -58.667 64 -135.667 72 -231z" />
    <glyph glyph-name="d" unicode="d" horiz-adv-x="1138" 
d="M1014 1493v-1493h-152v141c-79.333 -112.667 -177.666 -174.667 -294.999 -186c-14.667 -1.33301 -30.334 -2 -47.001 -2c-177.333 0 -307 76.333 -389 229c-52 97.333 -78 216.333 -78 357c0 210 60.667 366.333 182 469c78 64 171 96 279 96
c147.333 0 257.333 -55.333 330 -166v555h170zM542 944c-116 0 -202.002 -55.999 -258.002 -167.999c-27.333 -52 -44.333 -112.667 -51 -182c-1.33301 -22 -2 -44 -2 -66c0 -166 48 -286 144 -360c48.667 -36.667 105.334 -55 170.001 -55c113.333 0 196.333 56 249 168
c33.333 68 50 149 50 243c0 179.333 -49.333 303.666 -148 372.999c-45.333 31.333 -96.666 47 -153.999 47z" />
    <glyph glyph-name="e" unicode="e" horiz-adv-x="1138" 
d="M1050 479l-791 -0.000976562c1.33301 -98 20.666 -174.333 57.999 -229c58.667 -92.667 144.667 -139 258 -139c138.667 0 232 71.667 280 215h172c-30 -165.333 -116 -277.333 -258 -336c-60 -24.667 -127 -37 -201 -37c-185.333 0 -321 75 -407 225
c-53.333 92.667 -80 207.334 -80 344.001c0 216 64.333 376.667 193 482c81.333 66.667 181 100 299 100c156.667 0 279.334 -56 368.001 -168c27.333 -34 49.333 -72.333 66 -115c28.667 -74.667 43 -188.667 43 -342zM263 617.999l601.999 0.000976562
c1.33301 3.33301 2 7.66602 2 12.999c0 109.333 -40 194.666 -120 255.999c-52 39.333 -111 59 -177 59c-116 0 -202 -51 -258 -153c-27.333 -49.333 -43.666 -107.666 -48.999 -174.999z" />
    <glyph glyph-name="f" unicode="f" horiz-adv-x="569" 
d="M528 1073l0.000976562 -139.001h-179v-934h-170v934h-143v139h143v182c0 120.667 50.667 197.334 152 230.001c30 9.33301 63.333 14 100 14c31.333 0 63.666 -3.33301 96.999 -10v-141c-26 1.33301 -46 2 -60 2c-79.333 0 -119 -36.333 -119 -109v-168h179z" />
    <glyph glyph-name="g" unicode="g" horiz-adv-x="1138" 
d="M843 1073h157.998v-897c0 -210 -28 -358.667 -84 -446c-9.33301 -13.333 -19 -26.333 -29 -39c-65.333 -82 -172.333 -127 -321 -135c-15.333 -1.33301 -30.333 -2 -45 -2c-188.667 0 -317 60 -385 180c-23.333 42.667 -37.666 90.667 -42.999 144h174
c8 -53.333 29.667 -94.333 65 -123c49.333 -38.667 114.333 -58 195 -58c110.667 0 190 33.667 238 101c40.667 56 61 153.333 61 292v55c-80.667 -111.333 -170.667 -174 -270 -188l-56 -4c-113.333 0 -211.666 43.667 -294.999 131l-12 12c-90 105.333 -135 246 -135 422
c0 208.667 58 367 174 475c78 74 172.333 111 283 111c133.333 0 242.333 -62 327 -186v155zM533.998 946c-120 0 -205.331 -61.333 -255.998 -184c-27.333 -65.333 -41 -143.333 -41 -234c0 -189.333 53.333 -316.333 160 -381c39.333 -24 85.666 -36 138.999 -36
c121.333 0 206 62.667 254 188c24.667 62.667 37 137 37 223c0 204.667 -56 336.667 -168 396c-36.667 18.667 -78.334 28 -125.001 28z" />
    <glyph glyph-name="h" unicode="h" horiz-adv-x="1138" 
d="M143 1493l169.999 -0.000976562v-567c74 95.333 156 152 246 170c28.667 5.33301 61.334 8 98.001 8c150 0 251.667 -50.667 305 -152c22 -40.667 33 -87.667 33 -141v-811h-170v743c0 75.333 -23.333 129.333 -70 162c-43.333 32.667 -93.666 49 -150.999 49
c-114.667 0 -197.334 -52.333 -248.001 -157c-28.667 -57.333 -43 -125.666 -43 -204.999v-592h-170v1493z" />
    <glyph glyph-name="i" unicode="i" horiz-adv-x="426" 
d="M307 1073v-1073h-170v1073h170zM307 1493v-215h-172v215h172z" />
    <glyph glyph-name="j" unicode="j" horiz-adv-x="433" 
d="M144 1073l170 0.000976562v-1296c0 -140.667 -87.333 -215 -262 -223h-31c-17.333 0 -36.333 2 -57 6v146c23.333 -1.33301 37 -2 41 -2c70.667 0 113.667 21.667 129 65c6.66699 19.333 10 44.666 10 75.999v1228zM314 1493v-215h-170v215h170z" />
    <glyph glyph-name="k" unicode="k" horiz-adv-x="1024" 
d="M288 1493v-875l455 455h219l-373 -371l438 -702h-211l-362 582l-166 -164v-418h-170v1493h170z" />
    <glyph glyph-name="l" unicode="l" horiz-adv-x="433" 
d="M311 1493v-1493h-172v1493h172z" />
    <glyph glyph-name="m" unicode="m" horiz-adv-x="1651" 
d="M143 1073l158.002 0.000976562v-151c73.333 103.333 160.666 162.666 261.999 177.999c20.667 2.66699 43 4 67 4c122 0 212.333 -44.333 271 -133c6.66699 -10 12.667 -20.333 18 -31c74 88.667 154 140.667 240 156c27.333 5.33301 57.333 8 90 8
c166.667 0 267 -67 301 -201c6.66699 -30 10 -62.667 10 -98v-805h-172v739c0 110.667 -43 179 -129 205c-22 6.66699 -45 10 -69 10c-83.333 0 -150.333 -36.667 -201 -110c-34 -50.667 -51 -107.334 -51 -170.001v-674h-172v739c0 119.333 -48.667 189 -146 209
c-16 4 -33.667 6 -53 6c-84.667 0 -152.334 -38 -203.001 -114c-32.667 -49.333 -49 -104.666 -49 -165.999v-674h-172v1073z" />
    <glyph glyph-name="n" unicode="n" horiz-adv-x="1097" 
d="M143 1073l158.002 -0.000976562v-180c73.333 116 162 183.667 266 203c27.333 5.33301 57.333 8 90 8c143.333 0 243.666 -47.667 300.999 -143c26 -44 39 -94 39 -150v-811h-170v743c0 96 -40.333 160.333 -121 193c-28.667 12 -62 18 -100 18
c-114.667 0 -197.334 -52.333 -248.001 -157c-28.667 -57.333 -43 -125.666 -43 -204.999v-592h-172v1073z" />
    <glyph glyph-name="o" unicode="o" horiz-adv-x="1097" 
d="M556 1104c208 0 350.668 -87.998 428.001 -263.998c40 -88.667 60 -195.334 60 -320.001c0 -228 -69.667 -390.333 -209 -487c-76.667 -53.333 -169 -80 -277 -80c-196.667 0 -335.667 81.333 -417 244c-45.333 91.333 -68 201.666 -68 330.999
c0 238 71.667 404.667 215 500c75.333 50.667 164.666 76 267.999 76zM558.001 946.002c-126.667 0 -215.999 -62.667 -267.999 -188c-26 -66 -39 -142.667 -39 -230c0 -186.667 53.333 -312.667 160 -378c42 -26 91 -39 147 -39c123.333 0 211.666 60 264.999 180
c28.667 64 43 141 43 231c0 198 -56 328.333 -168 391c-41.333 22 -88 33 -140 33z" />
    <glyph glyph-name="p" unicode="p" horiz-adv-x="1138" 
d="M110 -446v1519h158v-162c80.667 128.667 194.667 193 342 193c173.333 0 301 -75.667 383 -227c52 -97.333 78 -217 78 -359c0 -210 -61 -366.333 -183 -469c-53.333 -44.667 -115.333 -73.667 -186 -87c-28.667 -6 -58.667 -9 -90 -9
c-132.667 0 -242.667 53.333 -330 160v-559h-172zM581 944c-113.333 0 -196.667 -57.332 -250 -171.999c-32.667 -68 -49 -149.333 -49 -244c0 -170.667 47 -291.334 141 -362.001c45.333 -35.333 98 -53 158 -53c114.667 0 200.667 55.333 258 166c35.333 68 53 149 53 243
c0 173.333 -48.333 296.333 -145 369c-48 35.333 -103.333 53 -166 53z" />
    <glyph glyph-name="q" unicode="q" horiz-adv-x="1138" 
d="M1014 -446h-169.999v569c-78 -113.333 -188.667 -170 -332 -170c-174.667 0 -302.334 73.667 -383.001 221c-50.667 92.667 -76 206.667 -76 342c0 220 62 382.667 186 488c78 66.667 171.667 100 281 100c146 0 260 -58 342 -174v143h152v-1519zM545.001 944
c-115.333 0 -201.668 -55.333 -259.001 -166c-36.667 -69.333 -55 -152.666 -55 -249.999c0 -166 48 -286 144 -360c48.667 -36.667 105.334 -55 170.001 -55c111.333 0 194.333 55.333 249 166c33.333 68 50 149 50 243c0 179.333 -48.667 303.666 -146 372.999
c-44.667 32.667 -95.667 49 -153 49z" />
    <glyph glyph-name="r" unicode="r" horiz-adv-x="730" 
d="M141 1073h157.999v-194c78.667 126.667 157.667 199.667 237 219c18 4 36.667 6 56 6c14.667 0 36.334 -2 65.001 -6v-174c-98 -1.33301 -168.333 -16.333 -211 -45c-4 -3.33301 -8 -6.33301 -12 -9c-80.667 -58.667 -121 -163 -121 -313v-557h-172v1073z" />
    <glyph glyph-name="s" unicode="s" horiz-adv-x="1024" 
d="M896 774l-180 0.000976562c-4 114.667 -75.667 172 -215 172c-112 0 -183.667 -33.333 -215 -100c-8 -19.333 -12 -40 -12 -62c0 -61.333 45 -107 135 -137c19.333 -5.33301 40.333 -10.666 63 -15.999l164 -39c161.333 -38 257.666 -105 288.999 -201
c9.33301 -28.667 14 -61.334 14 -98.001c0 -131.333 -61.333 -227 -184 -287c-70.667 -35.333 -156.667 -53 -258 -53c-264.667 0 -406.667 110.667 -426 332c-1.33301 10.667 -2 22 -2 34h180c8.66699 -64 25 -109.667 49 -137c45.333 -47.333 116.333 -71 213 -71
c114.667 0 191.334 32 230.001 96c13.333 22 20 46 20 72c0 62.667 -36.667 107 -110 133l-56 16l-159 39c-162.667 39.333 -265.334 94 -308.001 164c-21.333 38 -32 86.333 -32 145c0 127.333 57.333 219.666 172 276.999c66.667 34 146.334 51 239.001 51
c198 0 321 -69 369 -207c13.333 -36.667 20 -77.667 20 -123z" />
    <glyph glyph-name="t" unicode="t" horiz-adv-x="569" 
d="M520 1073l-0.00195312 -139h-177v-735c0 -52 15 -82 45 -90c12.667 -4.66699 29.334 -7 50.001 -7c34 0 61.333 3 82 9v-143c-53.333 -10 -100 -15 -140 -15c-121.333 0 -189.666 45.667 -204.999 137c-1.33301 9.33301 -2 20.333 -2 33v811h-145v139h145v295h170v-295
h177z" />
    <glyph glyph-name="u" unicode="u" horiz-adv-x="1138" 
d="M987 0h-154v150c-76 -108 -164.667 -170.667 -266 -188c-27.333 -6 -58 -9 -92 -9c-146 0 -247 47.667 -303 143c-26 44 -39 94 -39 150v827h170v-760c0 -95.333 40.333 -159.333 121 -192c30 -12.667 63.333 -19 100 -19c116 0 200 53.333 252 160
c27.333 57.333 41 125 41 203v608h170v-1073z" />
    <glyph glyph-name="v" unicode="v" horiz-adv-x="1024" 
d="M583 0h-186l-377 1073h193l286 -870l303 870h193z" />
    <glyph glyph-name="w" unicode="w" horiz-adv-x="1478" 
d="M1134 0h-194l-217 842l-207 -842h-193l-311 1073h188l220 -835l204 835h209l211 -835l213 835h193z" />
    <glyph glyph-name="x" unicode="x" horiz-adv-x="1024" 
d="M597 555l371 -555h-199l-268 412l-272 -412h-195l379 547l-359 526h195l258 -389l258 389h193z" />
    <glyph glyph-name="y" unicode="y" horiz-adv-x="1024" 
d="M794 1073h183.999l-477 -1298c-30 -78 -69 -134.667 -117 -170c-46.667 -34 -100 -51 -160 -51c-42 0 -80 9 -114 27v153c36.667 -8 66.667 -12 90 -12c61.333 0 104.333 27.333 129 82c2.66699 6.66699 5.33398 14 8.00098 22l65 170l-362 1077h182l275 -835z" />
    <glyph glyph-name="z" unicode="z" horiz-adv-x="1024" 
d="M907 1073v-151l-637 -772h665v-150h-872v154l641 770h-598v149h801z" />
    <glyph glyph-name="braceleft" unicode="{" horiz-adv-x="1000" 
d="M451 200c0 166.667 -25.334 258.333 -76.001 275l-225 76v99l226 76c50 16.667 75 108 75 274c0 300 116.333 450.333 349 451h101v-151h-103c-132 0 -198 -99.667 -198 -299c0 -200.667 -66.333 -334.334 -199 -401.001
c132.667 -67.333 199.334 -200.666 200.001 -399.999c0 -200 66.667 -300 200 -300h100v-150h-101c-232.667 0 -349 150 -349 450z" />
    <glyph glyph-name="bar" unicode="|" horiz-adv-x="450" 
d="M150 -100v1400h150v-1400h-150z" />
    <glyph glyph-name="braceright" unicode="}" horiz-adv-x="1000" 
d="M550 1000c0 -166.667 25.333 -258.334 76 -275.001l225 -76v-99l-226 -76c-50 -17.333 -75 -108.666 -75 -273.999c0 -300 -116.333 -450.333 -349 -451h-101v151h103c132 0 198 99.667 198 299c0 200.667 66.333 334.334 199 401.001
c-133.333 67.333 -200 200.666 -200 399.999c0 200 -66.667 300 -200 300h-100v150h101c232.667 0 349 -150 349 -450z" />
    <glyph glyph-name="asciitilde" unicode="~" horiz-adv-x="1200" 
d="M800 250c-99.333 0 -173.999 41.667 -223.999 125l-38 63c-25.333 41.333 -71.333 62 -138 62c-66 0 -99 -33.333 -99 -100v-150h-151v151c0 166 82.333 249 247 249h3c99.333 0 174.666 -41.667 225.999 -125l37 -62c24.667 -42 70.667 -63 138 -63
c66 0 99 33.333 99 100v150h150v-150c0 -166 -83.333 -249.333 -250 -250z" />
    <glyph glyph-name="exclamdown" unicode="&#xa1;" horiz-adv-x="450" 
d="M301 100c0 -66.667 -16.667 -100 -50 -100h-50c-33.333 -0 -50 33.333 -50 100s4.16699 174.667 12.5 324s20.833 341.333 37.5 576h50c16.667 -234.667 29.167 -426.667 37.5 -576s12.5 -257.333 12.5 -324zM150 1224c0 21.333 7.33301 39.333 22 54
s32.334 22 53.001 22c21.333 0 39.333 -7.33301 54 -22s22 -32.667 22 -54s-7.33301 -39.333 -22 -54s-32.667 -22 -54 -22c-20.667 0 -38.334 7.33301 -53.001 22s-22 32.667 -22 54z" />
    <glyph glyph-name="cent" unicode="&#xa2;" horiz-adv-x="1051" 
d="M903 1134l-69 -174.001c41.333 -15.333 80.333 -35.333 117 -60v-200c-39.333 58.667 -96 100.334 -170 125.001l-262 -667c24.667 -5.33301 52 -8 82 -8c167.333 0 284 50 350 150v-199c-101.333 -67.333 -218 -101 -350 -101c-50.667 0 -97 4.66699 -139 14l-72 -184
l-92 37l70 179c-144.667 70.667 -217 222 -217 454c0 333.333 150 500 450 500c48 0 93.667 -4.33301 137 -13l72 183zM601 849.999c-200 0 -300 -116.667 -300 -350c0 -151.333 41.667 -253.333 125 -306l256 651c-25.333 3.33301 -52.333 5 -81 5z" />
    <glyph glyph-name="sterling" unicode="&#xa3;" horiz-adv-x="600" 
d="M300 700v-450l300 -100v100h100v-100c0 -100 -33.333 -150 -100 -150l-300 100l-150 -100c-100 0 -150 41.667 -150 125s50 125 150 125v450h-121v150h121v200c0 233.333 100 350 300 350h150v-150h-150c-100 0 -150 -66.333 -150 -199v-201h250v-150h-250z" />
    <glyph glyph-name="currency" unicode="&#xa4;" horiz-adv-x="1100" 
d="M266 905l60 -61c56 37.333 130.333 56 223 56c93.333 0 168 -18.667 224 -56l60 59l71 -70l-61 -60c37.333 -56 56 -130.333 56 -223s-18.333 -167 -55 -223l59 -59l-71 -71l-59 59c-56 -37.333 -130.667 -56 -224 -56c-92.667 0 -167 18.333 -223 55l-59 -59l-71 71
l59 59c-37.333 56 -56 130.667 -56 224s18.667 168 56 224l-59 60zM799 550c0 166.667 -83.333 250 -250 250s-250 -83.333 -250 -250s83.333 -250 250 -250s250 83.333 250 250z" />
    <glyph glyph-name="yen" unicode="&#xa5;" horiz-adv-x="1101" 
d="M100 250v100h376v200h-376v100h363l-398 650h176l309 -509l322 509h176l-411 -650h363v-100h-375v-200h375v-100h-375v-250h-149v250h-376z" />
    <glyph glyph-name="brokenbar" unicode="&#xa6;" horiz-adv-x="450" 
d="M150 0v800h150v-800h-150zM150 1000v800h150v-800h-150z" />
    <glyph glyph-name="section" unicode="&#xa7;" horiz-adv-x="1050" 
d="M551 151c166 0 249.001 44.9961 249.001 134.996c0 89.333 -83 134 -249 134c-267.333 0 -401 96.667 -401 290c0 94.667 32 166.334 96 215.001c-64 48.667 -96 120.334 -96 215.001c0 194 133.333 291 400 291c167.333 0 284.333 -33.333 351 -100v-201
c-67.333 100 -184 150 -350 150c-166.667 0 -250 -46.667 -250 -140c0 -87.333 73 -133.666 219 -138.999h30v-1h1c266 0 399 -95 399 -285c0 -96.667 -32 -169.667 -96 -219c64 -47.333 96 -117.666 96 -210.999c0 -190 -133 -285 -399 -285
c-168.667 -0 -302.334 33.333 -401.001 100v200c101.333 -99.333 235 -149 401 -149zM301.001 709.996c0 -93.333 83.333 -139.999 250 -139.999h12c158 2 237 50.667 237 146c0 89.333 -83 134 -249 134h-14c-157.333 -2.66699 -236 -49.334 -236 -140.001z" />
    <glyph glyph-name="dieresis" unicode="&#xa8;" 
d="M-100 1376c0 -50 -24.667 -75 -74 -75c-50 -0.666992 -75 24 -75 74s25 75 75 75c49.333 0.666992 74 -24 74 -74zM101 1376c0 50 25 75 75 75c49.333 -0.666992 74 -25.667 74 -75c0 -50 -25 -75 -75 -75s-74.667 25 -74 75z" />
    <glyph glyph-name="copyright" unicode="&#xa9;" horiz-adv-x="1500" 
d="M750 1300c433.333 0 650 -216.667 650 -650s-216.667 -650 -650 -650s-650 216.667 -650 650s216.667 650 650 650zM750 100c366.667 0 550 183.333 550 550s-183.333 550 -550 550s-550 -183.333 -550 -550s183.333 -550 550 -550zM397 651
c0 300 115.334 450 346.001 450c115.333 0 208 -23.333 278 -70v-138c-46 68.667 -138.667 103 -278 103c-161.333 0 -242 -115.333 -242 -346s80.667 -346 242 -346c139.333 0 231.666 34.667 276.999 104v-138c-70 -46.667 -162.333 -70 -277 -70
c-230.667 0 -346 150.333 -346 451z" />
    <glyph glyph-name="ordfeminine" unicode="&#xaa;" horiz-adv-x="1050" 
d="M100 915c0 128.667 101.001 193 303.001 193h56v28c0 54.667 -46 82 -138 82c-60 0 -124.333 -9 -193 -27v82c69.333 18.667 133.666 28 192.999 28c147.333 0 221 -55 221 -165v-385h-83v87l-7 -5c-69.333 -55.333 -131.333 -83 -186 -83c-110.667 0 -166 55 -166 165z
M183.001 915c0 -54.667 27.667 -82 83 -82c36.667 0 78 18.333 124 55l69 55v82h-56c-146.667 0 -220 -36.667 -220 -110zM100.001 700h450v-50h-450v50z" />
    <glyph glyph-name="guillemotleft" unicode="&#xab;" horiz-adv-x="950" 
d="M499 601l-199 -200l199 -201v-100l-399 301l399 300v-100zM849 601l-199 -200l199 -201v-100l-399 301l399 300v-100z" />
    <glyph glyph-name="logicalnot" unicode="&#xac;" horiz-adv-x="1001" 
d="M1 850v150h1000v-500h-150v350h-850z" />
    <glyph glyph-name="minus" unicode="&#xad;" horiz-adv-x="1100" 
d="M150 400v150h800v-150h-800z" />
    <glyph glyph-name="registered" unicode="&#xae;" horiz-adv-x="1500" 
d="M750 1300c433.333 0 650 -216.667 650 -650s-216.667 -650 -650 -650s-650 216.667 -650 650s216.667 650 650 650zM750 100c366.667 0 550 183.333 550 550s-183.333 550 -550 550s-550 -183.333 -550 -550s183.333 -550 550 -550zM688 1094c206 0 309 -91.667 309 -275
c0 -132 -54 -216.667 -162 -254l266 -364h-128l-250 344c-0.666992 -0.666992 -3.66699 -1 -9 -1h-163v-343h-103v893h240zM894 819c0 114.667 -68.667 172 -206 172h-137v-343h137c137.333 0 206 57 206 171z" />
    <glyph glyph-name="macron" unicode="&#xaf;" 
d="M-400 1300v150h800v-150h-800z" />
    <glyph glyph-name="degree" unicode="&#xb0;" horiz-adv-x="1100" 
d="M800 950c0 166.667 -83.333 250 -250 250s-250 -83.333 -250 -250s83.333 -250 250 -250s250 83.333 250 250zM201 950c0 233.333 116.333 350 349 350c233.333 0 350 -116.667 350 -350s-116.667 -350 -350 -350c-232.667 0 -349 116.667 -349 350z" />
    <glyph glyph-name="plusminus" unicode="&#xb1;" horiz-adv-x="1250" 
d="M700 699v-399h-150v400h-400v150h400v400h150v-400h400v-151h-400zM150 0v150h950v-151z" />
    <glyph glyph-name="twosuperior" unicode="&#xb2;" horiz-adv-x="850" 
d="M703 1033c0 -50.667 -35.333 -115 -106 -193l-305 -336h411v-104h-553v101l362 399c58 64 87 108 87 132c0 109.333 -57.667 164 -173 164c-114.667 0 -172 -57.667 -172 -173h-104c0 184.667 92 277 276 277c184.667 0 277 -89 277 -267z" />
    <glyph glyph-name="threesuperior" unicode="&#xb3;" horiz-adv-x="850" 
d="M427 1301c184.667 0 277 -82.666 277 -247.999c0 -86.667 -27.667 -149.667 -83 -189c55.333 -44.667 83 -116.334 83 -215.001c0 -166 -92.333 -249 -277 -249c-184 0 -276 81 -276 243h104c0 -92.667 57.333 -139 172 -139s172 48.333 172 145
c0 111.333 -57.333 167 -172 167h-69v104h69c60.667 0 104.5 11.667 131.5 35s40.5 56 40.5 98c0 96 -57.333 144 -172 144s-172 -46 -172 -138h-104c0 161.333 92 242 276 242z" />
    <glyph glyph-name="glyph139" unicode="&#xb4;" 
d="M50 1300h-100l200 400h150z" />
    <glyph glyph-name="mu" unicode="&#xb5;" horiz-adv-x="1100" 
d="M550 150c166.667 0 249.999 83.333 249.999 250v600h150v-1000h-150v100c-66.667 -66.667 -150 -100 -250 -100c-103.333 0 -186.666 20 -249.999 60v-410h-150v1350h150v-600c0 -166.667 83.333 -250 250 -250z" />
    <glyph glyph-name="paragraph" unicode="&#xb6;" horiz-adv-x="1050" 
d="M600 1800h450v-100h-100v-1700h-100v1700h-150v-1700h-100v800c-332.667 0.666992 -499 166.334 -499 497.001v4c0 333.333 166.333 499.666 499 498.999z" />
    <glyph glyph-name="periodcentered" unicode="&#xb7;" horiz-adv-x="600" 
d="M500 500c0 -133.333 -66.667 -200 -200 -200s-200 66.667 -200 200s66.667 200 200 200s200 -66.667 200 -200z" />
    <glyph glyph-name="cedilla" unicode="&#xb8;" 
d="M150 100l-100 -200c133.333 0 200 -58.333 200 -175s-83.333 -175 -250 -175c-66.667 0 -116.667 33.333 -150 100h150c100 0 150 25 150 75s-33.333 75 -100 75h-150l150 300h100z" />
    <glyph glyph-name="onesuperior" unicode="&#xb9;" horiz-adv-x="400" 
d="M154 1092h-104v104c46 0 80.667 34.667 104 104h104v-796h104v-104h-312v104h104v588z" />
    <glyph glyph-name="ordmasculine" unicode="&#xba;" horiz-adv-x="1050" 
d="M100 700h450v-50h-450v50zM325 1300c150 0 225 -91.667 225 -275c-0.666992 -183.333 -76 -275 -226 -275h-1c-148.667 0 -223 91 -223 273v2c0 183.333 75 275 225 275zM324 832c94 0 141 64 141 192v3c0 126.667 -47 190 -141 190c-93.333 0 -140 -64.333 -140 -193
c0 -128 46.667 -192 140 -192z" />
    <glyph glyph-name="guillemotright" unicode="&#xbb;" horiz-adv-x="950" 
d="M451 199l199 200l-199 201v100l399 -301l-399 -300v100zM101 199l199 200l-199 201v100l399 -301l-399 -300v100z" />
    <glyph glyph-name="onequarter" unicode="&#xbc;" horiz-adv-x="1450" 
d="M154 1092h-104v104c46 0 80.667 34.667 104 104h104v-796h104v-104h-312v104h104v588zM1129 1301l-781 -1302h-116l780 1301zM1314 278v-278h-104v278h-450v90l450 532h104v-519h85v-103h-85zM1210 739l-303 -358h303v358z" />
    <glyph glyph-name="onehalf" unicode="&#xbd;" horiz-adv-x="1550" 
d="M154 1092h-104v104c46 0 80.667 34.667 104 104h104v-796h104v-104h-312v104h104v588zM1450 633c0 -50.667 -35.333 -115 -106 -193l-305 -336h411v-104h-553v101l362 399c58 64 87 108 87 132c0 109.333 -57.333 164 -172 164c-115.333 0 -173 -57.667 -173 -173h-104
c0 184.667 92.333 277 277 277c184 0 276 -89 276 -267zM1129 1301l-781 -1302h-116l780 1301z" />
    <glyph glyph-name="threequarters" unicode="&#xbe;" horiz-adv-x="1700" 
d="M1379 1301l-781 -1302h-116l780 1301zM1564 278v-278h-104v278h-450v90l450 532h104v-519h85v-103h-85zM1460 739l-303 -358h303v358zM427 1301c184.667 0 277 -82.666 277 -247.999c0 -86.667 -27.667 -149.667 -83 -189c55.333 -44.667 83 -116.334 83 -215.001
c0 -166 -92.333 -249 -277 -249c-184 0 -276 81 -276 243h104c0 -92.667 57.333 -139 172 -139s172 48.333 172 145c0 111.333 -57.333 167 -172 167h-69v104h69c60.667 0 104.5 11.667 131.5 35s40.5 56 40.5 98c0 96 -57.333 144 -172 144s-172 -46 -172 -138h-104
c0 161.333 92 242 276 242z" />
    <glyph glyph-name="questiondown" unicode="&#xbf;" horiz-adv-x="1100" 
d="M151 400c0 233.333 116.667 350 350 350v250h150v-400h-150c-133.333 0 -200 -67 -200 -201c0 -166.667 83.333 -250 250 -250s250 50.333 250 151h150c0 -200 -133.333 -300 -400 -300h-3c-264.667 -0 -397 133.333 -397 400zM576 1300c50 0 75 -25 75 -75
s-25 -75 -75 -75s-75 25 -75 75s25 75 75 75z" />
    <glyph glyph-name="Agrave" unicode="&#xc0;" horiz-adv-x="1100" 
d="M1062 0h-157l-127 400h-451l-123 -400h-156l402 1300h200zM731 550l-181 574l-176 -574h357zM700 1400h-100l-300 350h150z" />
    <glyph glyph-name="Aacute" unicode="&#xc1;" horiz-adv-x="1100" 
d="M1062 0h-157l-127 400h-451l-123 -400h-156l402 1300h200zM731 550l-181 574l-176 -574h357zM550 1400h-100l200 400h150z" />
    <glyph glyph-name="Acircumflex" unicode="&#xc2;" horiz-adv-x="1100" 
d="M1062 0h-157l-127 400h-451l-123 -400h-156l402 1300h200zM731 550l-181 574l-176 -574h357zM751 1401l-200 199l-201 -199h-100l301 399l300 -399h-100z" />
    <glyph glyph-name="Atilde" unicode="&#xc3;" horiz-adv-x="1100" 
d="M1062 0h-157l-127 400h-451l-123 -400h-156l402 1300h200zM731 550l-181 574l-176 -574h357zM706 1400c-65.333 0 -123.666 16.667 -174.999 50s-93 50 -125 50c-32.667 0 -49 -33.333 -49 -100h-101c0 133.333 50 200 150 200c65.333 0 123.666 -16.667 174.999 -50
s93 -50 125 -50c33.333 0 50 33.333 50 100h100c0 -133.333 -50 -200 -150 -200z" />
    <glyph glyph-name="Adieresis" unicode="&#xc4;" horiz-adv-x="1100" 
d="M1062 0h-157l-127 400h-451l-123 -400h-156l402 1300h200zM731 550l-181 574l-176 -574h357zM450 1476c0 -50 -24.667 -75 -74 -75c-50 -0.666992 -75 24 -75 74s25 75 75 75c49.333 0.666992 74 -24 74 -74zM651 1476c0 50 25 75 75 75
c49.333 -0.666992 74 -25.667 74 -75c0 -50 -25 -75 -75 -75s-74.667 25 -74 75z" />
    <glyph glyph-name="Aring" unicode="&#xc5;" horiz-adv-x="1100" 
d="M350 1500c0 133.333 66.667 200 200 200s200 -66.667 200 -200c0 -130 -63.333 -196.667 -190 -200h90l412 -1300h-157l-127 400h-451l-123 -400h-156l402 1300h90c-126.667 3.33301 -190 70 -190 200zM731 550l-181 574l-176 -574h357zM650 1500
c0 66.667 -33.333 100 -100 100s-100 -33.333 -100 -100s33.333 -100 100 -100s100 33.333 100 100z" />
    <glyph glyph-name="AE" unicode="&#xc6;" horiz-adv-x="1400" 
d="M1350 1300v-150h-650v-350h600v-150h-600v-500h650v-150h-800v400h-223l-123 -400h-156l402 1300h900zM550 550v574l-176 -574h176z" />
    <glyph glyph-name="Ccedilla" unicode="&#xc7;" horiz-adv-x="1150" 
d="M150 651c0 433.333 166.666 649.999 499.999 649.999c166 0 299.667 -33.667 401 -101v-200c-66 100 -199.667 150 -401 150c-233.333 0 -350 -166.667 -350 -500s116.667 -500 350 -500c200.667 0 334 50 400 150v-199c-101.333 -67.333 -234.666 -101 -399.999 -101h-2
l-48 -100c133.333 0 200 -58.333 200 -175c0.666992 -116.667 -82.333 -175 -249 -175c-66.667 0 -116.667 33 -150 99l150 1c99.333 0 149 25 149 75c0 49.333 -33 74 -99 74l-150 1l100 207c-267.333 40.667 -401 255.334 -401 644.001z" />
    <glyph glyph-name="Egrave" unicode="&#xc8;" horiz-adv-x="1049" 
d="M950 1300v-150h-650v-350h600v-150h-600v-500h650v-150h-800v1300h800zM700 1400h-100l-300 350h150z" />
    <glyph glyph-name="Eacute" unicode="&#xc9;" horiz-adv-x="1049" 
d="M950 1300v-150h-650v-350h600v-150h-600v-500h650v-150h-800v1300h800zM550 1400h-100l200 400h150z" />
    <glyph glyph-name="Ecircumflex" unicode="&#xca;" horiz-adv-x="1049" 
d="M950 1300v-150h-650v-350h600v-150h-600v-500h650v-150h-800v1300h800zM751 1401l-200 199l-201 -199h-100l301 399l300 -399h-100z" />
    <glyph glyph-name="Edieresis" unicode="&#xcb;" horiz-adv-x="1049" 
d="M950 1300v-150h-650v-350h600v-150h-600v-500h650v-150h-800v1300h800zM450 1476c0 -50 -24.667 -75 -74 -75c-50 -0.666992 -75 24 -75 74s25 75 75 75c49.333 0.666992 74 -24 74 -74zM651 1476c0 50 25 75 75 75c49.333 -0.666992 74 -25.667 74 -75
c0 -50 -25 -75 -75 -75s-74.667 25 -74 75z" />
    <glyph glyph-name="Igrave" unicode="&#xcc;" horiz-adv-x="650" 
d="M100 150h150v1000h-150v150h450v-150h-150v-1000h150v-150h-450v150zM400 1400h-100l-300 350h150z" />
    <glyph glyph-name="Iacute" unicode="&#xcd;" horiz-adv-x="650" 
d="M100 150h150v1000h-150v150h450v-150h-150v-1000h150v-150h-450v150zM350 1400h-100l200 400h150z" />
    <glyph glyph-name="Icircumflex" unicode="&#xce;" horiz-adv-x="650" 
d="M100 150h150v1000h-150v150h450v-150h-150v-1000h150v-150h-450v150zM526 1399l-200 199l-201 -199h-100l301 399l300 -399h-100z" />
    <glyph glyph-name="Idieresis" unicode="&#xcf;" horiz-adv-x="650" 
d="M100 150h150v1000h-150v150h450v-150h-150v-1000h150v-150h-450v150zM250 1476c0 -50 -24.667 -75 -74 -75c-50 -0.666992 -75 24 -75 74s25 75 75 75c49.333 0.666992 74 -24 74 -74zM401 1476c0 50 25 75 75 75c49.333 -0.666992 74 -25.667 74 -75
c0 -50 -25 -75 -75 -75s-74.667 25 -74 75z" />
    <glyph glyph-name="Ntilde" unicode="&#xd1;" horiz-adv-x="1100" 
d="M300 976v-976h-150v1300h151l499 -972v972h150v-1300h-151zM706 1400c-65.333 0 -123.666 16.667 -174.999 50s-93 50 -125 50c-32.667 0 -49 -33.333 -49 -100h-101c0 133.333 50 200 150 200c65.333 0 123.666 -16.667 174.999 -50s93 -50 125 -50
c33.333 0 50 33.333 50 100h100c0 -133.333 -50 -200 -150 -200z" />
    <glyph glyph-name="Ograve" unicode="&#xd2;" horiz-adv-x="1300" 
d="M150 650c0 433.333 166.667 650 500 650s500 -216.667 500 -650s-166.667 -650 -500 -650s-500 216.667 -500 650zM300 650c0 -333.333 116.667 -500 350 -500s350 166.667 350 500s-116.667 500 -350 500s-350 -166.667 -350 -500zM750 1400h-100l-300 350h150z" />
    <glyph glyph-name="Oacute" unicode="&#xd3;" horiz-adv-x="1300" 
d="M150 650c0 433.333 166.667 650 500 650s500 -216.667 500 -650s-166.667 -650 -500 -650s-500 216.667 -500 650zM300 650c0 -333.333 116.667 -500 350 -500s350 166.667 350 500s-116.667 500 -350 500s-350 -166.667 -350 -500zM600 1400h-100l200 400h150z" />
    <glyph glyph-name="Ocircumflex" unicode="&#xd4;" horiz-adv-x="1300" 
d="M150 650c0 433.333 166.667 650 500 650s500 -216.667 500 -650s-166.667 -650 -500 -650s-500 216.667 -500 650zM300 650c0 -333.333 116.667 -500 350 -500s350 166.667 350 500s-116.667 500 -350 500s-350 -166.667 -350 -500zM850 1401l-200 199l-201 -199h-100
l301 399l300 -399h-100z" />
    <glyph glyph-name="Otilde" unicode="&#xd5;" horiz-adv-x="1300" 
d="M150 650c0 433.333 166.667 650 500 650s500 -216.667 500 -650s-166.667 -650 -500 -650s-500 216.667 -500 650zM300 650c0 -333.333 116.667 -500 350 -500s350 166.667 350 500s-116.667 500 -350 500s-350 -166.667 -350 -500zM796 1400
c-65.333 0 -123.666 16.667 -174.999 50s-93 50 -125 50c-32.667 0 -49 -33.333 -49 -100h-101c0 133.333 50 200 150 200c65.333 0 123.666 -16.667 174.999 -50s93 -50 125 -50c33.333 0 50 33.333 50 100h100c0 -133.333 -50 -200 -150 -200z" />
    <glyph glyph-name="Odieresis" unicode="&#xd6;" horiz-adv-x="1300" 
d="M150 650c0 433.333 166.667 650 500 650s500 -216.667 500 -650s-166.667 -650 -500 -650s-500 216.667 -500 650zM300 650c0 -333.333 116.667 -500 350 -500s350 166.667 350 500s-116.667 500 -350 500s-350 -166.667 -350 -500zM550 1476c0 -50 -24.667 -75 -74 -75
c-50 -0.666992 -75 24 -75 74s25 75 75 75c49.333 0.666992 74 -24 74 -74zM751 1476c0 50 25 75 75 75c49.333 -0.666992 74 -25.667 74 -75c0 -50 -25 -75 -75 -75s-74.667 25 -74 75z" />
    <glyph glyph-name="multiply" unicode="&#xd7;" horiz-adv-x="1100" 
d="M656 574l282 -282l-106 -106l-283 283l-283 -283l-106 106l283 283l-283 283l106 106l283 -283l283 283l107 -107z" />
    <glyph glyph-name="Oslash" unicode="&#xd8;" horiz-adv-x="1300" 
d="M1069 1392l-97 -198c118.667 -104.667 178 -286 178 -544c0 -433.333 -166.667 -650 -500 -650c-92 -0 -171.333 16.333 -238 49l-91 -186l-89 44l97 198c-119.333 104 -179 285.667 -179 545c0 433.333 166.667 650 500 650c92 0 171.333 -16.667 238 -50l91 186z
M300 650c0 -180.667 33.999 -312.333 101.999 -395l417 855c-47.333 26.667 -103.666 40 -168.999 40c-233.333 0 -350 -166.667 -350 -500zM649.999 150.001c233.333 0 350 166.667 350 500c0 179.333 -34 310.333 -102 393l-417 -853c46.667 -26.667 103 -40 169 -40z" />
    <glyph glyph-name="Ugrave" unicode="&#xd9;" horiz-adv-x="1200" 
d="M600 0c-300 0 -450 133.333 -450 400v900h150v-900c0 -166.667 100 -250 300 -250s300 83.333 300 250v900h150v-900c0 -266.667 -150 -400 -450 -400zM750 1400h-100l-300 350h150z" />
    <glyph glyph-name="Uacute" unicode="&#xda;" horiz-adv-x="1200" 
d="M600 0c-300 0 -450 133.333 -450 400v900h150v-900c0 -166.667 100 -250 300 -250s300 83.333 300 250v900h150v-900c0 -266.667 -150 -400 -450 -400zM600 1400h-100l200 400h150z" />
    <glyph glyph-name="Ucircumflex" unicode="&#xdb;" horiz-adv-x="1200" 
d="M600 0c-300 0 -450 133.333 -450 400v900h150v-900c0 -166.667 100 -250 300 -250s300 83.333 300 250v900h150v-900c0 -266.667 -150 -400 -450 -400zM801 1401l-200 199l-201 -199h-100l301 399l300 -399h-100z" />
    <glyph glyph-name="Udieresis" unicode="&#xdc;" horiz-adv-x="1200" 
d="M600 0c-300 0 -450 133.333 -450 400v900h150v-900c0 -166.667 100 -250 300 -250s300 83.333 300 250v900h150v-900c0 -266.667 -150 -400 -450 -400zM500 1476c0 -50 -24.667 -75 -74 -75c-50 -0.666992 -75 24 -75 74s25 75 75 75c49.333 0.666992 74 -24 74 -74z
M701 1476c0 50 25 75 75 75c49.333 -0.666992 74 -25.667 74 -75c0 -50 -25 -75 -75 -75s-74.667 25 -74 75z" />
    <glyph glyph-name="Yacute" unicode="&#xdd;" horiz-adv-x="1106" 
d="M65 1300h176l309 -509l322 509h176l-423 -670v-630h-149v629zM600 1400h-100l200 400h150z" />
    <glyph glyph-name="Thorn" unicode="&#xde;" horiz-adv-x="1050" 
d="M150 1300h150v-250h200c300 0 450 -133.333 450 -400s-150 -400 -450 -400h-200v-250h-150v1300zM800 650c0 166.667 -100 250 -300 250h-200v-500h200c200 0 300 83.333 300 250z" />
    <glyph glyph-name="germandbls" unicode="&#xdf;" horiz-adv-x="1050" 
d="M700 975c0 116.667 -66.666 175 -199.999 175s-200 -50 -200 -150v-750c0 -166.667 -83.333 -250 -250 -250v150c66.667 0 100 33.333 100 100v750c0 200 116.667 300 350 300s350 -108.333 350 -325c0 -100.667 -25 -178 -75 -232c116.667 -62.667 175 -177 175 -343
c0 -266.667 -150 -400 -450 -400h-100v150h100c200 0 300 83.333 300 250c0 85.333 -22.833 148.333 -68.5 189s-122.834 61 -231.501 61h-100v150h100c133.333 0 200 58.333 200 175z" />
    <glyph glyph-name="agrave" unicode="&#xe0;" horiz-adv-x="1050" 
d="M100 300c0 233.333 183.333 350 550 350h101v51c0 100 -83.667 150 -251 150c-108.667 0 -225 -16.667 -349 -50v150c125.333 33.333 242 50 350 50c266.667 0 400 -100 400 -300v-700h-150v159l-13 -10c-125.333 -100 -238 -150 -338 -150c-200 0 -300 100 -300 300z
M251 300c0 -99.333 50 -149 150 -149c66 0 140.667 33 224 99l125 100v150h-100c-266 0 -399 -66.667 -399 -200zM700 1150h-100l-300 350h150z" />
    <glyph glyph-name="aacute" unicode="&#xe1;" horiz-adv-x="1050" 
d="M100 300c0 233.333 183.333 350 550 350h101v51c0 100 -83.667 150 -251 150c-108.667 0 -225 -16.667 -349 -50v150c125.333 33.333 242 50 350 50c266.667 0 400 -100 400 -300v-700h-150v159l-13 -10c-125.333 -100 -238 -150 -338 -150c-200 0 -300 100 -300 300z
M251 300c0 -99.333 50 -149 150 -149c66 0 140.667 33 224 99l125 100v150h-100c-266 0 -399 -66.667 -399 -200zM500 1150h-100l200 400h150z" />
    <glyph glyph-name="acircumflex" unicode="&#xe2;" horiz-adv-x="1050" 
d="M100 300c0 233.333 183.332 350 549.999 350h101v51c0 100 -83.667 150 -251 150c-107.333 0 -223.666 -16.667 -348.999 -50v150c126 33.333 242.667 50 350 50c266.667 0 400 -100 400 -300v-700h-150v159l-13 -10c-125.333 -100 -238 -150 -338 -150
c-200 0 -300 100 -300 300zM650.999 500c-266.667 0 -400 -66.667 -400 -200c0 -99.333 50 -149 150 -149c66 0 140.667 33 224 99l125 100l1 -3v153h-100zM750.999 1151l-200 199l-201 -199h-100l301 399l300 -399h-100z" />
    <glyph glyph-name="atilde" unicode="&#xe3;" horiz-adv-x="1050" 
d="M100 300c0 233.333 183.332 350 549.999 350h101v51c0 100 -83.667 150 -251 150c-107.333 0 -223.666 -16.667 -348.999 -50v150c126 33.333 242.667 50 350 50c266.667 0 400 -100 400 -300v-700h-150v159l-13 -10c-125.333 -100 -238 -150 -338 -150
c-200 0 -300 100 -300 300zM650.999 500c-266.667 0 -400 -66.667 -400 -200c0 -99.333 50 -149 150 -149c66 0 140.667 33 224 99l125 100l1 -3v153h-100zM675.999 1150c-65.333 0 -123.666 16.667 -174.999 50s-93 50 -125 50c-32.667 0 -49 -33.333 -49 -100h-101
c0 133.333 50 200 150 200c65.333 0 123.666 -16.667 174.999 -50s93 -50 125 -50c33.333 0 50 33.333 50 100h100c0 -133.333 -50 -200 -150 -200z" />
    <glyph glyph-name="adieresis" unicode="&#xe4;" horiz-adv-x="1050" 
d="M100 300c0 233.333 183.332 350 549.999 350h101v51c0 100 -83.667 150 -251 150c-107.333 0 -223.666 -16.667 -348.999 -50v150c126 33.333 242.667 50 350 50c266.667 0 400 -100 400 -300v-700h-150v159l-13 -10c-125.333 -100 -238 -150 -338 -150
c-200 0 -300 100 -300 300zM650.999 500c-266.667 0 -400 -66.667 -400 -200c0 -99.333 50 -149 150 -149c66 0 140.667 33 224 99l125 100l1 -3v153h-100zM449.999 1226c0 -50 -24.667 -75 -74 -75c-50 -0.666992 -75 24 -75 74s25 75 75 75c49.333 0.666992 74 -24 74 -74
zM650.999 1226c0 50 25 75 75 75c49.333 -0.666992 74 -25.667 74 -75c0 -50 -25 -75 -75 -75s-74.667 25 -74 75z" />
    <glyph glyph-name="aring" unicode="&#xe5;" horiz-adv-x="1050" 
d="M100 300c0 233.333 183.332 350 549.999 350h101v51c0 100 -83.667 150 -251 150c-107.333 0 -223.666 -16.667 -348.999 -50v150c126 33.333 242.667 50 350 50c266.667 0 400 -100 400 -300v-700h-150v159l-13 -10c-125.333 -100 -238 -150 -338 -150
c-200 0 -300 100 -300 300zM650.999 500c-266.667 0 -400 -66.667 -400 -200c0 -99.333 50 -149 150 -149c66 0 140.667 33 224 99l125 100l1 -3v153h-100zM649.999 1250c0 66.667 -33.333 100 -100 100s-100 -33.333 -100 -100s33.333 -100 100 -100s100 33.333 100 100z
M349.999 1250c0 133.333 66.667 200 200 200s200 -66.667 200 -200s-66.667 -200 -200 -200s-200 66.667 -200 200z" />
    <glyph glyph-name="ae" unicode="&#xe6;" horiz-adv-x="1650" 
d="M1151 1001c266.667 0 400.001 -133.333 400.001 -400v-151h-650c12 -200 95 -300 249 -300c166 0 299.667 50 401 150v-199c-100.667 -66.667 -234.334 -100 -401.001 -100h-2c-168 0 -282.667 66.333 -344 199l-66 -50c-125.333 -100 -238 -150 -338 -150
c-200 0 -300 100 -300 300c0 233.333 183.333 350 550 350h101v51c0 100 -83.667 150 -251 150c-108.667 0 -225 -16.667 -349 -50v150c125.333 33.333 242 50 350 50c172 0 288.667 -41.667 350 -125c66.667 83.333 166.667 125 300 125zM251.001 300
c0 -99.333 50 -149 150 -149c66 0 140.667 33 224 99l125 100v150h-100c-266 0 -399 -66.667 -399 -200zM1151 851c-140 0 -221.667 -83.667 -245 -251h494v3c0 164 -83 246.667 -249 248z" />
    <glyph glyph-name="ccedilla" unicode="&#xe7;" horiz-adv-x="1050" 
d="M150 500c0 333.333 150.332 500 450.999 500c134.667 0 251.334 -33.333 350.001 -100v-200c-66 100 -183 150 -351 150c-199.333 0 -299 -116.667 -299 -350c0 -232.667 100 -349.334 300 -350.001c167.333 0 284 50 350 150v-199
c-89.333 -59.333 -190.333 -92.666 -303 -99.999l-48 -101c133.333 0 200 -58.333 200 -175c0.666992 -116.667 -82.333 -175 -249 -175c-66.667 0 -116.667 33 -150 99l150 1c99.333 0 149 25 149 75c0 49.333 -33 74 -99 74l-150 1l97 202
c-265.333 18.667 -398 184.667 -398 498z" />
    <glyph glyph-name="egrave" unicode="&#xe8;" horiz-adv-x="1050" 
d="M501 1001c266.667 0 400.001 -133.333 400.001 -400v-151h-650c12 -200 95 -300 249 -300c166 0 299.667 50 401 150v-199c-100.667 -66.667 -234.334 -100 -401.001 -100h-2c-264.667 0 -397 165.333 -397 496v4c0 333.333 133.333 500 400 500zM501.001 851
c-140 0 -221.667 -83.667 -245 -251h494v3c0 164 -83 246.667 -249 248zM700.001 1150h-100l-300 350h150z" />
    <glyph glyph-name="eacute" unicode="&#xe9;" horiz-adv-x="1050" 
d="M501 1001c266.667 0 400.001 -133.333 400.001 -400v-151h-650c12 -200 95 -300 249 -300c166 0 299.667 50 401 150v-199c-100.667 -66.667 -234.334 -100 -401.001 -100h-2c-264.667 0 -397 165.333 -397 496v4c0 333.333 133.333 500 400 500zM501.001 851
c-140 0 -221.667 -83.667 -245 -251h494v3c0 164 -83 246.667 -249 248zM500.001 1150h-100l200 400h150z" />
    <glyph glyph-name="ecircumflex" unicode="&#xea;" horiz-adv-x="1050" 
d="M501 1001c266.667 0 400.001 -133.333 400.001 -400v-151h-650c12 -200 95 -300 249 -300c166 0 299.667 50 401 150v-199c-100.667 -66.667 -234.334 -100 -401.001 -100h-2c-264.667 0 -397 165.333 -397 496v4c0 333.333 133.333 500 400 500zM501.001 851
c-140 0 -221.667 -83.667 -245 -251h494v3c0 164 -83 246.667 -249 248zM751.001 1151l-200 199l-201 -199h-100l301 399l300 -399h-100z" />
    <glyph glyph-name="edieresis" unicode="&#xeb;" horiz-adv-x="1050" 
d="M501 1001c266.667 0 400.001 -133.333 400.001 -400v-151h-650c12 -200 95 -300 249 -300c166 0 299.667 50 401 150v-199c-100.667 -66.667 -234.334 -100 -401.001 -100h-2c-264.667 0 -397 165.333 -397 496v4c0 333.333 133.333 500 400 500zM501.001 851
c-140 0 -221.667 -83.667 -245 -251h494v3c0 164 -83 246.667 -249 248zM450.001 1226c0 -50 -24.667 -75 -74 -75c-50 -0.666992 -75 24 -75 74s25 75 75 75c49.333 0.666992 74 -24 74 -74zM651.001 1226c0 50 25 75 75 75c49.333 -0.666992 74 -25.667 74 -75
c0 -50 -25 -75 -75 -75s-74.667 25 -74 75z" />
    <glyph glyph-name="igrave" unicode="&#xec;" horiz-adv-x="450" 
d="M150 1000h150v-1000h-150v1000zM300 1150h-100l-300 350h150z" />
    <glyph glyph-name="iacute" unicode="&#xed;" horiz-adv-x="450" 
d="M150 1000h150v-1000h-150v1000zM250 1150h-100l200 400h150z" />
    <glyph glyph-name="icircumflex" unicode="&#xee;" horiz-adv-x="450" 
d="M150 1000h150v-1000h-150v1000zM424 1101l-200 199l-201 -199h-100l301 399l300 -399h-100z" />
    <glyph glyph-name="idieresis" unicode="&#xef;" horiz-adv-x="450" 
d="M150 1000h150v-1000h-150v1000zM375 1300c50 0 75 -25 75 -75s-25 -75 -75 -75s-75 25 -75 75s25 75 75 75zM75 1300c50 0 75 -25 75 -75s-25 -75 -75 -75s-75 25 -75 75s25 75 75 75z" />
    <glyph glyph-name="eth" unicode="&#xf0;" horiz-adv-x="1100" 
d="M-94 1176l482 176.999l-255 420l128 78l271 -446l510 188l52 -141l-483 -177l254 -418c9.33301 -12 17.333 -25.333 24 -40h1c41.333 -79.333 62 -184.666 62 -315.999c-1.33301 -333.333 -135 -500 -401 -500h-2c-264.667 0 -397 165.333 -397 496v4
c0 333.333 133.333 500 400 500c18 0 35.333 -1 52 -3l-136 224l-510 -187zM551 149.999c166.667 0 250 116.667 250 350v4c0 230.667 -83.333 346 -250 346s-250 -116.667 -250 -350s83.333 -350 250 -350z" />
    <glyph glyph-name="ntilde" unicode="&#xf1;" horiz-adv-x="1100" 
d="M300 900c66.667 66.667 150 100 250 100c266.667 0 400 -133.333 400 -400v-600h-150v600c0 166.667 -83.333 250 -250 250s-250 -83.333 -250 -250v-600h-150v1000h150v-100zM706 1150c-65.333 0 -123.666 16.667 -174.999 50s-93 50 -125 50
c-32.667 0 -49 -33.333 -49 -100h-101c0 133.333 50 200 150 200c65.333 0 123.666 -16.667 174.999 -50s93 -50 125 -50c33.333 0 50 33.333 50 100h100c0 -133.333 -50 -200 -150 -200z" />
    <glyph glyph-name="ograve" unicode="&#xf2;" horiz-adv-x="1100" 
d="M551 1001c266.667 0 400 -166.667 400 -500c-1.33301 -333.333 -135 -500 -401 -500h-2c-264.667 0 -397 165.333 -397 496v4c0 333.333 133.333 500 400 500zM550 150c166.667 0 250 116.667 250 350v4c0 230.667 -83.333 346 -250 346s-250 -116.667 -250 -350
s83.333 -350 250 -350zM700 1150h-100l-300 350h150z" />
    <glyph glyph-name="oacute" unicode="&#xf3;" horiz-adv-x="1100" 
d="M551 1001c266.667 0 400 -166.667 400 -500c-1.33301 -333.333 -135 -500 -401 -500h-2c-264.667 0 -397 165.333 -397 496v4c0 333.333 133.333 500 400 500zM550 150c166.667 0 250 116.667 250 350v4c0 230.667 -83.333 346 -250 346s-250 -116.667 -250 -350
s83.333 -350 250 -350zM500 1150h-100l200 400h150z" />
    <glyph glyph-name="ocircumflex" unicode="&#xf4;" horiz-adv-x="1100" 
d="M551 1001c266.667 0 400 -166.667 400 -500c-1.33301 -333.333 -135 -500 -401 -500h-2c-264.667 0 -397 165.333 -397 496v4c0 333.333 133.333 500 400 500zM550 150c166.667 0 250 116.667 250 350v4c0 230.667 -83.333 346 -250 346s-250 -116.667 -250 -350
s83.333 -350 250 -350zM751 1151l-200 199l-201 -199h-100l301 399l300 -399h-100z" />
    <glyph glyph-name="otilde" unicode="&#xf5;" horiz-adv-x="1100" 
d="M551 1001c266.667 0 400 -166.667 400 -500c-1.33301 -333.333 -135 -500 -401 -500h-2c-264.667 0 -397 165.333 -397 496v4c0 333.333 133.333 500 400 500zM550 150c166.667 0 250 116.667 250 350v4c0 230.667 -83.333 346 -250 346s-250 -116.667 -250 -350
s83.333 -350 250 -350zM700 1150c-65.333 0 -123.666 16.667 -174.999 50s-93 50 -125 50c-32.667 0 -49 -33.333 -49 -100h-101c0 133.333 50 200 150 200c65.333 0 123.666 -16.667 174.999 -50s93 -50 125 -50c33.333 0 50 33.333 50 100h100
c0 -133.333 -50 -200 -150 -200z" />
    <glyph glyph-name="odieresis" unicode="&#xf6;" horiz-adv-x="1100" 
d="M551 1001c266.667 0 400 -166.667 400 -500c-1.33301 -333.333 -135 -500 -401 -500h-2c-264.667 0 -397 165.333 -397 496v4c0 333.333 133.333 500 400 500zM550 150c166.667 0 250 116.667 250 350v4c0 230.667 -83.333 346 -250 346s-250 -116.667 -250 -350
s83.333 -350 250 -350zM450 1226c0 -50 -24.667 -75 -74 -75c-50 -0.666992 -75 24 -75 74s25 75 75 75c49.333 0.666992 74 -24 74 -74zM651 1226c0 50 25 75 75 75c49.333 -0.666992 74 -25.667 74 -75c0 -50 -25 -75 -75 -75s-74.667 25 -74 75z" />
    <glyph glyph-name="divide" unicode="&#xf7;" horiz-adv-x="1150" 
d="M1000 450h-850v150h850v-150zM650 225c0 -20.667 -7.33301 -38.334 -22 -53.001s-32.334 -22 -53.001 -22s-38.334 7.33301 -53.001 22s-22 32.334 -22 53.001s7.33301 38.334 22 53.001s32.334 22 53.001 22s38.334 -7.33301 53.001 -22s22 -32.334 22 -53.001zM650 825
c0 -20.667 -7.33301 -38.334 -22 -53.001s-32.334 -22 -53.001 -22s-38.334 7.33301 -53.001 22s-22 32.334 -22 53.001s7.33301 38.334 22 53.001s32.334 22 53.001 22s38.334 -7.33301 53.001 -22s22 -32.334 22 -53.001z" />
    <glyph glyph-name="oslash" unicode="&#xf8;" horiz-adv-x="1100" 
d="M853 1134l-76 -192c116 -74.667 174 -221.667 174 -441c-1.33301 -333.333 -135 -500 -401 -500h-2c-49.333 0 -94 5.66699 -134 17l-74 -188l-92 37l75 191c-114.667 74.667 -172 221 -172 439v4c0 333.333 133.333 500 400 500c50 0 95 -6 135 -18l74 187zM550 850
c-166.667 0 -249.999 -116.667 -249.999 -350c0 -135.333 27.667 -231.333 83 -288l247 627c-24.667 7.33301 -51.334 11 -80.001 11zM550.001 150c166.667 0 250 116.666 250 349.999v4c0 132.667 -27.667 227.334 -83 284.001l-247 -628c24 -6.66699 50.667 -10 80 -10z
" />
    <glyph glyph-name="ugrave" unicode="&#xf9;" horiz-adv-x="1100" 
d="M550 150c166.667 0 250 83.333 250 250v600h150v-1000h-150v100c-66.667 -66.667 -150 -100 -250 -100c-266.667 -0 -400 133.333 -400 400v600h150v-600c0 -166.667 83.333 -250 250 -250zM700 1150h-100l-300 350h150z" />
    <glyph glyph-name="uacute" unicode="&#xfa;" horiz-adv-x="1100" 
d="M550 150c166.667 0 250 83.333 250 250v600h150v-1000h-150v100c-66.667 -66.667 -150 -100 -250 -100c-266.667 -0 -400 133.333 -400 400v600h150v-600c0 -166.667 83.333 -250 250 -250zM500 1150h-100l200 400h150z" />
    <glyph glyph-name="ucircumflex" unicode="&#xfb;" horiz-adv-x="1100" 
d="M550 150c166.667 0 250 83.333 250 250v600h150v-1000h-150v100c-66.667 -66.667 -150 -100 -250 -100c-266.667 -0 -400 133.333 -400 400v600h150v-600c0 -166.667 83.333 -250 250 -250zM751 1151l-200 199l-201 -199h-100l301 399l300 -399h-100z" />
    <glyph glyph-name="udieresis" unicode="&#xfc;" horiz-adv-x="1100" 
d="M550 150c166.667 0 250 83.333 250 250v600h150v-1000h-150v100c-66.667 -66.667 -150 -100 -250 -100c-266.667 -0 -400 133.333 -400 400v600h150v-600c0 -166.667 83.333 -250 250 -250zM450 1226c0 -50 -24.667 -75 -74 -75c-50 -0.666992 -75 24 -75 74s25 75 75 75
c49.333 0.666992 74 -24 74 -74zM651 1226c0 50 25 75 75 75c49.333 -0.666992 74 -25.667 74 -75c0 -50 -25 -75 -75 -75s-74.667 25 -74 75z" />
    <glyph glyph-name="yacute" unicode="&#xfd;" horiz-adv-x="1100" 
d="M258 -400l209 489l-377 911h162l298 -716l306 716h163l-598 -1400h-163zM500 1150h-100l200 400h150z" />
    <glyph glyph-name="thorn" unicode="&#xfe;" horiz-adv-x="1050" 
d="M300 925c62.667 50.667 146.332 76 250.999 76c266.667 0 400 -166.667 400 -500c-1.33301 -333.333 -135 -500 -401 -500h-6c-99.333 0 -180.666 24.667 -243.999 74v-475h-150v1700h150v-375zM549.998 150c166.667 0 250 116.667 250 350s-83.333 350 -250 350
s-250 -116.667 -250 -350s83.333 -350 250 -350z" />
    <glyph glyph-name="ydieresis" unicode="&#xff;" horiz-adv-x="1100" 
d="M258 -400l209 489l-377 911h162l298 -716l306 716h163l-598 -1400h-163zM450 1226c0 -50 -24.667 -75 -74 -75c-50 -0.666992 -75 24 -75 74s25 75 75 75c49.333 0.666992 74 -24 74 -74zM651 1226c0 50 25 75 75 75c49.333 -0.666992 74 -25.667 74 -75
c0 -50 -25 -75 -75 -75s-74.667 25 -74 75z" />
    <glyph glyph-name="Amacron" unicode="&#x100;" horiz-adv-x="1100" 
d="M1062 0h-157l-127 400h-451l-123 -400h-156l402 1300h200zM731 550l-181 574l-176 -574h357zM900 1500h-700v100h700v-100z" />
    <glyph glyph-name="amacron" unicode="&#x101;" horiz-adv-x="1050" 
d="M100 300c0 233.333 183.332 350 549.999 350h101v51c0 100 -83.667 150 -251 150c-107.333 0 -223.666 -16.667 -348.999 -50v150c126 33.333 242.667 50 350 50c266.667 0 400 -100 400 -300v-700h-150v159l-13 -10c-125.333 -100 -238 -150 -338 -150
c-200 0 -300 100 -300 300zM650.999 500c-266.667 0 -400 -66.667 -400 -200c0 -99.333 50 -149 150 -149c66 0 140.667 33 224 99l125 100l1 -3v153h-100zM899.999 1200h-700v100h700v-100z" />
    <glyph glyph-name="Abreve" unicode="&#x102;" horiz-adv-x="1100" 
d="M1062 0h-157l-127 400h-451l-123 -400h-156l402 1300h200zM731 550l-181 574l-176 -574h357zM549 1400c-167.333 0 -267.334 116.333 -300.001 349h100c34 -132.667 101 -199 201 -199c100.667 0 167.334 66.333 200.001 199h100c-32.667 -232.667 -133 -349 -301 -349z
" />
    <glyph glyph-name="abreve" unicode="&#x103;" horiz-adv-x="1050" 
d="M100 300c0 233.333 183.332 350 549.999 350h101v51c0 100 -83.667 150 -251 150c-107.333 0 -223.666 -16.667 -348.999 -50v150c126 33.333 242.667 50 350 50c266.667 0 400 -100 400 -300v-700h-150v159l-13 -10c-125.333 -100 -238 -150 -338 -150
c-200 0 -300 100 -300 300zM650.999 500c-266.667 0 -400 -66.667 -400 -200c0 -99.333 50 -149 150 -149c66 0 140.667 33 224 99l125 100l1 -3v153h-100zM548.999 1100c-167.333 0 -267.334 116.333 -300.001 349h100c34 -132.667 101 -199 201 -199
c100.667 0 167.334 66.333 200.001 199h100c-32.667 -232.667 -133 -349 -301 -349z" />
    <glyph glyph-name="Dstroke" unicode="&#x110;" horiz-adv-x="1149" 
d="M-1 600v150h150v550h400c333.333 0 500 -216.667 500 -650s-166.667 -650 -500 -650h-400v600h-150zM899 650c0 333.333 -116.667 500 -350 500h-250v-400h300v-150h-300v-450h250c233.333 0 350 166.667 350 500z" />
    <glyph glyph-name="dtroke" unicode="&#x111;" horiz-adv-x="1050" 
d="M501 1000c103.333 0 186.667 -24.667 250 -74v175h-199v149h199v100h150v-100h100v-149h-100v-1101h-150v76c-64 -50 -147.333 -75.333 -250 -76c-266.667 0 -400 166.667 -400 500s133.333 500 400 500zM501.001 150c166 0 249.333 116.667 250 350
c0 233.333 -83 350 -249 350c-167.333 0 -251 -116.667 -251 -350s83.333 -350 250 -350z" />
    <glyph glyph-name="Itilde" unicode="&#x128;" horiz-adv-x="650" 
d="M100 150h150v1000h-150v150h450v-150h-150v-1000h150v-150h-450v150zM476 1400c-65.333 0 -123.666 16.667 -174.999 50s-93 50 -125 50c-32.667 0 -49 -33.333 -49 -100h-101c0 133.333 50 200 150 200c65.333 0 123.666 -16.667 174.999 -50s93 -50 125 -50
c33.333 0 50 33.333 50 100h100c0 -133.333 -50 -200 -150 -200z" />
    <glyph glyph-name="itilde" unicode="&#x129;" horiz-adv-x="450" 
d="M150 1000h150v-1000h-150v1000zM376 1200c-65.333 0 -123.666 16.667 -174.999 50s-93 50 -125 50c-32.667 0 -49 -33.333 -49 -100h-101c0 133.333 50 200 150 200c65.333 0 123.666 -16.667 174.999 -50s93 -50 125 -50c33.333 0 50 33.333 50 100h100
c0 -133.333 -50 -200 -150 -200z" />
    <glyph glyph-name="Imacron" unicode="&#x12a;" horiz-adv-x="650" 
d="M250 150v1000h-150v150h450v-150h-150v-1000h150v-150h-450v150h150zM650 1500h-650v100h650v-100z" />
    <glyph glyph-name="imacron" unicode="&#x12b;" horiz-adv-x="450" 
d="M150 1000h150v-1000h-150v1000zM500 1200h-550v100h550v-100z" />
    <glyph glyph-name="dotlessi" unicode="&#x131;" horiz-adv-x="450" 
d="M150 1000h150v-1000h-150v1000z" />
    <glyph glyph-name="Lslash" unicode="&#x141;" horiz-adv-x="900" 
d="M-50 600l200 61v639h150v-593l300 93v-99l-300 -93v-458h500v-150h-650v562l-200 -62v100z" />
    <glyph glyph-name="lslash" unicode="&#x142;" horiz-adv-x="450" 
d="M-50 600l200 61v639h150v-593l300 93v-99l-300 -93v-608h-150v562l-200 -62v100z" />
    <glyph glyph-name="OE" unicode="&#x152;" horiz-adv-x="1600" 
d="M1500 1300v-150h-650v-350h600v-150h-600v-500h650v-150h-850c-333.333 0 -500 217 -500 651c0 432.667 166.667 649 500 649h850zM300 650c0 -333.333 116.667 -500 350 -500h50v1000h-50c-233.333 0 -350 -166.667 -350 -500z" />
    <glyph glyph-name="oe" unicode="&#x153;" horiz-adv-x="1700" 
d="M1200 1001c266.667 0 400.003 -133.333 400.003 -400v-151h-650c12 -200 95 -300 249 -300c166 0 299.667 50 401 150v-199c-100.667 -66.667 -234.334 -100 -401.001 -100h-2c-150.667 0 -258.334 53.333 -323.001 160c-65.333 -106.667 -173.333 -160 -324 -160h-2
c-264.667 0 -397 165.333 -397 496v4c0 333.333 133.333 500 400 500c150.667 0 258.667 -53.667 324 -161c65.333 107.333 173.666 161 324.999 161zM550.003 150c166 0 249.333 115.667 250 347v4v3c0 230.667 -83.333 346 -250 346s-250 -116.667 -250 -350
s83.333 -350 250 -350zM1200 851c-140 0 -221.667 -83.667 -245 -251h494v3c0 164 -83 246.667 -249 248z" />
    <glyph glyph-name="Sacute" unicode="&#x15a;" horiz-adv-x="1100" 
d="M551 151c165.333 0 248.668 83.001 250.001 249.001c0 133.333 -82 200 -246 200h-4c-267.333 0 -401 116.667 -401 350c0 234 133.333 351 400 351c167.333 0 284.333 -33.333 351 -100v-201c-67.333 100 -184 150 -350 150c-166.667 0 -250 -66.667 -250 -200
s83.333 -200 250 -200h3c264 0 396 -116.333 396 -349c0 -266.667 -133 -400.334 -399 -401.001c-168.667 -0 -302.334 33.333 -401.001 100v200c101.333 -99.333 235 -149 401 -149zM550.002 1400h-100l200 400h150z" />
    <glyph glyph-name="sacute" unicode="&#x15b;" horiz-adv-x="1050" 
d="M551 151c166 0 249.001 45 249.001 135c0 89.333 -83 134 -249 134c-267.333 0 -401 96.667 -401 290c0 194 133.333 291 400 291c167.333 0 284.333 -33.333 351 -100v-201c-67.333 100 -184 150 -350 150c-166.667 0 -250 -46.667 -250 -140s83.333 -140 250 -140
c266 0 399 -95 399 -285s-133 -285 -399 -285c-168.667 -0 -302.334 33.333 -401.001 100v200c101.333 -99.333 235 -149 401 -149zM500.001 1150h-100l200 400h150z" />
    <glyph glyph-name="Scaron" unicode="&#x160;" horiz-adv-x="1100" 
d="M551 151c165.333 0 248.668 83.001 250.001 249.001c0 133.333 -82 200 -246 200h-4c-267.333 0 -401 116.667 -401 350c0 234 133.333 351 400 351c167.333 0 284.333 -33.333 351 -100v-201c-67.333 100 -184 150 -350 150c-166.667 0 -250 -66.667 -250 -200
s83.333 -200 250 -200h3c264 0 396 -116.333 396 -349c0 -266.667 -133 -400.334 -399 -401.001c-168.667 -0 -302.334 33.333 -401.001 100v200c101.333 -99.333 235 -149 401 -149zM350.002 1800l200 -200l200 200h100l-300 -400l-300 400h100z" />
    <glyph glyph-name="scaron" unicode="&#x161;" horiz-adv-x="1050" 
d="M551 151c166 0 249.001 45 249.001 135c0 89.333 -83 134 -249 134c-267.333 0 -401 96.667 -401 290c0 194 133.333 291 400 291c167.333 0 284.333 -33.333 351 -100v-201c-67.333 100 -184 150 -350 150c-166.667 0 -250 -46.667 -250 -140s83.333 -140 250 -140
c266 0 399 -95 399 -285s-133 -285 -399 -285c-168.667 -0 -302.334 33.333 -401.001 100v200c101.333 -99.333 235 -149 401 -149zM350.001 1550l200 -200l200 200h100l-300 -400l-300 400h100z" />
    <glyph glyph-name="Umacron" unicode="&#x16a;" horiz-adv-x="1200" 
d="M600 0c-300 0 -450 133.333 -450 400v900h150v-900c0 -166.667 100 -250 300 -250s300 83.333 300 250v900h150v-900c0 -266.667 -150 -400 -450 -400zM950 1500h-700v100h700v-100z" />
    <glyph glyph-name="umacron" unicode="&#x16b;" horiz-adv-x="1100" 
d="M550 150c166.667 0 250 83.333 250 250v600h150v-1000h-150v100c-66.667 -66.667 -150 -100 -250 -100c-266.667 -0 -400 133.333 -400 400v600h150v-600c0 -166.667 83.333 -250 250 -250zM900 1200h-700v100h700v-100z" />
    <glyph glyph-name="Ydieresis" unicode="&#x178;" horiz-adv-x="1101" 
d="M65 1300h176l309 -509l322 509h176l-423 -670v-630h-149v629zM450 1476c0 -50 -24.667 -75 -74 -75c-50 -0.666992 -75 24 -75 74s25 75 75 75c49.333 0.666992 74 -24 74 -74zM651 1476c0 50 25 75 75 75c49.333 -0.666992 74 -25.667 74 -75c0 -50 -25 -75 -75 -75
s-74.667 25 -74 75z" />
    <glyph glyph-name="Zcaron" unicode="&#x17d;" horiz-adv-x="1100" 
d="M350 1800l200 -200l200 200h100l-300 -400l-300 400h100zM150 124l611 1026h-611v150h800v-126l-610 -1024h610v-150h-800v124z" />
    <glyph glyph-name="zcaron" unicode="&#x17e;" horiz-adv-x="1100" 
d="M150 131h1l590 719h-591v150h800v-133h-1l-589 -717h590v-150h-800v131zM350 1550l200 -200l200 200h100l-300 -400l-300 400h100z" />
    <glyph glyph-name="florin" unicode="&#x192;" horiz-adv-x="600" 
d="M300 850v-500c0 -233.333 -100 -350 -300 -350h-150v150h150c100 0 150 66.333 150 199v501h-121v150h121v50c0 233.333 100 350 300 350h150v-150h-150c-100 0 -150 -66.333 -150 -199v-51h250v-150h-250z" />
    <glyph glyph-name="Ohorn" unicode="&#x1a0;" horiz-adv-x="1300" 
d="M150 650c0 433.333 166.669 650 500.002 650c130 0 234.667 -33.333 314 -100v1h53c63.333 0 95.666 33 96.999 99c-66.667 0 -100.334 25.333 -101.001 76c0 50 33.333 75 100 75s100 -50 100 -150c0 -121.333 -54.667 -188 -164 -200
c67.333 -106.667 101 -257 101 -451c0 -433.333 -166.667 -650 -500 -650s-500 216.667 -500 650zM300.002 650c0 -333.333 116.667 -500 350 -500s350 166.667 350 500s-116.667 500 -350 500s-350 -166.667 -350 -500z" />
    <glyph glyph-name="ohorn" unicode="&#x1a1;" horiz-adv-x="1100" 
d="M953 1151c66.667 0 100.002 -50.001 100.002 -150.001c0 -119.333 -53 -185.666 -159 -198.999c37.333 -78 56 -178.667 56 -302c0 -333.333 -133.333 -500 -400 -500s-400 166.667 -400 500s133.333 500 400 500c118.667 0 210.667 -33 276 -99h31
c63.333 0 95.666 33 96.999 99c-66.667 0 -100.334 25.333 -101.001 76c0 50 33.333 75 100 75zM550.002 149.999c166.667 0 250 116.667 250 350s-83.333 350 -250 350s-250 -116.667 -250 -350s83.333 -350 250 -350z" />
    <glyph glyph-name="Uhorn" unicode="&#x1af;" horiz-adv-x="1200" 
d="M1200 1500c66.667 0 100 -50 100 -150c0 -133.333 -66.667 -200 -200 -200h-50v-750c0 -266.667 -150 -400 -450 -400s-450 133.333 -450 400v900h150v-900c0 -166.667 100 -250 300 -250s300 83.333 300 250v900h150v-50h50c66.667 0 100 33.333 100 100
c-66.667 0 -100 25 -100 75s33.333 75 100 75z" />
    <glyph glyph-name="uhorn" unicode="&#x1b0;" horiz-adv-x="1100" 
d="M1100 1200c66.667 0 100 -50 100 -150c0 -133.333 -66.667 -200 -200 -200h-50v-850h-150v100c-66.667 -66.667 -150 -100 -250 -100c-266.667 -0 -400 133.333 -400 400v600h150v-600c0 -166.667 83.333 -250 250 -250s250 83.333 250 250v600h150v-50h50
c66.667 0 100 33.333 100 100c-66.667 0 -100 25 -100 75s33.333 75 100 75z" />
    <glyph glyph-name="circumflex" unicode="&#x2c6;" 
d="M200 1400l-200 200l-200 -200h-100l300 400l300 -400h-100z" />
    <glyph glyph-name="caron" unicode="&#x2c7;" 
d="M-200 1800l200 -200l200 200h100l-300 -400l-300 400h100z" />
    <glyph glyph-name="breve" unicode="&#x2d8;" 
d="M-1 1400c-167.333 0 -267.334 116.333 -300.001 349h100c34 -132.667 101 -199 201 -199c100.667 0 167.334 66.333 200.001 199h100c-32.667 -232.667 -133 -349 -301 -349z" />
    <glyph glyph-name="dotaccent" unicode="&#x2d9;" 
d="M-100 1350c0 66.667 33.333 100 100 100s100 -33.333 100 -100s-33.333 -100 -100 -100s-100 33.333 -100 100z" />
    <glyph glyph-name="ring" unicode="&#x2da;" 
d="M-100 1350c0 -66.667 33.333 -100 100 -100s100 33.333 100 100s-33.333 100 -100 100s-100 -33.333 -100 -100zM0 1150c-133.333 0 -200 66.667 -200 200s66.667 200 200 200s200 -66.667 200 -200s-66.667 -200 -200 -200z" />
    <glyph glyph-name="ogonek" unicode="&#x2db;" 
d="M150 100l-99.9971 -200l-50 -100l-25 -50c-36.667 -66.667 -28.334 -100 24.999 -100c100 0 150 16.667 150 50s16.667 50 50 50h50c0 -133.333 -83.333 -200 -250 -200c-66.667 0 -108.334 25 -125.001 75s-8.33398 108.333 24.999 175l150 300h100z" />
    <glyph glyph-name="glyph196" unicode="&#x2dc;" 
d="M150 1400c-65.333 0 -123.666 16.667 -174.999 50s-93 50 -125 50c-32.667 0 -49 -33.333 -49 -100h-101c0 133.333 50 200 150 200c65.333 0 123.666 -16.667 174.999 -50s93 -50 125 -50c33.333 0 50 33.333 50 100h100c0 -133.333 -50 -200 -150 -200z" />
    <glyph glyph-name="hungarumlaut" unicode="&#x2dd;" horiz-adv-x="797" 
d="M132 954l-39 33.002c91.333 161.333 148.333 255.666 171 282.999c31.333 37.333 66.333 39.666 105 6.99902c38 -31.333 41.333 -66 10 -104l-3 -2c-16 -19.333 -44.167 -47 -84.5 -83s-93.5 -80.667 -159.5 -134zM432 954.002l-39 33.002
c91.333 161.333 148.333 255.666 171 282.999c31.333 37.333 66.333 39.666 105 6.99902c38 -31.333 41.333 -66 10 -104l-3 -2c-16 -19.333 -44.167 -47 -84.5 -83s-93.5 -80.667 -159.5 -134z" />
    <glyph glyph-name="grave" unicode="&#x300;" 
d="M-50 1300l-300 350h150l250 -350h-100z" />
    <glyph glyph-name="acute" unicode="&#x301;" 
d="M-50 1300l200 400h150l-250 -400h-100z" />
    <glyph glyph-name="tilde" unicode="&#x303;" 
d="M150 1300c-65.333 0 -123.666 16.667 -174.999 50s-93 50 -125 50c-32.667 0 -49 -33.333 -49 -100h-101c0 133.333 50 200 150 200c65.333 0 123.666 -16.667 174.999 -50s93 -50 125 -50c33.333 0 50 33.333 50 100h100c0 -133.333 -50 -200 -150 -200z" />
    <glyph glyph-name="hookabove" unicode="&#x309;" 
d="M50 1500c66.667 32.667 100 65.999 100 99.999c0 66.667 -41.667 100 -125 100s-125 -16.667 -125 -50h-100c0 100 75 150 225 150s225 -66.667 225 -200c0 -67.333 -33.333 -117.333 -100 -150l-50 -25c-33.333 -17.333 -50 -59 -50 -125h-100
c0 100.667 33.333 167.334 100 200.001z" />
    <glyph glyph-name="dotbelow" unicode="&#x323;" 
d="M-75 -500h151v-150h-151v150z" />
    <glyph glyph-name="Delta" unicode="&#x394;" horiz-adv-x="1100" 
d="M1062 0h-1014l402 1300h200zM550 1124l-300 -974h607z" />
    <glyph glyph-name="Omega" unicode="&#x3a9;" horiz-adv-x="1300" 
d="M1151 149l-1 -150.001h-400v501c166.667 0 250 116.667 250 350c0 200 -116.667 300 -350 300s-350 -100 -350 -300c0 -233.333 83.333 -350 250 -350v-500v-1h-400l1 150h250v222c-167.333 55.333 -251 215 -251 479c0 300 166.667 450 500 450s500 -150 500 -450
c0 -263.333 -83.333 -422.666 -250 -477.999v-223h251z" />
    <glyph glyph-name="pi" unicode="&#x3c0;" horiz-adv-x="1150" 
d="M150 1300h850v-1300h-150v1150h-550v-1150h-150v1300z" />
    <glyph glyph-name="uni1780" unicode="&#x1780;" horiz-adv-x="1400" 
d="M200 900c66.667 133.333 233.332 200 499.999 200s433.334 -66.667 500.001 -200v-900h-180v860c-40 80 -146.667 120 -320 120s-280 -40 -320 -120v-860h-180v900zM151.498 1088.5c-34.333 32.333 -51.499 71.5039 -51.499 117.504s78 144 234 294
c140 0 271 -58 393 -174c126 116 204.667 174 236 174c57.333 0 119 -30.333 185 -91c65.333 -60.667 116 -73.334 152 -38.001c0 -55.333 -11 -102 -33 -140c-22.667 -38 -53 -57 -91 -57s-121 49.333 -249 148c-46.667 0.666992 -135.334 -58.333 -266.001 -177
c-73.333 69.333 -134.5 115.666 -183.5 138.999s-96.833 36.666 -143.5 39.999l-100 -94c12 -71.333 55 -125.333 129 -162l-78 -39c-54.667 7.33301 -99.167 27.166 -133.5 59.499z" />
    <glyph glyph-name="uni1781" unicode="&#x1781;" horiz-adv-x="1400" 
d="M380 1025v-75c37.333 0 56 16.667 56 50c0 16.667 -18.667 25 -56 25zM1200 300c0 -200 -166.668 -300.001 -500.001 -300.001s-500 100 -500 300v267c546.667 208.667 820 369.667 820 483v150c0 120 -106.667 180 -320 180s-320 -60 -320 -180v-75
c54.667 0 94.334 -10.333 119.001 -31c24.667 -21.333 37 -52.666 37 -93.999c0 -100 -56 -150 -168 -150s-168 33.333 -168 100v250c0 200 166.667 300 500 300s500 -100 500 -300v-150c0 -160 -273.333 -340.667 -820 -542v-208c0 -120 106.667 -180 320 -180
s320 60 320 180v300h180v-300z" />
    <glyph glyph-name="uni1782" unicode="&#x1782;" horiz-adv-x="1400" 
d="M151.5 1088.5c-34.333 32.333 -51.499 71.5039 -51.499 117.504s78 144 234 294c140 0 271 -58 393 -174c126 116 204.667 174 236 174c57.333 0 119 -30.333 185 -91c65.333 -60.667 116 -73.334 152 -38.001c0 -55.333 -11 -102 -33 -140c-22.667 -38 -53 -57 -91 -57
s-121 49.333 -249 148c-46.667 0.666992 -135.334 -58.333 -266.001 -177c-73.333 69.333 -134.5 115.666 -183.5 138.999s-96.833 36.666 -143.5 39.999l-100 -94c12 -71.333 55 -125.333 129 -162l-78 -39c-54.667 7.33301 -99.167 27.166 -133.5 59.499zM380.001 270.004
c78.667 153.333 172.665 230 281.998 230c92 0 138 -40 138 -120c0 -53.333 -25.667 -80 -77 -80c-38 0 -57 11 -57 33s-14.667 33 -44 33c-48 0 -128.667 -109.667 -242 -329v-37h-180v900c66.667 133.333 233.334 200 500.001 200s433.334 -66.667 500.001 -200v-900h-180
v860c-40 80 -146.667 120 -320 120s-280 -40 -320 -120v-590z" />
    <glyph glyph-name="uni1783" unicode="&#x1783;" horiz-adv-x="2100" 
d="M200 1350c-53.333 -13.333 -80 -63.333 -80 -150c0 -66.667 26.667 -100 80 -100v250zM1720 963c0 70.667 -66.6621 126.676 -199.995 168.009c13.333 67.333 45.166 145.666 95.499 234.999s93.5 134 129.5 134c29.333 0 67.666 -14.333 114.999 -43l70 -43
c31.333 -19.333 71.333 -24 120 -14c-6.66699 -46.667 -20.167 -84.834 -40.5 -114.501s-47.666 -46.334 -81.999 -50.001s-82.666 13.666 -144.999 51.999s-114.5 5.16602 -156.5 -99.501c182.667 -58.667 274 -114.667 274 -168v-820
c-66.667 -133.333 -223.334 -200 -470.001 -200c-168.667 0 -295.334 31.333 -380.001 94c-84.667 -62.667 -211.334 -94 -380.001 -94c-246.667 0 -403.334 66.667 -470.001 200v800c-120 0 -180 66.667 -180 200c0 86.667 21.667 158.334 65 215.001s91.666 85 144.999 85
c100 0 150 -33.333 150 -100v-1160c40 -80 136.667 -120 290 -120s250 40 290 120v723c0 70.667 -66.667 126.667 -200 168c13.333 67.333 45.166 145.666 95.499 234.999s93.5 134 129.5 134c29.333 0 67.666 -14.333 114.999 -43l70 -43
c31.333 -19.333 71.333 -24 120 -14c-6.66699 -46.667 -20.167 -84.834 -40.5 -114.501s-47.666 -46.334 -81.999 -50.001s-82.666 13.666 -144.999 51.999s-114.5 5.16602 -156.5 -99.501c182.667 -58.667 274 -114.667 274 -168v-780c40 -80 136.667 -120 290 -120
s250 40 290 120v723z" />
    <glyph glyph-name="uni1784" unicode="&#x1784;" horiz-adv-x="1400" 
d="M970 1320c0 40 -16.667 60.001 -50 60.001c-46.667 0 -70 -20 -70 -60c0 -22.667 27.667 -52.334 83 -89.001c24.667 28 37 57.667 37 89zM200 791.001c-33.333 0 -50 -27 -50 -81c0 -40 16.667 -60 50 -60v141zM200 550.001c-100 0 -150 53.3311 -150 159.998
c0 126.667 50 190 150 190c120 0 180 -33.333 180 -100v-641l236 236c56 56.667 112.667 56.667 170 0l234 -235v740c0 72 -9.33301 117.5 -28 136.5s-40 36.5 -64 52.5c-94.667 -59.333 -200.667 -89 -318 -89c-158.667 0 -265.667 23 -321 69
c-59.333 50 -89 113.667 -89 191c0 43.333 8.33301 87.5 25 132.5s25 90.833 25 137.5s-33.333 70 -100 70c0 66.667 33.333 100 100 100c120 0 180 -56.667 180 -170c0 -56.667 -8.33301 -104.167 -25 -142.5s-25 -80.833 -25 -127.5c0 -39.333 18.333 -72.5 55 -99.5
s95 -40.5 175 -40.5c82.667 0 157.667 12 225 36c-70 58.667 -105 113.334 -105 164.001c0 120 63.333 180 190 180c120 0 180 -60 180 -180c0 -51.333 -22.667 -100.666 -68 -147.999l43 -22c83.333 -44.667 125 -128 125 -250v-800c0 -66.667 -33.333 -100 -100 -100
c-60 0 -115.667 25.667 -167 77l-233 233l-232 -233c-51.333 -51.333 -107.333 -77 -168 -77c-66.667 0 -100 33.333 -100 100v450z" />
    <glyph glyph-name="uni1785" unicode="&#x1785;" horiz-adv-x="1400" 
d="M1020 891c-46.667 0 -70 -27 -70 -81c0 -40 23.333 -60 70 -60v141zM1020 650c-113.333 0 -169.997 53.3359 -169.997 160.003c0 126.667 56.667 190 170 190c120 0 180 -33.333 180 -100v-700c-66.667 -133.333 -233.334 -200 -500.001 -200
s-433.334 66.667 -500.001 200v854c-18 9.33301 -34 21 -48 35c-34.667 32 -52 71 -52 117s78 144 234 294c140 0 271 -58 393 -174c126 116 204.667 174 236 174c57.333 0 119 -30.333 185 -91c65.333 -60.667 116 -73.334 152 -38.001c0 -55.333 -11 -102 -33 -140
c-22.667 -38 -53 -57 -91 -57s-121 49.333 -249 148c-46.667 0.666992 -135.334 -58.333 -266.001 -177c-73.333 69.333 -134.5 115.666 -183.5 138.999s-96.833 36.666 -143.5 39.999l-100 -94c12 -71.333 60.667 -127.333 146 -168v-822c40 -80 146.667 -120 320 -120
s280 40 320 120v410z" />
    <glyph glyph-name="uni1786" unicode="&#x1786;" horiz-adv-x="1400" 
d="M200 380c-33.333 -13.333 -50 -40 -50 -80c0 -100 16.667 -150 50 -150v230zM1020 891c-46.667 0 -70 -27 -70 -81c0 -40 23.333 -60 70 -60v141zM200 1054c-18 9.33301 -33.999 21.0039 -47.999 35.0039c-34.667 32 -52 71 -52 117s78 144 234 294
c140 0 271 -58 393 -174c126 116 204.667 174 236 174c57.333 0 119 -30.333 185 -91c65.333 -60.667 116 -73.334 152 -38.001c0 -55.333 -11 -102 -33 -140c-22.667 -38 -53 -57 -91 -57s-121 49.333 -249 148c-46.667 0.666992 -135.334 -58.333 -266.001 -177
c-73.333 69.333 -134.5 115.666 -183.5 138.999s-96.833 36.666 -143.5 39.999l-100 -94c12 -71.333 60.667 -127.333 146 -168v-562c246.667 0 370 -83.333 370 -250c0 -86.667 45 -130 135 -130s135 43.333 135 130v400c-113.333 0 -170 53.333 -170 160
c0 126.667 56.667 190 170 190c120 0 180 -33.333 180 -100v-650c0 -166.667 -105 -250 -315 -250c-190 0 -285 83.333 -285 250c0 86.667 -73.333 130 -220 130v-280c0 -66.667 -43.333 -100 -130 -100c-66.667 0 -116.667 31.667 -150 95s-50 131.666 -50 204.999
c0 113.333 50 180 150 200v554z" />
    <glyph glyph-name="uni1787" unicode="&#x1787;" horiz-adv-x="1400" 
d="M200 1010c-47.333 44 -75.832 74.499 -85.499 91.499s-14.5 38.167 -14.5 63.5c0 24.667 5 45.667 15 63c9.33301 17.333 52.833 67 130.5 149s128.667 123 153 123s88.166 -35.667 191.499 -107c136 -95.333 236 -143 300 -143c126.667 0 190 46.667 190 140
c0 33.333 -16.667 63.333 -50 90s-80 40 -140 40c-86.667 0 -130 30 -130 90s43.333 90 130 90c93.333 0 168.333 -26.667 225 -80s85 -130 85 -230c0 -94.667 -26.833 -162.334 -80.5 -203.001s-133.5 -61 -239.5 -61c-158 0 -278.333 29 -361 87l-62 43
c-41.333 28.667 -74.833 41.334 -100.5 38.001s-50 -19.666 -73 -48.999s-34.5 -55 -34.5 -77c0 -22.667 43.667 -65 131 -127v-882l236 236c56 56.667 112.667 56.667 170 0l234 -235v840h180v-900c0 -66.667 -33.333 -100 -100 -100c-60 0 -115.667 25.667 -167 77
l-233 233l-232 -233c-51.333 -51.333 -107.333 -77 -168 -77c-66.667 -0 -100 33.333 -100 100v910z" />
    <glyph glyph-name="uni1788" unicode="&#x1788;" horiz-adv-x="2800" 
d="M380 150c80 0 120 83.333 120 250c0 66.667 -40 100 -120 100v-350zM940 1260c-40 80 -133.335 120.01 -280.002 120.01s-240 -40 -280 -120v-660c146.667 0 220 -66.667 220 -200s-20.833 -233.333 -62.5 -300s-104.167 -100 -187.5 -100c-100 0 -150 33.333 -150 100
v1200c66.667 133.333 220 200 460 200s393.333 -66.667 460 -200v-1060c40 -80 133.333 -120 280 -120s240 40 280 120v723c0 70.667 -66.667 126.667 -200 168c13.333 67.333 45.166 145.666 95.499 234.999s93.5 134 129.5 134c29.333 0 67.666 -14.333 114.999 -43
l70 -43c31.333 -19.333 71.333 -24 120 -14c-6.66699 -46.667 -20.167 -84.834 -40.5 -114.501s-47.666 -46.334 -81.999 -50.001s-82.666 13.666 -144.999 51.999s-114.5 5.16602 -156.5 -99.501c182.667 -58.667 274 -114.667 274 -168v-780c40 -80 133.333 -120 280 -120
s240 40 280 120v723c0 70.667 -66.667 126.667 -200 168c13.333 67.333 45.166 145.666 95.5 234.999c50.333 89.333 93.5 134 129.5 134c29.333 0 67.666 -14.333 115 -43l70 -43c31.333 -19.333 71.333 -24 120 -14c-6.66699 -46.667 -20.167 -84.834 -40.5 -114.501
s-47.666 -46.334 -82 -50.001c-34.333 -3.66699 -82.666 13.666 -145 51.999c-62.333 38.333 -114.5 5.16602 -156.5 -99.501c182.667 -58.667 274 -114.667 274 -168v-820c-66.667 -133.333 -220 -200 -460 -200c-163.333 0 -286.666 31 -369.999 93
c-83.333 -62 -206.666 -93 -369.999 -93c-240 0 -393.333 66.667 -460 200v1060z" />
    <glyph glyph-name="uni1789" unicode="&#x1789;" horiz-adv-x="2100" 
d="M380 150c80 0 120 83.333 120 250c0 66.667 -40 100 -120 100v-350zM1605 -200c0 33.333 10.001 58.3311 30.001 74.998c20.667 16.667 52 25 94 25c56 0 98.333 -16.667 127 -50c29.333 -33.333 44 -83.333 44 -150c0 -73.333 -35.333 -136.666 -106 -189.999
s-180.334 -80 -329.001 -80c-90 0 -170.667 12.667 -242 38c-71.333 24.667 -181.333 83 -330 175c-148.667 91.333 -262 137 -340 137c-60.667 0 -114 -9.16699 -160 -27.5s-93.667 -49.166 -143 -92.499c0 40 12.333 75.833 37 107.5s65 61.667 121 90s121 42.5 195 42.5
c106 0 196.667 -15.667 272 -47s157.333 -79.333 246 -144c168 -116.667 289.333 -175 364 -175c80 0 139.167 11 177.5 33s57.5 66.333 57.5 133v27c-38.667 -5.33301 -64.167 -4.33301 -76.5 3s-21.833 17.333 -28.5 30s-10 26 -10 40zM1020 1200
c0 69.333 -23.167 116.502 -69.5 141.502s-129.833 -22.167 -250.5 -141.5c-120 119.333 -203.333 166.5 -250 141.5s-70 -72.167 -70 -141.5v-600c146.667 0 220 -66.667 220 -200s-20.833 -233.333 -62.5 -300s-104.167 -100 -187.5 -100c-100 -0 -150 33.333 -150 100
v1100c0 81.333 36.667 151.666 110 210.999s129.666 89 168.999 89c33.333 0 107 -44.667 221 -134c114.667 89.333 188.667 134 222 134c39.333 0 95.333 -29.667 168 -89c10.667 -8.66699 20.334 -17.334 29.001 -26.001c73.333 76.667 187 115 341 115
c293.333 0 440 -139.667 440 -419v-1081h-180v1081c0 199.333 -86.667 299 -260 299s-260 -99.667 -260 -299v-1081h-180v1200z" />
    <glyph glyph-name="uni178a" unicode="&#x178a;" horiz-adv-x="1400" 
d="M358 1314c0 -19.333 9.66602 -36 28.999 -50h24c35.333 0 53 16.667 53 50c0 16 -4 28 -12 36c-9.33301 9.33301 -23 14 -41 14c-17.333 0 -30.666 -4.33301 -39.999 -13c-8.66699 -8 -13 -20.333 -13 -37zM534.999 1221c19.333 -2 39.667 -3.66797 61 -5.00098
c28 -1.33301 74.333 -2 139 -2c82 0 150 14.333 204 43s81 75 81 139c0 82.667 -46.667 124 -140 124c-66.667 0 -100 30 -100 90s33.333 90 100 90c213.333 0 320 -101.333 320 -304c0 -85.333 -42.167 -156 -126.5 -212s-247.5 -84 -489.5 -84
c-128 0 -224 16.833 -288 50.5s-96 86.834 -96 159.501c0 55.333 17.333 101 52 137c35.333 35.333 83 53 143 53c60.667 0 108 -14.333 142 -43c34.667 -28.667 52 -68 52 -118s-18 -89.333 -54 -118zM380 999.999v-841l236 236c56 56.667 112.667 56.667 170 0l234 -235
v840h180v-900c0 -66.667 -33.333 -100 -100 -100c-60 0 -115.667 25.667 -167 77l-233 233l-232 -233c-51.333 -51.333 -107.333 -77 -168 -77c-66.667 0 -100 33.333 -100 100v900h180z" />
    <glyph glyph-name="uni178b" unicode="&#x178b;" horiz-adv-x="1400" 
d="M200 1350c-53.333 -13.333 -80 -63.333 -80 -150c0 -66.667 26.667 -100 80 -100v250zM200 1000c-120 0 -179.995 66.6689 -179.995 200.002c0 86.667 21.667 158.334 65 215.001s91.666 85 144.999 85c100 0 150 -33.333 150 -100v-1160c40 -80 146.667 -120 320 -120
s280 40 320 120v723c0 70.667 -66.667 126.667 -200 168c13.333 67.333 45.166 145.666 95.499 234.999s93.5 134 129.5 134c29.333 0 67.666 -14.333 114.999 -43l59 -36c20.667 23.333 31 49.666 31 78.999c0 80 -30 120 -90 120c-73.333 0 -110 30 -110 90
s36.667 90 110 90c126.667 0 190 -100 190 -300c0 -77.333 -12.5 -139.833 -37.5 -187.5s-53.167 -73.167 -84.5 -76.5c-34.667 -4 -83.167 13.167 -145.5 51.5s-114.5 5.16602 -156.5 -99.501c182.667 -58.667 274 -114.667 274 -168v-820
c-66.667 -133.333 -233.334 -200 -500.001 -200s-433.334 66.667 -500.001 200v800z" />
    <glyph glyph-name="uni178c" unicode="&#x178c;" horiz-adv-x="1400" 
d="M380 1025v-75c37.333 0 56 16.667 56 50c0 16.667 -18.667 25 -56 25zM1020 0v140.999c-147.333 -94 -290.666 -141 -429.999 -141c-260 0 -390 100 -390 300v287c546.667 162 820 316.333 820 463v150c0 69.333 -23.167 116.5 -69.5 141.5
s-129.833 -22.167 -250.5 -141.5c-120 119.333 -203.333 166.5 -250 141.5s-70 -72.167 -70 -141.5v-75c54.667 0 94.334 -10.333 119.001 -31c24.667 -21.333 37 -52.666 37 -93.999c0 -100 -49.333 -150 -148 -150c-125.333 0 -188 33.333 -188 100v250
c0 81.333 36.667 151.666 110 210.999s129.666 89 168.999 89c33.333 0 107 -44.667 221 -134c114.667 89.333 188.667 134 222 134c39.333 0 95.5 -29.667 168.5 -89s109.5 -129.666 109.5 -210.999v-150c0 -173.333 -273.333 -354 -820 -542v-208c0 -120 70 -180 210 -180
c113.333 0 256.666 69.667 429.999 209v271h180v-600c0 -113.333 -66.667 -170 -200 -170c-66.667 0 -100 33.333 -100 100c80 0 120 23.333 120 70z" />
    <glyph glyph-name="uni178d" unicode="&#x178d;" horiz-adv-x="2100" 
d="M380 150c80 0 120 83.333 120 250c0 66.667 -40 100 -120 100v-350zM1020 380c-33.333 -13.333 -50 -40 -50 -80c0 -100 16.667 -150 50 -150v230zM1900 250c0 -166.667 -96.666 -249.994 -289.999 -249.994c-173.333 0 -260 83.333 -260 250c0 86.667 -50 130 -150 130
v-280c0 -66.667 -43.333 -100 -130 -100c-66.667 0 -116.667 31.667 -150 95s-50 131.666 -50 204.999c0 113.333 50 180 150 200v700c0 69.333 -23.167 116.5 -69.5 141.5s-129.833 -22.167 -250.5 -141.5c-120 119.333 -203.333 166.5 -250 141.5s-70 -72.167 -70 -141.5
v-600c146.667 0 220 -66.667 220 -200s-20.833 -233.333 -62.5 -300s-104.167 -100 -187.5 -100c-100 0 -150 33.333 -150 100v1100c0 81.333 36.667 151.666 110 210.999s129.666 89 168.999 89c33.333 0 107 -44.667 221 -134c114.667 89.333 188.667 134 222 134
c39.333 0 95.333 -29.667 168 -89c73.333 -59.333 110 -129.666 110 -210.999v-700c200 0 300 -83.333 300 -250c0 -86.667 36.667 -130 110 -130s110 43.333 110 130v713c0 70.667 -66.667 126.667 -200 168c13.333 67.333 45.166 145.666 95.499 234.999
s93.5 134 129.5 134c29.333 0 67.666 -14.333 114.999 -43l70 -43c31.333 -19.333 71.333 -24 120 -14c-6.66699 -46.667 -20.167 -84.834 -40.5 -114.501s-47.666 -46.334 -81.999 -50.001s-82.666 13.666 -144.999 51.999s-114.5 5.16602 -156.5 -99.501
c182.667 -58.667 274 -114.667 274 -168v-770z" />
    <glyph glyph-name="uni178e" unicode="&#x178e;" horiz-adv-x="2800" 
d="M380 150c80 0 120 83.333 120 250c0 66.667 -40 100 -120 100v-350zM380 600c146.667 0 219.999 -66.667 219.999 -200s-20.833 -233.333 -62.5 -300s-104.167 -100 -187.5 -100c-100 -0 -150 33.333 -150 100v1200c66.667 133.333 220 200 460 200
s393.333 -66.667 460 -200v-1141l240 241c26.667 26.667 53.334 26.667 80.001 0l240 -240v1140c66.667 133.333 220 200 460 200s393.333 -66.667 460 -200v-1300h-180v1260c-40 80 -133.333 120 -280 120s-240 -40 -280 -120v-1160c0 -66.667 -33.333 -100 -100 -100
c-60 0 -115.667 25.667 -167 77l-193 193l-192 -193c-51.333 -51.333 -107.333 -77 -168 -77c-66.667 -0 -100 33.333 -100 100v1160c-40 80 -133.333 120 -280 120s-240 -40 -280 -120v-660z" />
    <glyph glyph-name="uni178f" unicode="&#x178f;" horiz-adv-x="1400" 
d="M380 150c66.667 0 100 50 100 150c0 66.667 -33.333 100 -100 100v-250zM100 1206c0 46 78.001 144.004 234.001 294.004c140 0 271 -58 393 -174c126 116 204.667 174 236 174c57.333 0 119 -30.333 185 -91c65.333 -60.667 116 -73.334 152 -38.001
c0 -55.333 -11 -102 -33 -140c-22.667 -38 -53 -57 -91 -57s-121 49.333 -249 148c-46.667 0.666992 -135.334 -58.333 -266.001 -177c-73.333 69.333 -134.5 115.666 -183.5 138.999s-96.833 36.666 -143.5 39.999l-100 -94c12 -71.333 55 -125.333 129 -162l-78 -39
c-54.667 7.33301 -99.167 27.166 -133.5 59.499s-51.5 71.5 -51.5 117.5zM380.001 500.004c133.333 0 199.998 -66.666 199.998 -199.999c0 -66.667 -17.5 -133.334 -52.5 -200.001s-94.167 -100 -177.5 -100c-100 0 -150 33.333 -150 100v800
c66.667 133.333 233.334 200 500.001 200s433.334 -66.667 500.001 -200v-900h-180v860c-40 80 -146.667 120 -320 120s-280 -40 -320 -120v-360z" />
    <glyph glyph-name="uni1790" unicode="&#x1790;" horiz-adv-x="1400" 
d="M1020 891c-46.667 0 -70 -27 -70 -81c0 -40 23.333 -60 70 -60v141zM200 1010c-47.333 44 -75.8301 74.499 -85.4971 91.499s-14.5 38.167 -14.5 63.5c0 24.667 5 45.667 15 63c9.33301 17.333 52.833 67 130.5 149s128.667 123 153 123s88.166 -35.667 191.499 -107
c136 -95.333 236 -143 300 -143c126.667 0 190 46.667 190 140c0 33.333 -16.667 63.333 -50 90s-80 40 -140 40c-86.667 0 -130 30 -130 90s43.333 90 130 90c93.333 0 168.333 -26.667 225 -80s85 -130 85 -230c0 -94.667 -26.833 -162.334 -80.5 -203.001
s-133.5 -61 -239.5 -61c-158 0 -278.333 29 -361 87l-62 43c-41.333 28.667 -74.833 41.334 -100.5 38.001s-50 -19.666 -73 -48.999s-34.5 -55 -34.5 -77c0 -22.667 43.667 -65 131 -127v-801c40 -80 146.667 -120 320 -120s280 40 320 120v410
c-113.333 0 -170 53.333 -170 160c0 126.667 56.667 190 170 190c120 0 180 -33.333 180 -100v-700c-66.667 -133.333 -233.334 -200 -500.001 -200s-433.334 66.667 -500.001 200v810z" />
    <glyph glyph-name="uni1791" unicode="&#x1791;" horiz-adv-x="1400" 
d="M964 1080c0 -20 18.667 -30 56 -30v55c-37.333 0 -56 -8.33301 -56 -25zM1050 700c33.333 0 50 8.33301 50 25s-8.33301 25 -25 25s-25 -16.667 -25 -50zM1050 302c0 -201.333 -119.334 -301.999 -358.001 -301.999c-261.333 0 -392 83.333 -392 250v250h180v-250
c0 -86.667 70.667 -130 212 -130c118.667 0 178 60.333 178 181v279h-170c-333.333 0 -500 100 -500 300v320c0 200 166.667 300 500 300s500 -100 500 -300v-150c0 -66.667 -56 -100 -168 -100s-168 43.333 -168 130c0 41.333 12.333 72.666 37 93.999
c24.667 20.667 64.334 31 119.001 31c0 116.667 -106.667 175 -320 175s-320 -60 -320 -180v-320c0 -120 106.667 -180 320 -180h170c0 100 68.333 150 205 150c83.333 0 125 -41.667 125 -125c0 -96.667 -50 -145 -150 -145v-278z" />
    <glyph glyph-name="uni1792" unicode="&#x1792;" horiz-adv-x="1400" 
d="M1020 891c-46.667 0 -70 -27 -70 -81c0 -40 23.333 -60 70 -60v141zM200 1054c-18 9.33301 -33.999 21.0029 -47.999 35.0029c-34.667 32 -52 71 -52 117s78 144 234 294c140 0 271 -58 393 -174c126 116 204.667 174 236 174c57.333 0 119 -30.333 185 -91
c65.333 -60.667 116 -73.334 152 -38.001c0 -55.333 -11 -102 -33 -140c-22.667 -38 -53 -57 -91 -57s-121 49.333 -249 148c-46.667 0.666992 -135.334 -58.333 -266.001 -177c-73.333 69.333 -134.5 115.666 -183.5 138.999s-96.833 36.666 -143.5 39.999l-100 -94
c12 -71.333 60.667 -127.333 146 -168v-903l236 236c56 56.667 112.667 56.667 170 0l234 -235v490c-113.333 0 -170 53.333 -170 160c0 126.667 56.667 190 170 190c120 0 180 -33.333 180 -100v-800c0 -66.667 -33.333 -100 -100 -100c-60 0 -115.667 25.667 -167 77
l-233 233l-232 -233c-51.333 -51.333 -107.333 -77 -168 -77c-66.667 -0 -100 33.333 -100 100v954z" />
    <glyph glyph-name="uni1793" unicode="&#x1793;" horiz-adv-x="1400" 
d="M964 1000c0 -33.333 18.667 -50 56 -50v75c-37.333 0 -56 -8.33301 -56 -25zM1200 250c0 -166.667 -98.334 -249.999 -295.001 -249.999c-94 0 -177.333 46.667 -250 140s-164.334 140 -275.001 140v-280h-180v600h180v-200c130 0 234.833 -41.667 314.5 -125
s149.834 -125 210.501 -125c76.667 0 115 33.333 115 100v298l-410 121c-273.333 80.667 -410 207.667 -410 381v150c0 200 166.667 300 500 300s500 -100 500 -300v-250c0 -66.667 -56 -100 -168 -100s-168 50 -168 150c0 41.333 12.333 72.666 37 93.999
c24.667 20.667 64.334 31 119.001 31v75c0 120 -106.667 180 -320 180s-320 -60 -320 -180v-150c0 -140 136.667 -248.667 410 -326l410 -117v-357z" />
    <glyph glyph-name="uni1794" unicode="&#x1794;" horiz-adv-x="1400" 
d="M1020 963c0 70.667 -66.665 126.677 -199.998 168.01c13.333 67.333 45.166 145.666 95.499 234.999s93.5 134 129.5 134c29.333 0 67.666 -14.333 114.999 -43l70 -43c31.333 -19.333 71.333 -24 120 -14c-6.66699 -46.667 -20.167 -84.834 -40.5 -114.501
s-47.666 -46.334 -81.999 -50.001s-82.666 13.666 -144.999 51.999s-114.5 5.16602 -156.5 -99.501c182.667 -58.667 274 -114.667 274 -168v-820c-66.667 -133.333 -233.334 -200 -500.001 -200s-433.334 66.667 -500.001 200v763c0 70.667 -66.667 126.667 -200 168
c13.333 67.333 45.166 145.666 95.499 234.999s93.5 134 129.5 134c29.333 0 67.666 -14.333 114.999 -43l70 -43c31.333 -19.333 71.333 -24 120 -14c-6.66699 -46.667 -20.167 -84.834 -40.5 -114.501s-47.666 -46.334 -81.999 -50.001s-82.666 13.666 -144.999 51.999
s-114.5 5.16602 -156.5 -99.501c182.667 -58.667 274 -114.667 274 -168v-780c40 -80 146.667 -120 320 -120s280 40 320 120v723z" />
    <glyph glyph-name="uni1795" unicode="&#x1795;" horiz-adv-x="1400" 
d="M1020 891c-46.667 0 -70 -27 -70 -81c0 -40 23.333 -60 70 -60v141zM1200 100c0 -66.667 -33.332 -100.001 -99.999 -100.001c-60 0 -115.667 25.667 -167 77l-233 233l-232 -233c-51.333 -51.333 -107.333 -77 -168 -77c-66.667 0 -100 33.333 -100 100v910
c-47.333 44 -75.833 74.5 -85.5 91.5s-14.5 38.167 -14.5 63.5c0 24.667 5 45.667 15 63c9.33301 17.333 52.833 67 130.5 149s128.667 123 153 123s88.166 -35.667 191.499 -107c136 -95.333 236 -143 300 -143c126.667 0 190 46.667 190 140
c0 33.333 -16.667 63.333 -50 90s-80 40 -140 40c-86.667 0 -130 30 -130 90s43.333 90 130 90c93.333 0 168.333 -26.667 225 -80s85 -130 85 -230c0 -94.667 -26.833 -162.334 -80.5 -203.001s-133.5 -61 -239.5 -61c-158 0 -278.333 29 -361 87l-62 43
c-41.333 28.667 -74.833 41.334 -100.5 38.001s-50 -19.666 -73 -48.999s-34.5 -55 -34.5 -77c0 -22.667 43.667 -65 131 -127v-882l236 236c56 56.667 112.667 56.667 170 0l234 -235v490c-113.333 0 -170 53.333 -170 160c0 126.667 56.667 190 170 190
c120 0 180 -33.333 180 -100v-800z" />
    <glyph glyph-name="uni1796" unicode="&#x1796;" horiz-adv-x="1400" 
d="M380 150c80 0 120 83.333 120 250c0 66.667 -40 100 -120 100v-350zM200 1200c0 81.333 36.668 151.666 110.001 210.999s129.666 89 168.999 89c33.333 0 107 -44.667 221 -134c114.667 89.333 188.667 134 222 134c39.333 0 95.333 -29.667 168 -89
c73.333 -59.333 110 -129.666 110 -210.999v-1200h-180v1200c0 69.333 -23.167 116.5 -69.5 141.5s-129.833 -22.167 -250.5 -141.5c-120 119.333 -203.333 166.5 -250 141.5s-70 -72.167 -70 -141.5v-600c146.667 0 220 -66.667 220 -200s-20.833 -233.333 -62.5 -300
s-104.167 -100 -187.5 -100c-100 -0 -150 33.333 -150 100v1100z" />
    <glyph glyph-name="uni1797" unicode="&#x1797;" horiz-adv-x="1400" 
d="M200 400c-53.333 0 -80 -33.333 -80 -100c0 -100 26.667 -150 80 -150v250zM100 1206c0 46 78.001 144.004 234.001 294.004c140 0 271 -58 393 -174c126 116 204.667 174 236 174c57.333 0 119 -30.333 185 -91c65.333 -60.667 116 -73.334 152 -38.001
c0 -55.333 -11 -102 -33 -140c-22.667 -38 -53 -57 -91 -57s-121 49.333 -249 148c-46.667 0.666992 -135.334 -58.333 -266.001 -177c-73.333 69.333 -134.5 115.666 -183.5 138.999s-96.833 36.666 -143.5 39.999l-100 -94c12 -71.333 55 -125.333 129 -162l-78 -39
c-54.667 7.33301 -99.167 27.166 -133.5 59.499s-51.5 71.5 -51.5 117.5zM200.001 900.004c66.667 133.333 233.332 199.999 499.999 199.999s433.334 -66.667 500.001 -200v-900h-180v860c-40 80 -146.667 120 -320 120s-280 -40 -320 -120v-760
c0 -66.667 -50 -100 -150 -100c-70 0 -122.5 33.333 -157.5 100s-52.5 133.334 -52.5 200.001c0 133.333 60 200 180 200v400z" />
    <glyph glyph-name="uni1798" unicode="&#x1798;" horiz-adv-x="1400" 
d="M1020 780l0.00195312 183.01c0 70.667 -66.667 126.667 -200 168c13.333 67.333 45.166 145.666 95.499 234.999s93.5 134 129.5 134c29.333 0 67.666 -14.333 114.999 -43l70 -43c31.333 -19.333 71.333 -24 120 -14c-6.66699 -46.667 -20.167 -84.834 -40.5 -114.501
s-47.666 -46.334 -81.999 -50.001s-82.666 13.666 -144.999 51.999s-114.5 5.16602 -156.5 -99.501c182.667 -58.667 274 -114.667 274 -168v-820c-66.667 -133.333 -233.334 -200 -500.001 -200s-433.334 66.667 -500.001 200v763c0 70.667 -66.667 126.667 -200 168
c13.333 67.333 45.166 145.666 95.499 234.999s93.5 134 129.5 134c29.333 0 67.666 -14.333 114.999 -43l70 -43c31.333 -19.333 71.333 -24 120 -14c-6.66699 -46.667 -20.167 -84.834 -40.5 -114.501s-47.666 -46.334 -81.999 -50.001s-82.666 13.666 -144.999 51.999
s-114.5 5.16602 -156.5 -99.501c182.667 -58.667 274 -114.667 274 -168v-240h640zM1020 660.01h-640v-420c40 -80 146.667 -120 320 -120s280 40 320 120v420z" />
    <glyph glyph-name="uni1799" unicode="&#x1799;" horiz-adv-x="2100" 
d="M380 1100c53.333 0 80 33.333 80 100c0 86.667 -26.667 136.667 -80 150v-250zM200 1400c0 66.667 50.0049 100.011 150.005 100.011c53.333 0 101.666 -28.333 144.999 -85s65 -128.334 65 -215.001c0 -133.333 -60 -200 -180 -200v-760c40 -80 136.667 -120 290 -120
s250 40 290 120v723c0 70.667 -66.667 126.667 -200 168c13.333 67.333 45.166 145.666 95.499 234.999s93.5 134 129.5 134c29.333 0 67.666 -14.333 114.999 -43l70 -43c31.333 -19.333 71.333 -24 120 -14c-6.66699 -46.667 -20.167 -84.834 -40.5 -114.501
s-47.666 -46.334 -81.999 -50.001s-82.666 13.666 -144.999 51.999s-114.5 5.16602 -156.5 -99.501c182.667 -58.667 274 -114.667 274 -168v-780c40 -80 136.667 -120 290 -120s250 40 290 120v723c0 70.667 -66.667 126.667 -200 168
c13.333 67.333 45.166 145.666 95.499 234.999s93.5 134 129.5 134c29.333 0 67.666 -14.333 114.999 -43l70 -43c31.333 -19.333 71.333 -24 120 -14c-6.66699 -46.667 -20.167 -84.834 -40.5 -114.501s-47.666 -46.334 -81.999 -50.001s-82.666 13.666 -144.999 51.999
s-114.5 5.16602 -156.5 -99.501c182.667 -58.667 274 -114.667 274 -168v-820c-66.667 -133.333 -223.334 -200 -470.001 -200c-168.667 -0 -295.334 31.333 -380.001 94c-84.667 -62.667 -211.334 -94 -380.001 -94c-246.667 0 -403.334 66.667 -470.001 200v1200z" />
    <glyph glyph-name="uni179a" unicode="&#x179a;" horiz-adv-x="580" 
d="M200 400c-53.333 0 -80 -33.333 -80 -100c0 -100 26.667 -150 80 -150v250zM380 100c0 -66.667 -43.333 -99.9961 -130 -99.9961c-83.333 0 -142.5 33.333 -177.5 100s-52.5 133.334 -52.5 200.001c0 133.333 60 200 180 200v463c0 70.667 -66.667 126.667 -200 168
c13.333 67.333 45.166 145.666 95.499 234.999s93.5 134 129.5 134c29.333 0 67.666 -14.333 114.999 -43l70 -43c31.333 -19.333 71.333 -24 120 -14c-6.66699 -46.667 -20.167 -84.834 -40.5 -114.501s-47.666 -46.334 -81.999 -50.001s-82.666 13.666 -144.999 51.999
s-114.5 5.16602 -156.5 -99.501c182.667 -58.667 274 -114.667 274 -168v-920z" />
    <glyph glyph-name="uni179b" unicode="&#x179b;" horiz-adv-x="2100" 
d="M380 150c80 0 120 83.333 120 250c0 66.667 -40 100 -120 100v-350zM1900 200c-66.667 -133.333 -223.334 -199.995 -470.001 -199.995s-403.334 66.667 -470.001 200v1060c-40 80 -136.667 120 -290 120s-250 -40 -290 -120v-660c146.667 0 220 -66.667 220 -200
s-20.833 -233.333 -62.5 -300s-104.167 -100 -187.5 -100c-100 0 -150 33.333 -150 100v1200c66.667 133.333 223.334 200 470.001 200s403.334 -66.667 470.001 -200v-1060c40 -80 136.667 -120 290 -120s250 40 290 120v723c0 70.667 -66.667 126.667 -200 168
c13.333 67.333 45.166 145.666 95.499 234.999s93.5 134 129.5 134c29.333 0 67.666 -14.333 114.999 -43l70 -43c31.333 -19.333 71.333 -24 120 -14c-6.66699 -46.667 -20.167 -84.834 -40.5 -114.501s-47.666 -46.334 -81.999 -50.001s-82.666 13.666 -144.999 51.999
s-114.5 5.16602 -156.5 -99.501c182.667 -58.667 274 -114.667 274 -168v-820z" />
    <glyph glyph-name="uni179c" unicode="&#x179c;" horiz-adv-x="580" 
d="M200 400c-53.333 0 -80 -33.333 -80 -100c0 -100 26.667 -150 80 -150v250zM408 1236c-34.667 -4 -83.165 13.1689 -145.498 51.502s-114.5 5.16602 -156.5 -99.501c182.667 -58.667 274 -114.667 274 -168v-920c0 -66.667 -43.333 -100 -130 -100
c-83.333 0 -142.5 33.333 -177.5 100s-52.5 133.334 -52.5 200.001c0 133.333 60 200 180 200v463c0 70.667 -66.667 126.667 -200 168c13.333 67.333 45.166 145.666 95.499 234.999s93.5 134 129.5 134c29.333 0 67.666 -14.333 114.999 -43l59 -36
c20.667 23.333 31 49.666 31 78.999c0 80 -30 120 -90 120c-73.333 0 -110 30 -110 90s36.667 90 110 90c126.667 0 190 -100 190 -300c0 -77.333 -12.5 -139.833 -37.5 -187.5s-53.167 -73.167 -84.5 -76.5z" />
    <glyph glyph-name="uni179d" unicode="&#x179d;" horiz-adv-x="1400" 
d="M100 1206c0 46 78.001 144.004 234.001 294.004c140 0 271 -58 393 -174c126 116 204.667 174 236 174c57.333 0 119 -30.333 185 -91c65.333 -60.667 116 -73.334 152 -38.001c0 -55.333 -11 -102 -33 -140c-22.667 -38 -53 -57 -91 -57s-121 49.333 -249 148
c-46.667 0.666992 -135.334 -58.333 -266.001 -177c-73.333 69.333 -134.5 115.666 -183.5 138.999s-96.833 36.666 -143.5 39.999l-100 -94c12 -71.333 55 -125.333 129 -162l-78 -39c-54.667 7.33301 -99.167 27.166 -133.5 59.499s-51.5 71.5 -51.5 117.5zM1020 510.004
l-0.00195312 350c-40 80 -146.667 120 -320 120s-280 -40 -320 -120v-590c78.667 153.333 172.667 230 282 230c92 0 138 -40 138 -120c0 -53.333 -25.667 -80 -77 -80c-38 0 -57 11 -57 33s-14.667 33 -44 33c-48 0 -128.667 -109.667 -242 -329v-37h-180v900
c66.667 133.333 233.334 200 500.001 200s433.334 -66.667 500.001 -200v-390h150v-120h-150v-390h-180v390h-140v120h140z" />
    <glyph glyph-name="uni179e" unicode="&#x179e;" horiz-adv-x="1400" 
d="M1020 810l0.00195312 153.01c0 70.667 -66.667 126.667 -200 168c13.333 67.333 45.166 145.666 95.499 234.999s93.5 134 129.5 134c29.333 0 67.666 -14.333 114.999 -43l70 -43c31.333 -19.333 71.333 -24 120 -14c-6.66699 -46.667 -20.167 -84.834 -40.5 -114.501
s-47.666 -46.334 -81.999 -50.001s-82.666 13.666 -144.999 51.999s-114.5 5.16602 -156.5 -99.501c182.667 -58.667 274 -114.667 274 -168v-210h150v-120h-150v-490c-66.667 -133.333 -233.334 -200 -500.001 -200s-433.334 66.667 -500.001 200v763
c0 70.667 -66.667 126.667 -200 168c13.333 67.333 45.166 145.666 95.499 234.999s93.5 134 129.5 134c29.333 0 67.666 -14.333 114.999 -43l70 -43c31.333 -19.333 71.333 -24 120 -14c-6.66699 -46.667 -20.167 -84.834 -40.5 -114.501s-47.666 -46.334 -81.999 -50.001
s-82.666 13.666 -144.999 51.999s-114.5 5.16602 -156.5 -99.501c182.667 -58.667 274 -114.667 274 -168v-780c40 -80 146.667 -120 320 -120s280 40 320 120v450h-140v120h140z" />
    <glyph glyph-name="uni179f" unicode="&#x179f;" horiz-adv-x="2100" 
d="M380 150c66.667 0 100 50 100 150c0 66.667 -33.333 100 -100 100v-250zM619 1099c16.667 0.666992 33.667 1.00977 51 1.00977c246.667 0 403.334 -66.667 470.001 -200v-660c40 -80 136.667 -120 290 -120s250 40 290 120v723c0 70.667 -66.667 126.667 -200 168
c13.333 67.333 45.166 145.666 95.499 234.999s93.5 134 129.5 134c29.333 0 67.666 -14.333 114.999 -43l70 -43c31.333 -19.333 71.333 -24 120 -14c-6.66699 -46.667 -20.167 -84.834 -40.5 -114.501s-47.666 -46.334 -81.999 -50.001s-82.666 13.666 -144.999 51.999
s-114.5 5.16602 -156.5 -99.501c182.667 -58.667 274 -114.667 274 -168v-820c-66.667 -133.333 -223.334 -200 -470.001 -200s-403.334 66.667 -470.001 200v660c-40 80 -136.667 120 -290 120s-250 -40 -290 -120v-360c133.333 0 200 -66.667 200 -200
c0 -66.667 -17.5 -133.334 -52.5 -200.001s-94.167 -100 -177.5 -100c-100 0 -150 33.333 -150 100v800c41.333 83.333 117.666 140.666 228.999 171.999c-45.333 24.667 -105 51 -179 79c20 67.333 61.833 142.333 125.5 225s120.167 124 169.5 124
c42.667 0 103.667 -19.167 183 -57.5s143.333 -52.5 192 -42.5c-6.66699 -46.667 -20.167 -84.834 -40.5 -114.501s-47.666 -46.334 -81.999 -50.001s-97.666 13.666 -189.999 51.999s-172.833 11.833 -241.5 -79.5c116 -34.667 200.333 -71 253 -109z" />
    <glyph glyph-name="uni17a0" unicode="&#x17a0;" horiz-adv-x="2100" 
d="M200 963c0 70.667 -66.667 126.672 -200 168.005c13.333 67.333 45.166 145.666 95.499 234.999s93.5 134 129.5 134c29.333 0 67.666 -14.333 114.999 -43l70 -43c31.333 -19.333 71.333 -24 120 -14c-6.66699 -46.667 -20.167 -84.834 -40.5 -114.501
s-47.666 -46.334 -81.999 -50.001s-82.666 13.666 -144.999 51.999s-114.5 5.16602 -156.5 -99.501c182.667 -58.667 274 -114.667 274 -168v-780c40 -80 136.667 -120 290 -120s250 40 290 120v1060c66.667 133.333 223.334 200 470.001 200s403.334 -66.667 470.001 -200
v-1300h-180v1260c-40 80 -136.667 120 -290 120s-250 -40 -290 -120v-1060c-66.667 -133.333 -223.334 -200 -470.001 -200s-403.334 66.667 -470.001 200v763z" />
    <glyph glyph-name="uni17a1" unicode="&#x17a1;" horiz-adv-x="2100" 
d="M964 1080c0 -20 18.667 -30 56 -30v55c-37.333 0 -56 -8.33301 -56 -25zM1050 700c33.333 0 50 8.33301 50 25s-8.33301 25 -25 25s-25 -16.667 -25 -50zM1050 302c0 -201.333 -119.334 -301.999 -358.001 -301.999c-261.333 0 -392 83.333 -392 250v250h180v-250
c0 -86.667 70.667 -130 212 -130c118.667 0 178 60.333 178 181v279h-170c-333.333 0 -500 100 -500 300v320c0 200 166.667 300 500 300s500 -100 500 -300v-150c0 -66.667 -56 -100 -168 -100s-168 43.333 -168 130c0 41.333 12.333 72.666 37 93.999
c24.667 20.667 64.334 31 119.001 31c0 116.667 -106.667 175 -320 175s-320 -60 -320 -180v-320c0 -120 106.667 -180 320 -180h170c0 100 68.333 150 205 150c83.333 0 125 -41.667 125 -125c0 -96.667 -50 -145 -150 -145v-278zM1900 -549.999
c0 -66.667 -33.333 -99.9961 -100 -99.9961c-60 0 -115.667 25.667 -167 77l-173 173l-172 -173c-51.333 -51.333 -107.333 -77 -168 -77c-66.667 0 -100 33.333 -100 100v200c-66.667 0 -100 23.333 -100 70c0 36.667 20 75.834 60 117.501s80 62.5 120 62.5
c66.667 0 100 -33.333 100 -100v-291l200 201c40 40 80 40 120 0l200 -200v1453c0 70.667 -66.667 126.667 -200 168c13.333 67.333 45.166 145.666 95.499 234.999s93.5 134 129.5 134c29.333 0 67.666 -14.333 114.999 -43l70 -43c31.333 -19.333 71.333 -24 120 -14
c-6.66699 -46.667 -20.167 -84.834 -40.5 -114.501s-47.666 -46.334 -81.999 -50.001s-82.666 13.666 -144.999 51.999s-114.5 5.16602 -156.5 -99.501c182.667 -58.667 274 -114.667 274 -168v-1570z" />
    <glyph glyph-name="uni17a2" unicode="&#x17a2;" horiz-adv-x="1400" 
d="M1020 400c-53.333 0 -80 -33.333 -80 -100c0 -100 26.667 -150 80 -150v250zM200 400c-53.333 0 -80 -33.333 -80 -100c0 -100 26.667 -150 80 -150v250zM1020 810v153.008c0 70.667 -66.667 126.667 -200 168c13.333 67.333 45.166 145.666 95.499 234.999
s93.5 134 129.5 134c29.333 0 67.666 -14.333 114.999 -43l70 -43c31.333 -19.333 71.333 -24 120 -14c-6.66699 -46.667 -20.167 -84.834 -40.5 -114.501s-47.666 -46.334 -81.999 -50.001s-82.666 13.666 -144.999 51.999s-114.5 5.16602 -156.5 -99.501
c182.667 -58.667 274 -114.667 274 -168v-920c0 -66.667 -43.333 -100 -130 -100c-83.333 0 -142.5 33.333 -177.5 100s-52.5 133.334 -52.5 200.001c0 133.333 60 200 180 200v190h-640v-590c0 -66.667 -43.333 -100 -130 -100c-83.333 0 -142.5 33.333 -177.5 100
s-52.5 133.334 -52.5 200.001c0 133.333 60 200 180 200v463c0 70.667 -66.667 126.667 -200 168c13.333 67.333 45.166 145.666 95.499 234.999s93.5 134 129.5 134c29.333 0 67.666 -14.333 114.999 -43l70 -43c31.333 -19.333 71.333 -24 120 -14
c-6.66699 -46.667 -20.167 -84.834 -40.5 -114.501s-47.666 -46.334 -81.999 -50.001s-82.666 13.666 -144.999 51.999s-114.5 5.16602 -156.5 -99.501c182.667 -58.667 274 -114.667 274 -168v-210h640z" />
    <glyph glyph-name="uni17a3" unicode="&#x17a3;" horiz-adv-x="1400" 
d="M1020 400c-53.333 0 -80 -33.333 -80 -100c0 -100 26.667 -150 80 -150v250zM200 400c-53.333 0 -80 -33.333 -80 -100c0 -100 26.667 -150 80 -150v250zM1020 810v153.008c0 70.667 -66.667 126.667 -200 168c13.333 67.333 45.166 145.666 95.499 234.999
s93.5 134 129.5 134c29.333 0 67.666 -14.333 114.999 -43l70 -43c31.333 -19.333 71.333 -24 120 -14c-6.66699 -46.667 -20.167 -84.834 -40.5 -114.501s-47.666 -46.334 -81.999 -50.001s-82.666 13.666 -144.999 51.999s-114.5 5.16602 -156.5 -99.501
c182.667 -58.667 274 -114.667 274 -168v-920c0 -66.667 -43.333 -100 -130 -100c-83.333 0 -142.5 33.333 -177.5 100s-52.5 133.334 -52.5 200.001c0 133.333 60 200 180 200v190h-640v-590c0 -66.667 -43.333 -100 -130 -100c-83.333 0 -142.5 33.333 -177.5 100
s-52.5 133.334 -52.5 200.001c0 133.333 60 200 180 200v463c0 70.667 -66.667 126.667 -200 168c13.333 67.333 45.166 145.666 95.499 234.999s93.5 134 129.5 134c29.333 0 67.666 -14.333 114.999 -43l70 -43c31.333 -19.333 71.333 -24 120 -14
c-6.66699 -46.667 -20.167 -84.834 -40.5 -114.501s-47.666 -46.334 -81.999 -50.001s-82.666 13.666 -144.999 51.999s-114.5 5.16602 -156.5 -99.501c182.667 -58.667 274 -114.667 274 -168v-210h640z" />
    <glyph glyph-name="uni17a4" unicode="&#x17a4;" horiz-adv-x="2100" 
d="M1020 400c-53.333 0 -80 -33.333 -80 -100c0 -100 26.667 -150 80 -150v250zM200 400c-53.333 0 -80 -33.333 -80 -100c0 -100 26.667 -150 80 -150v250zM820 1131c20.667 67.333 75.333 145.67 164 235.003c87.333 89.333 159 134 215 134c82 0 219.333 -39 412 -117
s289 -189 289 -333v-1050h-180v1070c0 54 -98.333 119.5 -295 196.5s-334 74.5 -412 -7.5l-70 -73c171.333 -58 257 -113.333 257 -166v-920c0 -66.667 -43.333 -100 -130 -100c-83.333 0 -142.5 33.333 -177.5 100s-52.5 133.334 -52.5 200.001c0 133.333 60 200 180 200
v190h-640v-590c0 -66.667 -43.333 -100 -130 -100c-83.333 0 -142.5 33.333 -177.5 100s-52.5 133.334 -52.5 200.001c0 133.333 60 200 180 200v463c0 70.667 -66.667 126.667 -200 168c13.333 67.333 45.166 145.666 95.499 234.999s93.5 134 129.5 134
c29.333 0 67.666 -14.333 114.999 -43l70 -43c31.333 -19.333 71.333 -24 120 -14c-6.66699 -46.667 -20.167 -84.834 -40.5 -114.501s-47.666 -46.334 -81.999 -50.001s-82.666 13.666 -144.999 51.999s-114.5 5.16602 -156.5 -99.501
c182.667 -58.667 274 -114.667 274 -168v-210h640v153c0 70.667 -66.667 126.667 -200 168z" />
    <glyph glyph-name="uni17a5" unicode="&#x17a5;" horiz-adv-x="1400" 
d="M380 150c66.667 0 100 50 100 150c0 66.667 -33.333 100 -100 100v-250zM200 850c66.667 133.333 233.332 200.001 499.999 200.001s433.334 -66.667 500.001 -200v-850h-180v810c-40 80 -146.667 120 -320 120s-280 -40 -320 -120v-310c133.333 0 200 -66.667 200 -200
c0 -66.667 -17.5 -133.334 -52.5 -200.001s-94.167 -100 -177.5 -100c-100 -0 -150 33.333 -150 100v750zM245.998 1000c-78 50.667 -121.832 84.499 -131.499 101.499s-14.5 38.167 -14.5 63.5c0 24.667 5 45.667 15 63c9.33301 17.333 52.833 67 130.5 149
s128.667 123 153 123s88.166 -35.667 191.499 -107c136 -95.333 236 -143 300 -143c126.667 0 190 46.667 190 140c0 33.333 -16.667 63.333 -50 90s-80 40 -140 40c-86.667 0 -130 30 -130 90s43.333 90 130 90c93.333 0 168.333 -26.667 225 -80s85 -130 85 -230
c0 -94.667 -26.833 -162.334 -80.5 -203.001s-133.5 -61 -239.5 -61c-158 0 -278.333 29 -361 87l-62 43c-41.333 28.667 -74.833 41.334 -100.5 38.001s-50 -19.666 -73 -48.999s-34.5 -55 -34.5 -77c0 -22.667 43.667 -55 131 -97z" />
    <glyph glyph-name="uni17a6" unicode="&#x17a6;" horiz-adv-x="2100" 
d="M380 150c66.667 0 100 50 100 150c0 66.667 -33.333 100 -100 100v-250zM200 1300c66.667 133.333 233.332 200.001 499.999 200.001s433.334 -66.667 500.001 -200v-1300h-180v1260c-40 80 -146.667 120 -320 120s-280 -40 -320 -120v-760
c133.333 0 200 -66.667 200 -200c0 -66.667 -17.5 -133.334 -52.5 -200.001s-94.167 -100 -177.5 -100c-100 -0 -150 33.333 -150 100v1200zM1900 -449.999c0 -133.333 -158.999 -200 -476.999 -200c-318.667 0 -478 66.667 -478 200v100c0 100 -81.667 150 -245 150
s-245 -50 -245 -150v-50c65.333 0 107.333 -8.33301 126 -25c18 -16.667 27 -37 27 -61c0 -50.667 -24 -90.667 -72 -120c-48.667 -29.333 -94.334 -44 -137.001 -44c-82.667 0 -124 33.333 -124 100v200c0 166.667 141.667 250 425 250s425 -83.333 425 -250v-100
c0 -66.667 99.333 -100 298 -100c198 0 297 33.333 297 100v2090c0 193.333 -63.333 290 -190 290c-73.333 0 -130.333 -21 -171 -63s-75 -64.333 -103 -67c-27.333 -2.66699 -56.333 7.33301 -87 30c-46 50 -69 113.667 -69 191c0 43.333 6.66699 87.5 20 132.5
s20 90.833 20 137.5s-30 70 -90 70c0 66.667 33.333 100 100 100c113.333 0 170 -56.667 170 -170c0 -56.667 -8.66699 -104.167 -26 -142.5s-26 -80.833 -26 -127.5v-43c88 48 175.333 72 262 72c246.667 0 370 -136.667 370 -410v-2090z" />
    <glyph glyph-name="uni17a7" unicode="&#x17a7;" horiz-adv-x="1400" 
d="M380 1025v-75c37.333 0 56 16.667 56 50c0 16.667 -18.667 25 -56 25zM380 300c0 -68 15.1689 -115.001 45.502 -141.001s85.166 -39 164.499 -39c78.667 0 147.667 12 207 36s133.666 81.667 222.999 173v271h180v-600c0 -113.333 -66.667 -170 -200 -170
c-66.667 0 -100 33.333 -100 100c80 0 120 23.333 120 70v141c-62.667 -46 -123.334 -80.667 -182.001 -104c-61.333 -24.667 -144 -37 -248 -37c-137.333 0 -234 21 -290 63c-66.667 49.333 -100 128.333 -100 237v267c546.667 208.667 820 369.667 820 483v150
c0 120 -106.667 180 -320 180s-320 -60 -320 -180v-75c54.667 0 94.334 -10.333 119.001 -31c24.667 -21.333 37 -52.666 37 -93.999c0 -100 -56 -150 -168 -150s-168 33.333 -168 100v250c0 200 166.667 300 500 300s500 -100 500 -300v-150
c0 -160 -273.333 -340.667 -820 -542v-208z" />
    <glyph glyph-name="uni17a8" unicode="&#x17a8;" horiz-adv-x="1400" 
d="M380 1025v-75c37.333 0 56 16.667 56 50c0 16.667 -18.667 25 -56 25zM380 300c0 -68 15.1689 -115.001 45.502 -141.001s85.166 -39 164.499 -39c78.667 0 147.667 12 207 36s133.666 81.667 222.999 173v271h180v-600c0 -113.333 -66.667 -170 -200 -170
c-66.667 0 -100 33.333 -100 100c80 0 120 23.333 120 70v141c-62.667 -46 -123.334 -80.667 -182.001 -104c-61.333 -24.667 -144 -37 -248 -37c-137.333 0 -234 21 -290 63c-66.667 49.333 -100 128.333 -100 237v267c546.667 208.667 820 369.667 820 483v150
c0 120 -106.667 180 -320 180s-320 -60 -320 -180v-75c54.667 0 94.334 -10.333 119.001 -31c24.667 -21.333 37 -52.666 37 -93.999c0 -100 -56 -150 -168 -150s-168 33.333 -168 100v250c0 200 166.667 300 500 300s500 -100 500 -300v-150
c0 -160 -273.333 -340.667 -820 -542v-208zM151.502 1538.5c-34.333 32.333 -51.499 71.5039 -51.499 117.504s78 144 234 294c140 0 271 -58 393 -174c126 116 204.667 174 236 174c57.333 0 119 -30.333 185 -91c65.333 -60.667 116 -73.334 152 -38.001
c0 -55.333 -11 -102 -33 -140c-22.667 -38 -53 -57 -91 -57s-121 49.333 -249 148c-46.667 0.666992 -135.334 -58.333 -266.001 -177c-73.333 69.333 -134.5 115.666 -183.5 138.999s-96.833 36.666 -143.5 39.999l-100 -94c12 -71.333 55 -125.333 129 -162l-78 -39
c-54.667 7.33301 -99.167 27.166 -133.5 59.499z" />
    <glyph glyph-name="uni17a9" unicode="&#x17a9;" horiz-adv-x="1500" 
d="M1320 600h180v-700h-180v700zM380 1025v-75c37.333 0 56 16.667 56 50c0 16.667 -18.667 25 -56 25zM380 300c0 -68 15.1689 -115.001 45.502 -141.001s85.166 -39 164.499 -39c78.667 0 147.667 12 207 36s133.666 81.667 222.999 173v271h180v-600
c0 -113.333 -66.667 -170 -200 -170c-66.667 0 -100 33.333 -100 100c80 0 120 23.333 120 70v141c-62.667 -46 -123.334 -80.667 -182.001 -104c-61.333 -24.667 -144 -37 -248 -37c-137.333 0 -234 21 -290 63c-66.667 49.333 -100 128.333 -100 237v267
c546.667 208.667 820 369.667 820 483v150c0 120 -106.667 180 -320 180s-320 -60 -320 -180v-75c54.667 0 94.334 -10.333 119.001 -31c24.667 -21.333 37 -52.666 37 -93.999c0 -100 -56 -150 -168 -150s-168 33.333 -168 100v250c0 200 166.667 300 500 300
s500 -100 500 -300v-150c0 -160 -273.333 -340.667 -820 -542v-208z" />
    <glyph glyph-name="uni17aa" unicode="&#x17aa;" horiz-adv-x="1400" 
d="M380 1025v-75c37.333 0 56 16.667 56 50c0 16.667 -18.667 25 -56 25zM380 300c0 -68 15.1689 -115.001 45.502 -141.001s85.166 -39 164.499 -39c78.667 0 147.667 12 207 36s133.666 81.667 222.999 173v271h180v-600c0 -113.333 -66.667 -170 -200 -170
c-66.667 0 -100 33.333 -100 100c80 0 120 23.333 120 70v141c-62.667 -46 -123.334 -80.667 -182.001 -104c-61.333 -24.667 -144 -37 -248 -37c-137.333 0 -234 21 -290 63c-66.667 49.333 -100 128.333 -100 237v267c546.667 208.667 820 369.667 820 483v150
c0 120 -106.667 180 -320 180s-320 -60 -320 -180v-75c54.667 0 94.334 -10.333 119.001 -31c24.667 -21.333 37 -52.666 37 -93.999c0 -100 -56 -150 -168 -150s-168 33.333 -168 100v250c0 200 166.667 300 500 300s500 -100 500 -300v-150
c0 -160 -273.333 -340.667 -820 -542v-208zM246.002 1444c-78 50.667 -121.832 84.499 -131.499 101.499s-14.5 38.167 -14.5 63.5c0 24.667 5 45.667 15 63c9.33301 17.333 52.833 67 130.5 149s128.667 123 153 123s88.166 -35.667 191.499 -107
c136 -95.333 236 -143 300 -143c126.667 0 190 46.667 190 140c0 33.333 -16.667 63.333 -50 90s-80 40 -140 40c-86.667 0 -130 30 -130 90s43.333 90 130 90c93.333 0 168.333 -26.667 225 -80s85 -130 85 -230c0 -94.667 -26.833 -162.334 -80.5 -203.001
s-133.5 -61 -239.5 -61c-158 0 -278.333 29 -361 87l-62 43c-41.333 28.667 -74.833 41.334 -100.5 38.001s-50 -19.666 -73 -48.999s-34.5 -55 -34.5 -77c0 -22.667 43.667 -55 131 -97z" />
    <glyph glyph-name="uni17ab" unicode="&#x17ab;" horiz-adv-x="1400" 
d="M1200 -250c0 -100 -51.666 -175.001 -154.999 -225.001c-102.667 -50 -257 -75 -463 -75c-103.333 0 -191 10.667 -263 32c-72 22 -128.333 54.667 -169 98c124 -20 268.333 -30 433 -30c147.333 0 258 16.667 332 50c73.333 33.333 110 83.333 110 150
c0 16.667 -6 29.334 -18 38.001c-12.667 8 -31.334 12 -56.001 12c0 33.333 10.333 58.333 31 75s51.667 25 93 25c42 0 73.333 -12.667 94 -38c20.667 -24.667 31 -62 31 -112zM1020 962.999c0 70.667 -66.665 126.677 -199.998 168.01
c13.333 67.333 45.166 145.666 95.499 234.999s93.5 134 129.5 134c29.333 0 67.666 -14.333 114.999 -43l70 -43c31.333 -19.333 71.333 -24 120 -14c-6.66699 -46.667 -20.167 -84.834 -40.5 -114.501s-47.666 -46.334 -81.999 -50.001s-82.666 13.666 -144.999 51.999
s-114.5 5.16602 -156.5 -99.501c182.667 -58.667 274 -114.667 274 -168v-820c-66.667 -133.333 -233.334 -200 -500.001 -200s-433.334 66.667 -500.001 200v763c0 70.667 -66.667 126.667 -200 168c13.333 67.333 45.166 145.666 95.499 234.999s93.5 134 129.5 134
c29.333 0 67.666 -14.333 114.999 -43l70 -43c31.333 -19.333 71.333 -24 120 -14c-6.66699 -46.667 -20.167 -84.834 -40.5 -114.501s-47.666 -46.334 -81.999 -50.001s-82.666 13.666 -144.999 51.999s-114.5 5.16602 -156.5 -99.501
c182.667 -58.667 274 -114.667 274 -168v-780c40 -80 146.667 -120 320 -120s280 40 320 120v723z" />
    <glyph glyph-name="uni17ac" unicode="&#x17ac;" horiz-adv-x="1400" 
d="M1200 -250c0 -46.667 -11.666 -88 -34.999 -124c6.66699 -25.333 25.334 -44.666 56.001 -57.999c30.667 -12.667 73.334 -19 128.001 -19c0 -32.667 -13.333 -57.334 -40 -74.001c-27.333 -16.667 -68 -25 -122 -25c-38.667 0 -72.334 5.33301 -101.001 16
c-28 10.667 -50.667 26.334 -68 47.001c-51.333 -20.667 -113.333 -36.334 -186 -47.001s-156.334 -16 -251.001 -16c-102.667 0 -190 10.667 -262 32c-72 22 -128.333 54.667 -169 98c123.333 -20 267.666 -30 432.999 -30c146.667 0 257 16.667 331 50
c73.333 33.333 110 83.333 110 150c0 33.333 -25 50 -75 50c0 33.333 10.667 58.333 32 75s53 25 95 25c41.333 0 72.333 -12.667 93 -38c20.667 -24.667 31 -62 31 -112zM1020 963c0 70.667 -66.665 126.677 -199.998 168.01c13.333 67.333 45.166 145.666 95.499 234.999
s93.5 134 129.5 134c29.333 0 67.666 -14.333 114.999 -43l70 -43c31.333 -19.333 71.333 -24 120 -14c-6.66699 -46.667 -20.167 -84.834 -40.5 -114.501s-47.666 -46.334 -81.999 -50.001s-82.666 13.666 -144.999 51.999s-114.5 5.16602 -156.5 -99.501
c182.667 -58.667 274 -114.667 274 -168v-820c-66.667 -133.333 -233.334 -200 -500.001 -200s-433.334 66.667 -500.001 200v763c0 70.667 -66.667 126.667 -200 168c13.333 67.333 45.166 145.666 95.499 234.999s93.5 134 129.5 134c29.333 0 67.666 -14.333 114.999 -43
l70 -43c31.333 -19.333 71.333 -24 120 -14c-6.66699 -46.667 -20.167 -84.834 -40.5 -114.501s-47.666 -46.334 -81.999 -50.001s-82.666 13.666 -144.999 51.999s-114.5 5.16602 -156.5 -99.501c182.667 -58.667 274 -114.667 274 -168v-780c40 -80 146.667 -120 320 -120
s280 40 320 120v723z" />
    <glyph glyph-name="uni17ad" unicode="&#x17ad;" horiz-adv-x="1400" 
d="M380 150c80 0 120 83.333 120 250c0 66.667 -40 100 -120 100v-350zM200 1200c0 81.333 36.668 151.666 110.001 210.999s129.666 89 168.999 89c33.333 0 107 -44.667 221 -134c114.667 89.333 188.667 134 222 134c39.333 0 95.333 -29.667 168 -89
c73.333 -59.333 110 -129.666 110 -210.999v-1200h-180v1200c0 69.333 -23.167 116.5 -69.5 141.5s-129.833 -22.167 -250.5 -141.5c-120 119.333 -203.333 166.5 -250 141.5s-70 -72.167 -70 -141.5v-600c146.667 0 220 -66.667 220 -200s-20.833 -233.333 -62.5 -300
s-104.167 -100 -187.5 -100c-100 -0 -150 33.333 -150 100v1100zM1200 -250c0 -100 -51.666 -175.001 -154.999 -225.001c-102.667 -50 -257 -75 -463 -75c-103.333 0 -191 10.667 -263 32c-72 22 -128.333 54.667 -169 98c124 -20 268.333 -30 433 -30
c147.333 0 258 16.667 332 50c73.333 33.333 110 83.333 110 150c0 16.667 -6 29.334 -18 38.001c-12.667 8 -31.334 12 -56.001 12c0 33.333 10.333 58.333 31 75s51.667 25 93 25c42 0 73.333 -12.667 94 -38c20.667 -24.667 31 -62 31 -112z" />
    <glyph glyph-name="uni17ae" unicode="&#x17ae;" horiz-adv-x="1400" 
d="M380 150c80 0 120 83.333 120 250c0 66.667 -40 100 -120 100v-350zM200 1200c0 81.333 36.668 151.666 110.001 210.999s129.666 89 168.999 89c33.333 0 107 -44.667 221 -134c114.667 89.333 188.667 134 222 134c39.333 0 95.333 -29.667 168 -89
c73.333 -59.333 110 -129.666 110 -210.999v-1200h-180v1200c0 69.333 -23.167 116.5 -69.5 141.5s-129.833 -22.167 -250.5 -141.5c-120 119.333 -203.333 166.5 -250 141.5s-70 -72.167 -70 -141.5v-600c146.667 0 220 -66.667 220 -200s-20.833 -233.333 -62.5 -300
s-104.167 -100 -187.5 -100c-100 -0 -150 33.333 -150 100v1100zM1200 -250c0 -46.667 -11.666 -88 -34.999 -124c6.66699 -25.333 25.334 -44.666 56.001 -57.999c30.667 -12.667 73.334 -19 128.001 -19c0 -32.667 -13.333 -57.334 -40 -74.001
c-27.333 -16.667 -68 -25 -122 -25c-38.667 0 -72.334 5.33301 -101.001 16c-28 10.667 -50.667 26.334 -68 47.001c-51.333 -20.667 -113.333 -36.334 -186 -47.001s-156.334 -16 -251.001 -16c-102.667 0 -190 10.667 -262 32c-72 22 -128.333 54.667 -169 98
c123.333 -20 267.666 -30 432.999 -30c146.667 0 257 16.667 331 50c73.333 33.333 110 83.333 110 150c0 33.333 -25 50 -75 50c0 33.333 10.667 58.333 32 75s53 25 95 25c41.333 0 72.333 -12.667 93 -38c20.667 -24.667 31 -62 31 -112z" />
    <glyph glyph-name="uni17af" unicode="&#x17af;" horiz-adv-x="1400" 
d="M200 791c-33.333 -13.333 -50 -43.667 -50 -91c0 -33.333 16.667 -50 50 -50v141zM200 549.999c-100 0 -150 50 -150 150c0 133.333 66.667 200 200 200c86.667 0 130 -33.333 130 -100v-641l236 236c56 56.667 112.667 56.667 170 0l234 -235v1040
c0 120 -90 180 -270 180c-246.667 0 -370 -43.333 -370 -130c0 -66.667 -26.667 -100 -80 -100c-66.667 0 -100 33.333 -100 100c0 116.667 8.33301 197.5 25 242.5s25 90.833 25 137.5s-33.333 70 -100 70c0 66.667 33.333 100 100 100c120 0 180 -56.667 180 -170
c0 -56.667 -8.33301 -104 -25 -142c-10 -22.667 -17 -46.667 -21 -72c66.667 56 188.667 84 366 84c300 0 450 -100 450 -300v-1100c0 -66.667 -33.333 -100 -100 -100c-60 0 -115.667 25.667 -167 77l-233 233l-232 -233c-51.333 -51.333 -107.333 -77 -168 -77
c-66.667 0 -100 33.333 -100 100v450z" />
    <glyph glyph-name="uni17b0" unicode="&#x17b0;" horiz-adv-x="1400" 
d="M1020 -149c-102.667 -65.333 -189.333 -117.333 -260 -156l94 -34c52 -11.333 92.667 -6 122 16s44 67.667 44 137v37zM380.001 150c80 0 120 83.333 120 250c0 66.667 -40 100 -120 100v-350zM620.001 -494c17.333 17.333 26 43.333 26 78v59
c-86 -42.667 -163 -73.667 -231 -93v-20c0 -16.667 13.833 -29.167 41.5 -37.5s53.5 -12.5 77.5 -12.5c40 0 68.667 8.66699 86 26zM1200 -186c0 -116 -26.333 -197.335 -79 -244.002c-52 -47.333 -141.333 -59.666 -268 -36.999l-77 18
c0 -67.333 -17.667 -117.666 -53 -150.999s-95.333 -50 -180 -50c-98 0 -171.333 12.667 -220 38c-48.667 24.667 -73 62 -73 112c0 96 18.667 151.667 56 167c118 34.667 226.833 74.5 326.5 119.5s228.834 132.5 387.501 262.5v1151c0 69.333 -23.167 116.5 -69.5 141.5
s-129.833 -22.167 -250.5 -141.5c-120 119.333 -203.333 166.5 -250 141.5s-70 -72.167 -70 -141.5v-600c146.667 0 220 -66.667 220 -200s-20.833 -233.333 -62.5 -300s-104.167 -100 -187.5 -100c-100 -0 -150 33.333 -150 100v1100c0 81.333 36.667 151.666 110 210.999
s129.666 89 168.999 89c33.333 0 107 -44.667 221 -134c114.667 89.333 188.667 134 222 134c39.333 0 95.333 -29.667 168 -89c73.333 -59.333 110 -129.666 110 -210.999v-1386z" />
    <glyph glyph-name="uni17b1" unicode="&#x17b1;" horiz-adv-x="1400" 
d="M160 1585l-0.000976562 75c0 34.667 21.667 72.334 65 113.001l66 61c94 82.667 230.333 124 409 124c198.667 0 358 -62.333 478 -187c48 -41.333 72 -94.333 72 -159s-42 -121 -126 -169c25.333 67.333 -4 143.666 -88 228.999s-196 128 -336 128
c-217.333 0 -336.666 -21.333 -357.999 -64s-32 -76 -32 -100c0 -33.333 45.667 -73.333 137 -120l-149 -61c-92 20.667 -138 64 -138 130zM379.999 1025v-75c37.333 0 56 16.667 56 50c0 16.667 -18.667 25 -56 25zM379.999 300c0 -68 15.1689 -115.001 45.502 -141.001
s85.166 -39 164.499 -39c78.667 0 147.667 12 207 36s133.666 81.667 222.999 173v271h180v-600c0 -113.333 -66.667 -170 -200 -170c-66.667 0 -100 33.333 -100 100c80 0 120 23.333 120 70v141c-62.667 -46 -123.334 -80.667 -182.001 -104
c-61.333 -24.667 -144 -37 -248 -37c-137.333 0 -234 21 -290 63c-66.667 49.333 -100 128.333 -100 237v267c546.667 208.667 820 369.667 820 483v150c0 120 -106.667 180 -320 180s-320 -60 -320 -180v-75c54.667 0 94.334 -10.333 119.001 -31
c24.667 -21.333 37 -52.666 37 -93.999c0 -100 -56 -150 -168 -150s-168 33.333 -168 100v250c0 200 166.667 300 500 300s500 -100 500 -300v-150c0 -160 -273.333 -340.667 -820 -542v-208z" />
    <glyph glyph-name="uni17b2" unicode="&#x17b2;" horiz-adv-x="1400" 
d="M1020 387c0 46.667 -1.33496 80.168 -4.00195 100.501s-40 33.166 -112 38.499c-6 -6 -12.667 -11.333 -20 -16l-199 -156c-44 -34.667 -82.833 -34.167 -116.5 1.5s-30.167 69.167 10.5 100.5l178 140c96.667 76 164.667 135 204 177s59 74 59 96
c0 33.333 -19 57.5 -57 72.5s-74 22.5 -108 22.5s-62 -7.33301 -84 -22c-22.667 -16 -34 -40.333 -34 -73c0 -38 37.667 -57 113 -57c-41.333 -56.667 -83.666 -85 -126.999 -85c-40.667 0 -74.667 12 -102 36c-26.667 23.333 -40 58.666 -40 105.999
c0 64.667 24.167 119.334 72.5 164.001s115.5 67 201.5 67c132.667 0 223.334 -22.167 272.001 -66.5s73 -99.166 73 -164.499c0 -34.667 -10.333 -71.334 -31 -110.001c-24.667 -47.333 -65 -98 -121 -152c44 -13.333 78.667 -34.333 104 -63c32 -38.667 48 -91 48 -157
v-87c0 -200 -166.667 -300 -500 -300s-500 100 -500 300v900c0 200 166.667 300 500 300s500 -100 500 -300h-180c0 120 -108.667 180 -326 180s-326 -60 -326 -180v-900c0 -120 108.667 -180 326 -180s326 60 326 180v87z" />
    <glyph glyph-name="uni17b3" unicode="&#x17b3;" horiz-adv-x="1400" 
d="M1250 1702c0 -124.667 -42.001 -211 -126.001 -259c18.667 67.333 -12.333 143.666 -93 228.999s-191 128 -331 128c-224 0 -346.667 -21.333 -368 -64s-32 -76 -32 -100c0 -33.333 45.667 -73.333 137 -120l-149 -71c-92 27.333 -138 74 -138 140v75
c0 34.667 21.667 72.334 65 113.001l66 61c94 82.667 233.667 124 419 124c162.667 0 299 -41.667 409 -125c4.66699 102.667 -24.666 176 -87.999 220l-47 33c-32 22 -36.333 50.333 -13 85c12.667 18 27.667 27 45 27c16 0 34 -7 54 -21l63 -45
c84.667 -60 127 -166.667 127 -320v-110zM379.999 1025v-75c37.333 0 56 16.667 56 50c0 16.667 -18.667 25 -56 25zM379.999 300c0 -68 15.1689 -115.001 45.502 -141.001s85.166 -39 164.499 -39c78.667 0 147.667 12 207 36s133.666 81.667 222.999 173v271h180v-600
c0 -113.333 -66.667 -170 -200 -170c-66.667 0 -100 33.333 -100 100c80 0 120 23.333 120 70v141c-62.667 -46 -123.334 -80.667 -182.001 -104c-61.333 -24.667 -144 -37 -248 -37c-137.333 0 -234 21 -290 63c-66.667 49.333 -100 128.333 -100 237v267
c546.667 208.667 820 369.667 820 483v150c0 120 -106.667 180 -320 180s-320 -60 -320 -180v-75c54.667 0 94.334 -10.333 119.001 -31c24.667 -21.333 37 -52.666 37 -93.999c0 -100 -56 -150 -168 -150s-168 33.333 -168 100v250c0 200 166.667 300 500 300
s500 -100 500 -300v-150c0 -160 -273.333 -340.667 -820 -542v-208z" />
    <glyph glyph-name="uni17b4" unicode="&#x17b4;" horiz-adv-x="180" 
d="M180 2000v-500h-180v500h180zM180 1050v-1050h-180v1050c-0 53.333 -50.167 111.666 -150.5 174.999s-173.5 95 -219.5 95c-42 0 -109 -39 -201 -117l-66 92c107.333 136.667 196.333 205 267 205c82 0 194.167 -42.833 336.5 -128.5s213.5 -192.834 213.5 -321.501z" />
    <glyph glyph-name="uni17b5" unicode="&#x17b5;" horiz-adv-x="180" 
d="M180 1050v-1050h-180v1050c-0 53.333 -50.167 111.666 -150.5 174.999s-173.5 95 -219.5 95c-42 0 -109 -39 -201 -117l-66 92c107.333 136.667 196.333 205 267 205c82 0 194.167 -42.833 336.5 -128.5s213.5 -192.834 213.5 -321.501z" />
    <glyph glyph-name="uni17b6" unicode="&#x17b6;" horiz-adv-x="580" 
d="M380 1050v-1050h-180v1050c0 53.333 -38.5 111.666 -115.5 174.999s-138.5 95 -184.5 95c-42 0 -109 -39 -201 -117l-66 92c107.333 136.667 196.333 205 267 205c82 0 182.5 -42.833 301.5 -128.5s178.5 -192.834 178.5 -321.501z" />
    <glyph glyph-name="uni17b7" unicode="&#x17b7;" 
d="M-1150 2150c0 166.667 100 250 300 250c173.333 0 345 -75 515 -225c56.667 -50 85 -91.667 85 -125s-33.333 -50 -100 -50h-600c-133.333 0 -200 50 -200 150zM-1000 2150c0 -33.333 16.668 -50 50.001 -50h520c-86.667 64.667 -159.834 105.834 -219.501 123.5
c-59.667 17.667 -126.5 26.5 -200.5 26.5c-100 0 -150 -33.333 -150 -100z" />
    <glyph glyph-name="uni17b8" unicode="&#x17b8;" 
d="M-1000 2150c0 -33.333 16.668 -50 50.001 -50h520c-86.667 64.667 -159.834 105.834 -219.501 123.5c-59.667 17.667 -126.5 26.5 -200.5 26.5c-100 0 -150 -33.333 -150 -100zM-383.999 2216l0.000976562 284h134v-450c0 -33.333 -33.333 -50 -100 -50h-600
c-133.333 0 -200 50 -200 150c0 166.667 100 250 300 250c157.333 0 312.666 -61.333 465.999 -184z" />
    <glyph glyph-name="uni17b9" unicode="&#x17b9;" 
d="M-1000 2150c0 -33.333 16.667 -50 50 -50h520c-96 56.667 -176.5 95.834 -241.5 117.5c-65 21.667 -131.167 32.5 -198.5 32.5c-86.667 0 -130 -33.333 -130 -100zM-646 2345l0.000976562 4c7.33301 50 27.333 87.667 60 113c33.333 25.333 78.666 38 135.999 38
c66.667 0 116.667 -16.667 150 -50s50 -83.333 50 -150c0 -76.667 -22 -131.334 -66 -164l-2 -2c45.333 -38 68 -66 68 -84c0 -33.333 -33.333 -50 -100 -50h-600c-133.333 0 -200 50 -200 150c0 166.667 93.333 250 280 250c72 0 146.667 -18.333 224 -55zM-528.999 2281
l49 -31c16 -10 31 -20 45 -30c43.333 5.33301 65 32 65 80c0 53.333 -26.667 80 -80 80s-80 -26.667 -80 -80c0 -4 0.333008 -10.333 1 -19z" />
    <glyph glyph-name="uni17ba" unicode="&#x17ba;" 
d="M-1000 2150c0 -33.333 16.668 -50 50.001 -50h520c-86.667 64.667 -159.834 105.834 -219.501 123.5c-59.667 17.667 -126.5 26.5 -200.5 26.5c-100 0 -150 -33.333 -150 -100zM-633.999 2361v139h134v-203c39.333 -23.333 78 -50.333 116 -81v284h134v-450
c0 -33.333 -33.333 -50 -100 -50h-600c-133.333 0 -200 50 -200 150c0 166.667 100 250 300 250c72.667 0 144.667 -13 216 -39z" />
    <glyph glyph-name="uni17bb" unicode="&#x17bb;" 
d="M-250 -650h-150v383c-33.333 12 -50 38.667 -50 80c0 58 33.333 87 100 87s100 -29 100 -87v-463z" />
    <glyph glyph-name="uni17bc" unicode="&#x17bc;" 
d="M-444 -650c-152.667 0 -229.001 56 -229.001 168c0 32 6.33301 68.333 19 109l50 137c-53.333 0 -80 30.333 -80 91c0 60 40 90 120 90c116 0 150 -75.667 102 -227l-41 -117c-25.333 -73.333 -5.66602 -110 59.001 -110s118 68.333 160 205c48 166 90 249 126 249
c16.667 0 25 -20.333 25 -61c0 -53.333 -12.667 -139 -38 -257c-38.667 -184.667 -129.667 -277 -273 -277z" />
    <glyph glyph-name="uni17bd" unicode="&#x17bd;" 
d="M-456 -531c-61.333 -79.333 -120.333 -119 -177 -119c-97.333 0 -146 40.667 -146 122c0 47.333 19.333 108 58 182l62 114c-56 0 -84 30.667 -84 92c0 60.667 40 91 120 91c66.667 0 110 -20.5 130 -61.5s11.333 -98.167 -26 -171.5l-60 -112
c-46 -88.667 -50.667 -133 -14 -133c34.667 0 99 59.333 193 178c14 -118.667 33 -178 57 -178c22 0 41 38 57 114c50 242.667 88 364 114 364s39 -29.667 39 -89c0 -60.667 -5.66699 -153 -17 -277c-24.667 -156.667 -75.667 -235 -153 -235
c-75.333 0 -126.333 39.667 -153 119z" />
    <glyph glyph-name="uni17be" unicode="&#x17be;" horiz-adv-x="2250" 
d="M1985 860c1.33301 -32 -17.667 -48.667 -57 -50c-38.667 -0.666992 -58.667 15.333 -60 48c0 32 19 48.333 57 49c40 0.666992 60 -15 60 -47zM1504 49c1.33301 -32.667 -17.999 -49.001 -57.999 -49.001c-38.667 0.666992 -58.334 16 -59.001 46
c0 32.667 19 49.334 57 50.001c39.333 0.666992 59.333 -15 60 -47zM1180 552.999c0.666992 -32 -18.332 -47.665 -56.999 -46.998c-38 -0.666992 -57.667 14.666 -59 45.999c-0.666992 31.333 17.666 47.333 54.999 48c40 1.33301 60.333 -14.334 61 -47.001zM1194 932.001
c1.33301 -31.333 -17.333 -47.333 -56 -48c-39.333 0 -59.333 15.667 -60 47s18 47.333 56 48c40 2 60 -13.667 60 -47zM1330 188.001c0.666992 -31.333 -18.666 -47.332 -57.999 -47.999c-38.667 -0.666992 -58.334 15 -59.001 47
c-0.666992 31.333 18.333 47.666 57 48.999c39.333 1.33301 59.333 -14.667 60 -48zM1614 1355c1.33301 -32 -17.667 -48.333 -57 -49c-38 -0.666992 -57.667 15 -59 47c0 32 18.667 48.333 56 49c40 0.666992 60 -15 60 -47zM1932 1045c0 -32 -19 -48 -57 -48
c-40 -0.666992 -60 14.666 -60 45.999c-1.33301 32.667 17.667 49.334 57 50.001c38.667 0.666992 58.667 -15.333 60 -48zM1229 366.002c1.33301 -32 -17.333 -48.333 -56 -49c-38.667 0 -58.667 15.667 -60 47c0 32 18.667 48.667 56 50c40 0.666992 60 -15.333 60 -48z
M1172 742.002c0 -31.333 -19.332 -47.333 -57.999 -48s-58.334 15 -59.001 47c-1.33301 32 17.667 48.333 57 49c38.667 1.33301 58.667 -14.667 60 -48zM1809 1237c1.33301 -31.333 -17.333 -47.332 -56 -47.999c-39.333 0 -59.333 15.667 -60 47
c0 31.333 18.667 47.666 56 48.999c40 1.33301 60 -14.667 60 -48zM2000.01 640.003v-2.00195c0 -30 -18.667 -45.333 -56 -46c-40 0.666992 -60.333 16.334 -61 47.001c-0.666992 32 18.333 48.667 57 50c39.333 0.666992 59.333 -15.666 60 -48.999zM1759.01 91.001
c0.666992 -32 -17.999 -48 -55.999 -48c-39.333 -1.33301 -59 14.334 -59 47.001c-1.33301 31.333 17.667 47.666 57 48.999c37.333 0 56.666 -16 57.999 -48zM1972.01 438.001c0.666992 -32 -18.333 -48.667 -57 -50c-38.667 0 -58.667 15.667 -60 47
c-0.666992 32 18.333 48.667 57 50c39.333 0.666992 59.333 -15 60 -47zM1895.01 253.001c1.33301 -32 -17.335 -47.668 -56.002 -47.001c-39.333 -0.666992 -59 14.666 -59 45.999c-1.33301 32.667 17.334 49.334 56.001 50.001s58.334 -15.666 59.001 -48.999z
M1395.01 1288c1.33301 -31.333 -17.667 -47.666 -57 -48.999c-38.667 0 -58.334 16 -59.001 48c0 31.333 19 47.666 57 48.999c38.667 0.666992 58.334 -15.333 59.001 -48zM1263.01 1119c1.33301 -32 -17.333 -48 -56 -48c-38 -1.33301 -57.667 13.667 -59 45
c-0.666992 32.667 18 49 56 49c39.333 1.33301 59 -14 59 -46zM1250.01 1794h500c-64.667 51.333 -124 84.5 -178 99.5s-111.333 22.5 -172 22.5c-100 0 -150 -40.667 -150 -122zM1866.01 1866l0.000976562 284h134v-450c0 -33.333 -33.333 -50 -100 -50h-650
c-96 0 -144 48 -144 144c0 170.667 98 256 294 256c157.333 0 312.666 -61.333 465.999 -184zM450.008 150c33.333 0 50 60 50 180c0 46.667 -16.667 70 -50 70v-250zM250.008 993c0 70.667 -66.665 116.67 -199.998 138.003c13.333 67.333 48.666 145.666 105.999 234.999
c56.667 89.333 103 134 139 134c29.333 0 67.666 -14.333 114.999 -43l70 -43c31.333 -19.333 71.333 -24 120 -14c-6.66699 -46.667 -22.334 -87.667 -47.001 -123c-25.333 -36 -54.333 -56 -87 -60c-33.333 -4.66699 -79.333 9 -138 41
c-59.333 31.333 -97.666 27.666 -114.999 -11.001l-27 -59c176 -38.667 264 -84.667 264 -138v-550c100 0 150 -56.667 150 -170c0 -86.667 -16.667 -163.334 -50 -230.001s-83.333 -100 -150 -100c-100 -0 -150 33.333 -150 100v893z" />
    <glyph glyph-name="uni17bf" unicode="&#x17bf;" horiz-adv-x="2850" 
d="M1401 49c1.33301 -32.667 -17.999 -49.001 -57.999 -49.001c-38.667 0.666992 -58.334 16 -59.001 46c0 32.667 19 49.334 57 50.001c39.333 0.666992 59.333 -15 60 -47zM1076 552.999c0.666992 -32 -18.667 -47.665 -58 -46.998
c-38 -0.666992 -57.667 14.666 -59 45.999c-0.666992 31.333 17.666 47.333 54.999 48c40.667 1.33301 61.334 -14.334 62.001 -47.001zM1090 932.001c1.33301 -31.333 -17.333 -47.333 -56 -48c-40 0 -60.333 15.667 -61 47s18 47.333 56 48c40.667 2 61 -13.667 61 -47z
M1227 188.001c0.666992 -31.333 -18.999 -47.332 -58.999 -47.999c-38.667 -0.666992 -58.334 15 -59.001 47c-0.666992 31.333 18.333 47.666 57 48.999c40 1.33301 60.333 -14.667 61 -48zM1125 366.002c1.33301 -32 -17.334 -48.333 -56.001 -49
c-39.333 0 -59.666 15.667 -60.999 47c0 32 19 48.667 57 50c40 0.666992 60 -15.333 60 -48zM1068 742.002c0 -31.333 -19.665 -47.333 -58.998 -48c-38.667 -0.666992 -58.334 15 -59.001 47c-1.33301 32 17.667 48.333 57 49c39.333 1.33301 59.666 -14.667 60.999 -48z
M1292 1288c1.33301 -31.333 -17.668 -47.666 -57.001 -48.999c-39.333 0 -59.333 16 -60 48c0 31.333 19.333 47.666 58 48.999c38.667 0.666992 58.334 -15.333 59.001 -48zM1159 1119c1.33301 -32 -17.333 -48 -56 -48c-38 -1.33301 -57.667 13.667 -59 45
c-0.666992 32.667 18 49 56 49c39.333 1.33301 59 -14 59 -46zM1512 1355c1.33301 -32 -17.667 -48.333 -57 -49c-38.667 -0.666992 -58.667 15 -60 47c0 32 19 48.333 57 49c40 0.666992 60 -15 60 -47zM450.004 150.002c33.333 0 50 60 50 180c0 46.667 -16.667 70 -50 70
v-250zM250.004 993.002c0 70.667 -66.665 116.67 -199.998 138.003c13.333 67.333 48.666 145.666 105.999 234.999c56.667 89.333 103 134 139 134c29.333 0 67.666 -14.333 114.999 -43l70 -43c31.333 -19.333 71.333 -24 120 -14
c-6.66699 -46.667 -22.334 -87.667 -47.001 -123c-25.333 -36 -54.333 -56 -87 -60c-33.333 -4.66699 -79.333 9 -138 41c-59.333 31.333 -97.666 27.666 -114.999 -11.001l-27 -59c176 -38.667 264 -84.667 264 -138v-550c100 0 150 -56.667 150 -170
c0 -86.667 -16.667 -163.334 -50 -230.001s-83.333 -100 -150 -100c-100 0 -150 33.333 -150 100v893zM1738.01 1994h500c-64.667 51.333 -124 84.5 -178 99.5s-111.333 22.5 -172 22.5c-100 0 -150 -40.667 -150 -122zM2600.01 -399.995
c0 -166.667 -150 -250.001 -450 -250.001s-450 83.333 -450 250v300h200v-300c0 -100 83.333 -150 250 -150s250 50 250 150v2100c0 100 -37.333 150 -112 150h-550c-96 0 -144 48 -144 144c0 170.667 98 256 294 256c72.667 0 144.667 -13 216 -39v189h134v-100l1 -153
c38.667 -23.333 77 -50.333 115 -81v284h134v-403c74.667 -47.333 112 -129.666 112 -246.999v-2100zM1832.01 1045c0 -32 -19.332 -48 -57.999 -48c-40 -0.666992 -60 14.666 -60 45.999c-1.33301 32.667 17.667 49.334 57 50.001s59.666 -15.333 60.999 -48zM1708.01 1237
c1.33301 -31.333 -17.333 -47.332 -56 -47.999c-40 0 -60.333 15.667 -61 47c0 31.333 19 47.666 57 48.999c40 1.33301 60 -14.667 60 -48zM1900.01 640.005l0.00195312 -2.00195c0 -30 -18.667 -45.333 -56 -46c-40.667 0.666992 -61.334 16.334 -62.001 47.001
c-0.666992 32 18.666 48.667 57.999 50c39.333 0.666992 59.333 -15.666 60 -48.999zM1658.01 91.0029c0.666992 -32 -18.333 -48 -57 -48c-39.333 -1.33301 -59 14.334 -59 47.001c-1.33301 31.333 17.667 47.666 57 48.999c38 0 57.667 -16 59 -48zM1872.01 438.003
c0.666992 -32 -18.333 -48.667 -57 -50c-39.333 0 -59.666 15.667 -60.999 47c-0.666992 32 18.666 48.667 57.999 50c39.333 0.666992 59.333 -15 60 -47zM1795.01 253.003c1.33301 -32 -17.668 -47.668 -57.001 -47.001c-39.333 -0.666992 -59 14.666 -59 45.999
c-1.33301 32.667 17.334 49.334 56.001 50.001c39.333 0.666992 59.333 -15.666 60 -48.999zM1885.01 860.002c1.33301 -32 -17.668 -48.667 -57.001 -50c-39.333 -0.666992 -59.666 15.333 -60.999 48c0 32 19.333 48.333 58 49c40 0.666992 60 -15 60 -47z" />
    <glyph glyph-name="uni17c0" unicode="&#x17c0;" horiz-adv-x="2850" 
d="M1401 49c1.33301 -32.667 -17.999 -49.001 -57.999 -49.001c-38.667 0.666992 -58.334 16 -59.001 46c0 32.667 19 49.334 57 50.001c39.333 0.666992 59.333 -15 60 -47zM1076 552.999c0.666992 -32 -18.667 -47.665 -58 -46.998
c-38 -0.666992 -57.667 14.666 -59 45.999c-0.666992 31.333 17.666 47.333 54.999 48c40.667 1.33301 61.334 -14.334 62.001 -47.001zM1090 932.001c1.33301 -31.333 -17.333 -47.333 -56 -48c-40 0 -60.333 15.667 -61 47s18 47.333 56 48c40.667 2 61 -13.667 61 -47z
M1227 188.001c0.666992 -31.333 -18.999 -47.332 -58.999 -47.999c-38.667 -0.666992 -58.334 15 -59.001 47c-0.666992 31.333 18.333 47.666 57 48.999c40 1.33301 60.333 -14.667 61 -48zM1125 366.002c1.33301 -32 -17.334 -48.333 -56.001 -49
c-39.333 0 -59.666 15.667 -60.999 47c0 32 19 48.667 57 50c40 0.666992 60 -15.333 60 -48zM1068 742.002c0 -31.333 -19.665 -47.333 -58.998 -48c-38.667 -0.666992 -58.334 15 -59.001 47c-1.33301 32 17.667 48.333 57 49c39.333 1.33301 59.666 -14.667 60.999 -48z
M1292 1288c1.33301 -31.333 -17.668 -47.666 -57.001 -48.999c-39.333 0 -59.333 16 -60 48c0 31.333 19.333 47.666 58 48.999c38.667 0.666992 58.334 -15.333 59.001 -48zM1159 1119c1.33301 -32 -17.333 -48 -56 -48c-38 -1.33301 -57.667 13.667 -59 45
c-0.666992 32.667 18 49 56 49c39.333 1.33301 59 -14 59 -46zM450.004 150.002c33.333 0 50 60 50 180c0 46.667 -16.667 70 -50 70v-250zM250.004 993.002c0 70.667 -66.665 116.67 -199.998 138.003c13.333 67.333 48.666 145.666 105.999 234.999
c56.667 89.333 103 134 139 134c29.333 0 67.666 -14.333 114.999 -43l70 -43c31.333 -19.333 71.333 -24 120 -14c-6.66699 -46.667 -22.334 -87.667 -47.001 -123c-25.333 -36 -54.333 -56 -87 -60c-33.333 -4.66699 -79.333 9 -138 41
c-59.333 31.333 -97.666 27.666 -114.999 -11.001l-27 -59c176 -38.667 264 -84.667 264 -138v-550c100 0 150 -56.667 150 -170c0 -86.667 -16.667 -163.334 -50 -230.001s-83.333 -100 -150 -100c-100 0 -150 33.333 -150 100v893zM2400.01 1640
c0 206.667 -79.999 310.001 -239.999 310.001c-106.667 0 -180.334 -24.333 -221.001 -73s-75 -74.334 -103 -77.001c-27.333 -2.66699 -56.333 7.33301 -87 30c-59.333 50 -89 113.667 -89 191c0 43.333 6.66699 87.5 20 132.5s20 90.833 20 137.5s-30 70 -90 70
c0 66.667 33.333 100 100 100c126.667 0 190 -56.667 190 -170c0 -56.667 -8.66699 -104.167 -26 -142.5s-26 -80.833 -26 -127.5v-43c88 48 192 72 312 72c293.333 0 440 -136.667 440 -410v-2040c0 -166.667 -150 -250 -450 -250s-450 83.333 -450 250v300h200v-300
c0 -100 83.333 -150 250 -150s250 50 250 150v2040zM1512.01 1355.01c1.33301 -32 -17.667 -48.333 -57 -49c-38.667 -0.666992 -58.667 15 -60 47c0 32 19 48.333 57 49c40 0.666992 60 -15 60 -47zM1832.01 1045.01c0 -32 -19.332 -48 -57.999 -48
c-40 -0.666992 -60 14.666 -60 45.999c-1.33301 32.667 17.667 49.334 57 50.001s59.666 -15.333 60.999 -48zM1708.01 1237.01c1.33301 -31.333 -17.333 -47.332 -56 -47.999c-40 0 -60.333 15.667 -61 47c0 31.333 19 47.666 57 48.999c40 1.33301 60 -14.667 60 -48z
M1900.01 640.007l0.00195312 -2.00195c0 -30 -18.667 -45.333 -56 -46c-40.667 0.666992 -61.334 16.334 -62.001 47.001c-0.666992 32 18.666 48.667 57.999 50c39.333 0.666992 59.333 -15.666 60 -48.999zM1658.01 91.0049c0.666992 -32 -18.333 -48 -57 -48
c-39.333 -1.33301 -59 14.334 -59 47.001c-1.33301 31.333 17.667 47.666 57 48.999c38 0 57.667 -16 59 -48zM1872.01 438.005c0.666992 -32 -18.333 -48.667 -57 -50c-39.333 0 -59.666 15.667 -60.999 47c-0.666992 32 18.666 48.667 57.999 50
c39.333 0.666992 59.333 -15 60 -47zM1795.01 253.005c1.33301 -32 -17.668 -47.668 -57.001 -47.001c-39.333 -0.666992 -59 14.666 -59 45.999c-1.33301 32.667 17.334 49.334 56.001 50.001c39.333 0.666992 59.333 -15.666 60 -48.999zM1885.01 860.004
c1.33301 -32 -17.668 -48.667 -57.001 -50c-39.333 -0.666992 -59.666 15.333 -60.999 48c0 32 19.333 48.333 58 49c40 0.666992 60 -15 60 -47z" />
    <glyph glyph-name="uni17c1" unicode="&#x17c1;" horiz-adv-x="580" 
d="M380 150c40 0 60 50 60 150c0 66.667 -20 100 -60 100v-250zM200 963c0 70.667 -66.667 126.673 -200 168.006c13.333 67.333 45.166 145.666 95.499 234.999s93.5 134 129.5 134c29.333 0 67.666 -14.333 114.999 -43l70 -43c31.333 -19.333 71.333 -24 120 -14
c-6.66699 -46.667 -20.167 -84.834 -40.5 -114.501s-47.666 -46.334 -81.999 -50.001s-82.666 13.666 -144.999 51.999s-114.5 5.16602 -156.5 -99.501c182.667 -58.667 274 -114.667 274 -168v-520c106.667 0 160 -66.667 160 -200
c0 -66.667 -17.5 -133.334 -52.5 -200.001s-87.5 -100 -157.5 -100c-86.667 -0 -130 33.333 -130 100v863z" />
    <glyph glyph-name="uni17c2" unicode="&#x17c2;" horiz-adv-x="580" 
d="M380 150c40 0 60 50 60 150c0 66.667 -20 100 -60 100v-250zM200 963c0 70.667 -66.667 126.673 -200 168.006c13.333 67.333 45.166 145.666 95.499 234.999s93.5 134 129.5 134c29.333 0 67.666 -14.333 114.999 -43l70 -43c31.333 -19.333 71.333 -24 120 -14
c-6.66699 -46.667 -20.167 -84.834 -40.5 -114.501s-47.666 -46.334 -81.999 -50.001s-82.666 13.666 -144.999 51.999s-114.5 5.16602 -156.5 -99.501c182.667 -58.667 274 -114.667 274 -168v-520c106.667 0 160 -66.667 160 -200
c0 -66.667 -17.5 -133.334 -52.5 -200.001s-87.5 -100 -157.5 -100c-86.667 -0 -130 33.333 -130 100v863zM220 1800.01c-36.667 0 -55 -8.33301 -55 -25s28.333 -25 85 -25c44.667 0 81 16 109 48c27.333 31.333 41 72 41 122c0 36.667 -10 67.667 -30 93
c-20 24.667 -46.667 37 -80 37c-60 0 -90 25 -90 75s30 75 90 75c74.667 0 136.667 -24 186 -72c49.333 -48.667 74 -118 74 -208c0 -70 -24 -132.333 -72 -187c-48.667 -55.333 -124.667 -83 -228 -83c-74.667 0 -135 10.333 -181 31s-69 52 -69 94s9.33301 73.333 28 94
c18 20.667 45.333 31 82 31s64 -8.33301 82 -25c18.667 -16.667 28 -41.667 28 -75z" />
    <glyph glyph-name="uni17c3" unicode="&#x17c3;" horiz-adv-x="580" 
d="M380 150c40 0 60 50 60 150c0 66.667 -20 100 -60 100v-250zM200 963c0 70.667 -66.667 126.673 -200 168.006c13.333 67.333 45.166 145.666 95.499 234.999s93.5 134 129.5 134c29.333 0 67.666 -14.333 114.999 -43l70 -43c31.333 -19.333 71.333 -24 120 -14
c-6.66699 -46.667 -20.167 -84.834 -40.5 -114.501s-47.666 -46.334 -81.999 -50.001s-82.666 13.666 -144.999 51.999s-114.5 5.16602 -156.5 -99.501c182.667 -58.667 274 -114.667 274 -168v-520c106.667 0 160 -66.667 160 -200
c0 -66.667 -17.5 -133.334 -52.5 -200.001s-87.5 -100 -157.5 -100c-86.667 -0 -130 33.333 -130 100v863zM250 1800.01c0 -33.333 16.667 -50.001 50 -50.001s58.333 8.33301 75 25s25 41.667 25 75c0 46.667 -8.33301 78.334 -25 95.001s-41.667 25 -75 25h-50
c-100 0 -150 33.333 -150 100c0 53.333 -33.333 80 -100 80c-0 66.667 33.333 100 100 100c52 0 90 -15 114 -45s36 -75 36 -135h50c92 0 156.667 -16.667 194 -50s56 -90 56 -170c0 -66.667 -18.667 -116.667 -56 -150s-102 -50 -194 -50c-133.333 0 -200 46.667 -200 140
c0 53.333 25 80 75 80s75 -23.333 75 -70z" />
    <glyph glyph-name="uni17c4" unicode="&#x17c4;" horiz-adv-x="2850" 
d="M1401 49c1.33301 -32.667 -17.999 -49.001 -57.999 -49.001c-38.667 0.666992 -58.334 16 -59.001 46c0 32.667 19 49.334 57 50.001c39.333 0.666992 59.333 -15 60 -47zM1076 552.999c0.666992 -32 -18.667 -47.665 -58 -46.998
c-38 -0.666992 -57.667 14.666 -59 45.999c-0.666992 31.333 17.666 47.333 54.999 48c40.667 1.33301 61.334 -14.334 62.001 -47.001zM1090 932.001c1.33301 -31.333 -17.333 -47.333 -56 -48c-40 0 -60.333 15.667 -61 47s18 47.333 56 48c40.667 2 61 -13.667 61 -47z
M1227 188.001c0.666992 -31.333 -18.999 -47.332 -58.999 -47.999c-38.667 -0.666992 -58.334 15 -59.001 47c-0.666992 31.333 18.333 47.666 57 48.999c40 1.33301 60.333 -14.667 61 -48zM1125 366.002c1.33301 -32 -17.334 -48.333 -56.001 -49
c-39.333 0 -59.666 15.667 -60.999 47c0 32 19 48.667 57 50c40 0.666992 60 -15.333 60 -48zM1068 742.002c0 -31.333 -19.665 -47.333 -58.998 -48c-38.667 -0.666992 -58.334 15 -59.001 47c-1.33301 32 17.667 48.333 57 49c39.333 1.33301 59.666 -14.667 60.999 -48z
M1292 1288c1.33301 -31.333 -17.668 -47.666 -57.001 -48.999c-39.333 0 -59.333 16 -60 48c0 31.333 19.333 47.666 58 48.999c38.667 0.666992 58.334 -15.333 59.001 -48zM1159 1119c1.33301 -32 -17.333 -48 -56 -48c-38 -1.33301 -57.667 13.667 -59 45
c-0.666992 32.667 18 49 56 49c39.333 1.33301 59 -14 59 -46zM450.004 150.002c33.333 0 50 60 50 180c0 46.667 -16.667 70 -50 70v-250zM250.004 993.002c0 70.667 -66.665 116.67 -199.998 138.003c13.333 67.333 48.666 145.666 105.999 234.999
c56.667 89.333 103 134 139 134c29.333 0 67.666 -14.333 114.999 -43l70 -43c31.333 -19.333 71.333 -24 120 -14c-6.66699 -46.667 -22.334 -87.667 -47.001 -123c-25.333 -36 -54.333 -56 -87 -60c-33.333 -4.66699 -79.333 9 -138 41
c-59.333 31.333 -97.666 27.666 -114.999 -11.001l-27 -59c176 -38.667 264 -84.667 264 -138v-550c100 0 150 -56.667 150 -170c0 -86.667 -16.667 -163.334 -50 -230.001s-83.333 -100 -150 -100c-100 0 -150 33.333 -150 100v893zM1512.01 1355
c1.33301 -32 -17.667 -48.333 -57 -49c-38.667 -0.666992 -58.667 15 -60 47c0 32 19 48.333 57 49c40 0.666992 60 -15 60 -47zM1832.01 1045c0 -32 -19.332 -48 -57.999 -48c-40 -0.666992 -60 14.666 -60 45.999c-1.33301 32.667 17.667 49.334 57 50.001
s59.666 -15.333 60.999 -48zM1708.01 1237c1.33301 -31.333 -17.333 -47.332 -56 -47.999c-40 0 -60.333 15.667 -61 47c0 31.333 19 47.666 57 48.999c40 1.33301 60 -14.667 60 -48zM1900.01 640.006l0.00195312 -2.00195c0 -30 -18.667 -45.333 -56 -46
c-40.667 0.666992 -61.334 16.334 -62.001 47.001c-0.666992 32 18.666 48.667 57.999 50c39.333 0.666992 59.333 -15.666 60 -48.999zM1658.01 91.0039c0.666992 -32 -18.333 -48 -57 -48c-39.333 -1.33301 -59 14.334 -59 47.001
c-1.33301 31.333 17.667 47.666 57 48.999c38 0 57.667 -16 59 -48zM1872.01 438.004c0.666992 -32 -18.333 -48.667 -57 -50c-39.333 0 -59.666 15.667 -60.999 47c-0.666992 32 18.666 48.667 57.999 50c39.333 0.666992 59.333 -15 60 -47zM1795.01 253.004
c1.33301 -32 -17.668 -47.668 -57.001 -47.001c-39.333 -0.666992 -59 14.666 -59 45.999c-1.33301 32.667 17.334 49.334 56.001 50.001c39.333 0.666992 59.333 -15.666 60 -48.999zM1885.01 860.003c1.33301 -32 -17.668 -48.667 -57.001 -50
c-39.333 -0.666992 -59.666 15.333 -60.999 48c0 32 19.333 48.333 58 49c40 0.666992 60 -15 60 -47zM2600.01 1050v-1050h-200v1050c0 53.333 -20.667 92.333 -62 117l-144 87c-50 30.667 -98 46 -144 46c-42 0 -109 -32.333 -201 -97l-66 92
c107.333 136.667 196.333 205 267 205c82 0 158.667 -21.333 230 -64l160 -97c106.667 -64 160 -160.333 160 -289z" />
    <glyph glyph-name="uni17c5" unicode="&#x17c5;" horiz-adv-x="2850" 
d="M450 150c33.333 0 50 60 50 180c0 46.667 -16.667 70 -50 70v-250zM1401 49c1.33301 -32.667 -17.999 -49.001 -57.999 -49.001c-38.667 0.666992 -58.334 16 -59.001 46c0 32.667 19 49.334 57 50.001c39.333 0.666992 59.333 -15 60 -47zM2450 1333v367
c0 66.667 -33.333 100 -100 100c0 66.667 41.667 100 125 100c116.667 0 175 -66.667 175 -200v-300c0 -56.667 -22.667 -134 -68 -232c12 -36 18 -75.333 18 -118v-1050h-200v1050c0 53.333 -20.667 92.333 -62 117l-144 87c-50 30.667 -98 46 -144 46
c-42 0 -109 -32.333 -201 -97l-66 92c107.333 136.667 196.333 205 267 205c82 0 158.667 -21.333 230 -64l160 -97zM1885 859.999c1.33301 -32 -17.668 -48.667 -57.001 -50c-39.333 -0.666992 -59.666 15.333 -60.999 48c0 32 19.333 48.333 58 49
c40 0.666992 60 -15 60 -47zM1795 252.999c1.33301 -32 -17.668 -47.668 -57.001 -47.001c-39.333 -0.666992 -59 14.666 -59 45.999c-1.33301 32.667 17.334 49.334 56.001 50.001c39.333 0.666992 59.333 -15.666 60 -48.999zM1872 437.998
c0.666992 -32 -18.333 -48.667 -57 -50c-39.333 0 -59.666 15.667 -60.999 47c-0.666992 32 18.666 48.667 57.999 50c39.333 0.666992 59.333 -15 60 -47zM1658 90.998c0.666992 -32 -18.333 -48 -57 -48c-39.333 -1.33301 -59 14.334 -59 47.001
c-1.33301 31.333 17.667 47.666 57 48.999c38 0 57.667 -16 59 -48zM1900 639.998l0.00195312 -2.00195c0 -30 -18.667 -45.333 -56 -46c-40.667 0.666992 -61.334 16.334 -62.001 47.001c-0.666992 32 18.666 48.667 57.999 50c39.333 0.666992 59.333 -15.666 60 -48.999z
M1708 1237c1.33301 -31.333 -17.333 -47.332 -56 -47.999c-40 0 -60.333 15.667 -61 47c0 31.333 19 47.666 57 48.999c40 1.33301 60 -14.667 60 -48zM1832 1045c0 -32 -19.332 -48 -57.999 -48c-40 -0.666992 -60 14.666 -60 45.999
c-1.33301 32.667 17.667 49.334 57 50.001s59.666 -15.333 60.999 -48zM1512 1355c1.33301 -32 -17.667 -48.333 -57 -49c-38.667 -0.666992 -58.667 15 -60 47c0 32 19 48.333 57 49c40 0.666992 60 -15 60 -47zM250.003 992.997c0 70.667 -66.665 116.67 -199.998 138.003
c13.333 67.333 48.666 145.666 105.999 234.999c56.667 89.333 103 134 139 134c29.333 0 67.666 -14.333 114.999 -43l70 -43c31.333 -19.333 71.333 -24 120 -14c-6.66699 -46.667 -22.334 -87.667 -47.001 -123c-25.333 -36 -54.333 -56 -87 -60
c-33.333 -4.66699 -79.333 9 -138 41c-59.333 31.333 -97.666 27.666 -114.999 -11.001l-27 -59c176 -38.667 264 -84.667 264 -138v-550c100 0 150 -56.667 150 -170c0 -86.667 -16.667 -163.334 -50 -230.001s-83.333 -100 -150 -100c-100 0 -150 33.333 -150 100v893z
M1159 1119c1.33301 -32 -17.333 -48 -56 -48c-38 -1.33301 -57.667 13.667 -59 45c-0.666992 32.667 18 49 56 49c39.333 1.33301 59 -14 59 -46zM1292.01 1288c1.33301 -31.333 -17.668 -47.666 -57.001 -48.999c-39.333 0 -59.333 16 -60 48
c0 31.333 19.333 47.666 58 48.999c38.667 0.666992 58.334 -15.333 59.001 -48zM1068 742c0 -31.333 -19.665 -47.333 -58.998 -48c-38.667 -0.666992 -58.334 15 -59.001 47c-1.33301 32 17.667 48.333 57 49c39.333 1.33301 59.666 -14.667 60.999 -48zM1125.01 366
c1.33301 -32 -17.334 -48.333 -56.001 -49c-39.333 0 -59.666 15.667 -60.999 47c0 32 19 48.667 57 50c40 0.666992 60 -15.333 60 -48zM1227.01 188c0.666992 -31.333 -18.999 -47.332 -58.999 -47.999c-38.667 -0.666992 -58.334 15 -59.001 47
c-0.666992 31.333 18.333 47.666 57 48.999c40 1.33301 60.333 -14.667 61 -48zM1090.01 932.001c1.33301 -31.333 -17.333 -47.333 -56 -48c-40 0 -60.333 15.667 -61 47s18 47.333 56 48c40.667 2 61 -13.667 61 -47zM1076.01 553.001
c0.666992 -32 -18.667 -47.665 -58 -46.998c-38 -0.666992 -57.667 14.666 -59 45.999c-0.666992 31.333 17.666 47.333 54.999 48c40.667 1.33301 61.334 -14.334 62.001 -47.001z" />
    <glyph glyph-name="uni17c6" unicode="&#x17c6;" 
d="M-780 1875c0 -33.333 6.66699 -58.333 20 -75s33.333 -25 60 -25s46.667 8.33301 60 25s20 41.667 20 75s-6.66699 58.333 -20 75s-33.333 25 -60 25s-46.667 -8.33301 -60 -25s-20 -41.667 -20 -75zM-475 1875c0 -75.333 -18.667 -131.666 -56 -168.999
s-93.666 -56 -168.999 -56s-131.666 18.667 -168.999 56s-56 93.666 -56 168.999s18.667 131.666 56 168.999s93.666 56 168.999 56s131.666 -18.667 168.999 -56s56 -93.666 56 -168.999z" />
    <glyph glyph-name="uni17c7" unicode="&#x17c7;" horiz-adv-x="850" 
d="M345 1225c0 -33.333 6.66699 -58.333 20 -75s33.333 -25 60 -25s46.667 8.33301 60 25s20 41.667 20 75s-6.66699 58.333 -20 75s-33.333 25 -60 25s-46.667 -8.33301 -60 -25s-20 -41.667 -20 -75zM650 1225c0 -75.333 -18.667 -131.666 -56 -168.999
s-93.666 -56 -168.999 -56s-131.666 18.667 -168.999 56s-56 93.666 -56 168.999s18.667 131.666 56 168.999s93.666 56 168.999 56s131.666 -18.667 168.999 -56s56 -93.666 56 -168.999zM345 275c0 -33.333 6.66699 -58.333 20 -75s33.333 -25 60 -25
s46.667 8.33301 60 25s20 41.667 20 75s-6.66699 58.333 -20 75s-33.333 25 -60 25s-46.667 -8.33301 -60 -25s-20 -41.667 -20 -75zM650 275c0 -75.333 -18.667 -131.666 -56 -168.999s-93.666 -56 -168.999 -56s-131.666 18.667 -168.999 56s-56 93.666 -56 168.999
s18.667 131.666 56 168.999s93.666 56 168.999 56s131.666 -18.667 168.999 -56s56 -93.666 56 -168.999z" />
    <glyph glyph-name="uni17c8" unicode="&#x17c8;" horiz-adv-x="750" 
d="M325 150c-42 0 -73.333 10.333 -94 31s-31 52 -31 94s10.333 73.333 31 94s52 31 94 31s73.333 -10.667 94 -32c20.667 -20.667 31 -52 31 -94c0 -20 8.33301 -30 25 -30s41.667 10 75 30c-16.667 -41.333 -43.667 -72.333 -81 -93c-38 -20.667 -86 -31 -144 -31z
M325 1098c-42 0 -73.333 10.333 -94 31s-31 52 -31 94s10.333 73.333 31 94s52 31 94 31s73.333 -10.667 94 -32c20.667 -20.667 31 -52 31 -94c0 -20 8.33301 -30 25 -30s41.667 10 75 30c-16.667 -41.333 -43.667 -72.333 -81 -93c-38 -20.667 -86 -31 -144 -31z" />
    <glyph glyph-name="uni17c9" unicode="&#x17c9;" 
d="M-780 2100v-340c0 -53.333 -27.333 -90 -82 -110c-55.333 20 -83 56.667 -83 110v340h165zM-455 2100v-340c0 -53.333 -27.333 -90 -82 -110c-55.333 20 -83 56.667 -83 110v340h165z" />
    <glyph glyph-name="uni17ca" unicode="&#x17ca;" 
d="M-1156 1610c-79.333 26.667 -118.998 58.332 -118.998 94.999c0 24.667 21.667 51.334 65 80.001l66 43c87.333 58.667 141.666 88 162.999 88c22.667 0 71 -26.333 145 -79l56 -40c18 -13.333 36.333 -20 55 -20c16.667 0 33.667 6.66699 51 20l50 40
c67.333 52.667 113 79 137 79c23.333 0 54 -14.667 92 -44l114 -88c37.333 -29.333 89.333 -34 156 -14c-66.667 -78.667 -121.667 -118 -165 -118c-44 0 -78 9.33301 -102 28l-73 57c-24.667 19.333 -51.334 29 -80.001 29s-65.667 -19 -111 -57
c-46 -38 -82.333 -57 -109 -57c-44.667 0 -80.667 9.33301 -108 28l-81 57c-27.333 19.333 -55.333 29 -84 29c-22 0 -42 -7 -60 -21s-27 -29.667 -27 -47c0 -16 24.667 -34 74 -54z" />
    <glyph glyph-name="uni17cb" unicode="&#x17cb;" 
d="M-615 2150v-380c0 -60 -28.333 -100 -85 -120c-56.667 20 -85 60 -85 120v380h170z" />
    <glyph glyph-name="uni17cc" unicode="&#x17cc;" 
d="M-776 1766c-28.667 -12.667 -63.334 -34.999 -104.001 -66.999c-40.667 -32.667 -73.667 -49 -99 -49c-21.333 0 -38.666 9 -51.999 27c-8.66699 12.667 -13 25.334 -13 38.001c0 40.667 21.333 76 64 106l94 64c94.667 64.667 152.5 122 173.5 172s31.5 89.333 31.5 118
c0 66.667 28.333 100 85 100c56 0 84 -33.333 84 -100c-0.666992 -48.667 -11.667 -92.334 -33 -131.001s-78 -94.667 -170 -168c69.333 25.333 133 31.666 191 18.999s107.333 -49.667 148 -111c13.333 -23.333 20 -44 20 -62c0 -25.333 -12.667 -45 -38 -59
c-14 -8.66699 -27.667 -13 -41 -13c-25.333 0 -48 16.667 -68 50c-29.333 50 -66.666 78.333 -111.999 85c-78.667 0 -132.334 -6.33301 -161.001 -19z" />
    <glyph glyph-name="uni17cd" unicode="&#x17cd;" 
d="M-805 1826c0 -25.333 4 -43.999 12 -55.999c8.66699 -12.667 24.667 -19 48 -19c33.333 0 50 6 50 18c0 20.667 23.333 31 70 31s70 -10.333 70 -31c0 -39.333 -14.667 -69 -44 -89s-76.333 -30 -141 -30c-84.667 0 -141.667 14.667 -171 44s-44 73 -44 131
c0 51.333 15 96.666 45 135.999s88.333 59 175 59c84.667 0 143 -19.667 175 -59c50.667 16.667 97.667 39.667 141 69c42.667 28.667 78 67 106 115l11 2c12.667 0 26.667 -9.66699 42 -29c10 -13.333 15 -24.666 15 -33.999s-4 -17.333 -12 -24
c-30 -42 -65 -79.667 -105 -113c-40.667 -32.667 -86 -61.334 -136 -86.001c-24 -7.33301 -47.333 -11 -70 -11c-49.333 46.667 -95 70 -137 70c-30 0 -54 -9.33301 -72 -28c-18.667 -19.333 -28 -41.333 -28 -66z" />
    <glyph glyph-name="uni17ce" unicode="&#x17ce;" 
d="M-760 1799h-150v121h150v149h120v-149h150v-121h-150v-149h-120v149z" />
    <glyph glyph-name="uni17cf" unicode="&#x17cf;" 
d="M-480 2300c66 0 99 -25 99 -75s-33 -75 -99 -75c-23.333 0 -50.666 -33.333 -81.999 -100l-16 -50h-102c-140 0 -210 -50 -210 -150c0 -66.667 13.333 -100 40 -100s76.667 45.333 150 136c73.333 -90.667 126.666 -136 159.999 -136c20 0 30 16.667 30 50
s-16.667 50 -50 50c0 66.667 33.333 100 100 100s100 -50 100 -150s-58.333 -150 -175 -150c-63.333 0 -118.333 33.333 -165 100c-46.667 -66.667 -98.334 -100 -155.001 -100c-123.333 0 -185 66.667 -185 200c0 166.667 120 250 360 250
c48.667 133.333 115.334 200 200.001 200z" />
    <glyph glyph-name="uni17d0" unicode="&#x17d0;" 
d="M-730 2000c86.667 0 130 -35 130 -105c0 -63.333 -25 -95 -75 -95c-43.333 0 -68.333 16.667 -75 50c0 -66 33.333 -99 100 -99c116.667 0 196 17.667 238 53c41.333 35.333 62 88.333 62 159c0 80 -16.667 120 -50 120s-50 16.667 -50 50s16.667 50 50 50
c50 0 96 -18.333 138 -55c41.333 -36.667 62 -91.667 62 -165c0 -104.667 -37.333 -183 -112 -235c-75.333 -52 -188 -78 -338 -78c-83.333 0 -146 16.667 -188 50c-41.333 33.333 -62 83.333 -62 150c0 100 56.667 150 170 150z" />
    <glyph glyph-name="uni17d1" unicode="&#x17d1;" 
d="M-225 1800v-150h-950v150h950z" />
    <glyph glyph-name="uni17d2" unicode="&#x17d2;" 
d="M-500 -450h-150v-150h-100v150h-150v100h150v150h100v-150h150v-100z" />
    <glyph glyph-name="uni17d3" unicode="&#x17d3;" 
d="M-850 1850c0 -33.333 12.333 -58.333 37 -75c25.333 -16.667 63 -25 113 -25s87.667 8.33301 113 25c24.667 16.667 37 41.667 37 75s-12.333 58.333 -37 75c-25.333 16.667 -63 25 -113 25s-87.667 -8.33301 -113 -25c-24.667 -16.667 -37 -41.667 -37 -75zM-450 1850
c0 -66.667 -21 -116.667 -63 -150c-41.333 -33.333 -103.666 -50 -186.999 -50s-145.666 16.667 -186.999 50c-42 33.333 -63 83.333 -63 150s21 116.667 63 150c41.333 33.333 103.666 50 186.999 50s145.666 -16.667 186.999 -50c42 -33.333 63 -83.333 63 -150z" />
    <glyph glyph-name="uni17d4" unicode="&#x17d4;" horiz-adv-x="1430" 
d="M1050 1392l0.00195312 108h180v-1295c0 -78 -20.833 -131.667 -62.5 -161s-94.167 -44 -157.5 -44c-36.667 -0 -64 8.33301 -82 25c-18.667 16.667 -28 42 -28 76c42 0 77.5 6.16699 106.5 18.5s43.5 40.833 43.5 85.5v1016l-134 -70
c-182.667 -100.667 -331.334 -151 -446.001 -151c-180 0 -270 83.333 -270 250s90 250 270 250c66.667 0 100 -25 100 -75s-33.333 -75 -100 -75c-60 0 -90 -33.333 -90 -100s30 -100 90 -100c85.333 0 210.666 44.333 375.999 133z" />
    <glyph glyph-name="uni17d5" unicode="&#x17d5;" horiz-adv-x="1750" 
d="M1400 1500h150v-1350c0 -50 -20.667 -87.333 -62 -112c-42 -25.333 -104.667 -38 -188 -38c33.333 16.667 58.333 37.334 75 62.001c16.667 25.333 25 54.666 25 87.999v1350zM1050 1392l0.00195312 108h180v-1295c0 -78 -20.833 -131.667 -62.5 -161
s-94.167 -44 -157.5 -44c-36.667 -0 -64 8.33301 -82 25c-18.667 16.667 -28 42 -28 76c42 0 77.5 6.16699 106.5 18.5s43.5 40.833 43.5 85.5v1016l-134 -70c-182.667 -100.667 -331.334 -151 -446.001 -151c-180 0 -270 83.333 -270 250s90 250 270 250
c66.667 0 100 -25 100 -75s-33.333 -75 -100 -75c-60 0 -90 -33.333 -90 -100s30 -100 90 -100c85.333 0 210.666 44.333 375.999 133z" />
    <glyph glyph-name="uni17d6" unicode="&#x17d6;" horiz-adv-x="1050" 
d="M425 1225c0 -33.333 8.33301 -58.333 25 -75s41.667 -25 75 -25s58.333 8.33301 75 25s25 41.667 25 75s-8.33301 58.333 -25 75s-41.667 25 -75 25s-58.333 -8.33301 -75 -25s-25 -41.667 -25 -75zM750 1225c0 -75.333 -18.667 -131.666 -56 -168.999
s-93.666 -56 -168.999 -56s-131.666 18.667 -168.999 56s-56 93.666 -56 168.999s18.667 131.666 56 168.999s93.666 56 168.999 56s131.666 -18.667 168.999 -56s56 -93.666 56 -168.999zM425 275c0 -33.333 8.33301 -58.333 25 -75s41.667 -25 75 -25
s58.333 8.33301 75 25s25 41.667 25 75s-8.33301 58.333 -25 75s-41.667 25 -75 25s-58.333 -8.33301 -75 -25s-25 -41.667 -25 -75zM750 275c0 -75.333 -18.667 -131.666 -56 -168.999s-93.666 -56 -168.999 -56s-131.666 18.667 -168.999 56s-56 93.666 -56 168.999
s18.667 131.666 56 168.999s93.666 56 168.999 56s131.666 -18.667 168.999 -56s56 -93.666 56 -168.999zM200 825v-151h650v151h-650z" />
    <glyph glyph-name="uni17d7" unicode="&#x17d7;" horiz-adv-x="1380" 
d="M478 1026c-113.333 0 -188.001 15.998 -224.001 47.998s-54 77 -54 135c20.667 48 53.667 96.333 99 145s103 97.334 173 146.001l262 -210l289 209h157v-1149c0 -116.667 -39.667 -204.167 -119 -262.5s-188.333 -87.5 -327 -87.5c-138 0 -241.667 14.667 -311 44
c-69.333 28.667 -104 72.334 -104 131.001c0 38.667 9.83301 67.667 29.5 87s49.5 29 89.5 29c0 -30 24.667 -61 74 -93c49.333 -31.333 123.333 -47 222 -47c80.667 0 145.334 20.667 194.001 62c48 41.333 72 87 72 137v939l-264 -174l-244 184l-97 -90
c0 -20 5.33301 -34.667 16 -44c10 -10 32.333 -15 67 -15c19.333 0 34 4.33301 44 13c10 8 15 20.333 15 37c20 0 34.667 -7 44 -21c10 -14.667 15 -36.667 15 -66s-9.66699 -51.333 -29 -66c-20 -14 -49.667 -21 -89 -21z" />
    <glyph glyph-name="uni17d8" unicode="&#x17d8;" horiz-adv-x="4960" 
d="M4580 1392v108h180v-1295c0 -78 -20.834 -131.667 -62.5 -161s-94.166 -44 -157.5 -44c-36.666 -0 -64 8.33301 -82 25c-18.666 16.667 -28 42 -28 76c42 0 77.5 6.16699 106.5 18.5s43.5 40.833 43.5 85.5v1016l-134 -70c-182.666 -100.667 -331.333 -151 -446 -151
c-180 0 -270 83.333 -270 250s90 250 270 250c66.667 0 100 -25 100 -75s-33.333 -75 -100 -75c-60 0 -90 -33.333 -90 -100s30 -100 90 -100c85.333 0 210.666 44.333 376 133zM1810 150c80 0 120 83.333 120 250c0 66.667 -40 100 -120 100v-350zM3330 200
c-66.667 -133.333 -223.334 -199.995 -470 -199.995c-246.667 0 -403.334 66.667 -470.001 200v1060c-40 80 -136.667 120 -290 120s-250 -40 -290 -120v-660c146.667 0 220 -66.667 220 -200s-20.833 -233.333 -62.5 -300s-104.167 -100 -187.5 -100
c-100 0 -150 33.333 -150 100v1200c66.667 133.333 223.334 200 470.001 200s403.334 -66.667 470 -200v-1060c40 -80 136.667 -120 290 -120s250 40 290 120v723c0 70.667 -66.667 126.667 -200 168c13.333 67.333 45.166 145.666 95.5 234.999
c50.333 89.333 93.5 134 129.5 134c29.333 0 67.666 -14.333 115 -43l70 -43c31.333 -19.333 71.333 -24 120 -14c-6.66699 -46.667 -20.167 -84.834 -40.5 -114.501s-47.666 -46.334 -82 -50.001c-34.333 -3.66699 -82.666 13.666 -145 51.999
c-62.333 38.333 -114.5 5.16602 -156.5 -99.501c182.667 -58.667 274 -114.667 274 -168v-820zM1050 1392l0.00195312 108h180v-1295c0 -78 -20.833 -131.667 -62.5 -161s-94.167 -44 -157.5 -44c-36.667 0 -64 8.33301 -82 25c-18.667 16.667 -28 42 -28 76
c42 0 77.5 6.16699 106.5 18.5s43.5 40.833 43.5 85.5v1016l-134 -70c-182.667 -100.667 -331.334 -151 -446.001 -151c-180 0 -270 83.333 -270 250s90 250 270 250c66.667 0 100 -25 100 -75s-33.333 -75 -100 -75c-60 0 -90 -33.333 -90 -100s30 -100 90 -100
c85.333 0 210.666 44.333 375.999 133z" />
    <glyph glyph-name="uni17d9" unicode="&#x17d9;" horiz-adv-x="1550" 
d="M775 0c-158 0 -276.667 58.333 -356 175s-119 291.667 -119 525s39.667 408.333 119 525s198 175 356 175s276.667 -58.333 356 -175s119 -291.667 119 -525s-39.667 -408.333 -119 -525s-198 -175 -356 -175zM775 1283c-118.667 0 -207.667 -48.333 -267 -145
c-59.333 -97.333 -89 -243.333 -89 -438s29.667 -340.667 89 -438c59.333 -96.667 148.333 -145 267 -145s207.667 48.333 267 145c59.333 97.333 89 243.333 89 438s-29.667 340.667 -89 438c-59.333 96.667 -148.333 145 -267 145zM775 233
c-79.333 0 -138.666 39 -177.999 117s-59 194.667 -59 350s19.667 272 59 350s98.666 117 177.999 117s138.666 -39 177.999 -117s59 -194.667 59 -350s-19.667 -272 -59 -350s-98.666 -117 -177.999 -117zM775 1050c-39.333 0 -69 -29 -89 -87
c-20 -58.667 -30 -146.334 -30 -263.001s10 -204 30 -262c20 -58.667 49.667 -88 89 -88s69 29.333 89 88c20 58 30 145.333 30 262s-10 204.334 -30 263.001c-20 58 -49.667 87 -89 87z" />
    <glyph glyph-name="uni17da" unicode="&#x17da;" horiz-adv-x="3920" 
d="M2921 538c-14 -14.667 -19 -25 -15 -31c6.66699 -10 15 -10.667 25 -2c3.33301 2.66699 0 13.667 -10 33zM1593 979c54 83.333 72 134.001 54 152.001c-35.333 35.333 -69 31.666 -101 -11.001c-16 -21.333 -4.33301 -62.333 35 -123c3.33301 -6 7.33301 -12 12 -18z
M1871 439.001c-37.333 -48 -50.667 -78.668 -40 -92.001c23.333 -27.333 49.333 -29.666 78 -6.99902c14 11.333 1.33301 44.333 -38 99zM2211 1018c32.667 40.667 45.333 66 38 76c-17.333 23.333 -38.333 26 -63 8c-12 -8.66699 -3.66699 -36.667 25 -84zM2438 468
c-16.667 -17.333 -23.334 -27.667 -20 -31c8.66699 -10 19.334 -11 32 -3c4 2.66699 0 14 -12 34zM2782 978.999c18.667 18.667 26.667 29.332 24 31.999c-8 8 -18 6.66699 -30 -4c-4 -3.33301 -2 -12.666 6 -27.999zM2914 793.997
c15.333 -19.333 29.335 -38.0059 42.002 -56.0059c27.333 12 56.333 22 87 30c76.667 21.333 166 32 268 32h264c63.333 0 95 -25 95 -75s-33 -75 -99 -75h-260c-144 0 -238 -11 -282 -33c13.333 -27.333 23 -52.666 29 -75.999c17.333 -67.333 4 -117.666 -40 -150.999
s-85.333 -47.333 -124 -42c-39.333 4.66699 -76 28.334 -110 71.001s-46 85.334 -36 128.001c10 40 39.667 80 89 120l-32 46c-12 14.667 -23 29 -33 43c-30.667 -28 -64.667 -57 -102 -87l-133 -110c13.333 -25.333 24 -49 32 -71c28 -80 19.333 -137 -26 -171
s-88 -48 -128 -42c-40.667 6 -78.334 31.333 -113.001 76s-30.667 103.667 12 177c11.333 18.667 25 38.334 41 59.001l-86 113l-69 86c-32.667 -37.333 -70 -77 -112 -119l-129 -128c29.333 -43.333 51.666 -83 66.999 -119c37.333 -88 29.666 -152 -23 -192
c-52.667 -40 -102.667 -58 -150 -54s-92 30.667 -134 80s-41.667 117.333 1 204c14.667 30 34 62 58 96l-99 108l-73 80c-44.667 -64 -98 -133.333 -160 -208c-148.667 -178 -288 -311.333 -418 -400c-130.667 -89.333 -251.667 -134 -363 -134
c-138 0 -241.667 62.333 -311 187c-69.333 125.333 -104 313 -104 563s39.667 437.333 119 562c79.333 125.333 198 188 356 188c158.667 0 277.667 -33 357 -99c78.667 -66 118 -165 118 -297c0 -135.333 -28.667 -244 -86 -326c-58 -82.667 -144.667 -138.667 -260 -168
c-56 -16 -90.667 0 -104 48c-13.333 48.667 8.33398 80.667 65.001 96c78 20 136.667 58.667 176 116s59 133 59 227c0 84 -27 147 -81 189c-54.667 42.667 -136 64 -244 64s-189 -50 -243 -150c-54.667 -100 -81.667 -250 -81 -450c0 -200 22 -350 66 -450
s110.333 -150 199 -150c88 0 186 38.667 294 116s226.333 193.333 355 348c80 96 145.667 179 197 249c-36 51.333 -62.667 98.666 -80 141.999c-38 95.333 -32.333 171.333 17 228s98.666 85.334 147.999 86.001c48.667 0.666992 97.667 -27 147 -83s49 -142.333 -1 -259
c-15.333 -35.333 -35 -73.333 -59 -114c28 -32.667 59.667 -67.667 95 -105c31.333 -33.333 60 -65.333 86 -96c32.667 36.667 69.667 75.334 111 116.001c54 50.667 100 95.667 138 135c-21.333 39.333 -39.333 81 -54 125c-29.333 88 -18.333 151.333 33 190
s99 55.334 143 50.001c44.667 -5.33301 86 -32.333 124 -81s34.333 -117 -11 -205c-14.667 -28 -33.334 -58.333 -56 -91l81 -103c29.333 -36.667 55.666 -71.667 79 -105c30.667 30 65.667 61.333 105 94l125 104c-15.333 30 -26.666 57.667 -34 83
c-20 68.667 -7.66699 119.667 37 153c44 33.333 86 47 126 41c40 -5.33301 78 -30.333 114 -75c35.333 -44.667 31.666 -102.334 -11 -173.001c-12.667 -20.667 -28.667 -42.667 -48 -66z" />
    <glyph glyph-name="uni17db" unicode="&#x17db;" horiz-adv-x="580" 
d="M200 400c-53.333 0 -80 -33.333 -80 -100c0 -100 26.667 -150 80 -150v250zM380 690v-589.996c0 -66.667 -43.333 -100 -130 -100c-83.333 0 -142.5 33.333 -177.5 100s-52.5 133.334 -52.5 200.001c0 133.333 60 200 180 200v190h-155v120h155v153
c0 70.667 -66.667 126.667 -200 168c13.333 67.333 45.166 145.666 95.499 234.999s93.5 134 129.5 134c29.333 0 67.666 -14.333 114.999 -43l70 -43c31.333 -19.333 71.333 -24 120 -14c-6.66699 -46.667 -20.167 -84.834 -40.5 -114.501s-47.666 -46.334 -81.999 -50.001
s-82.666 13.666 -144.999 51.999s-114.5 5.16602 -156.5 -99.501c182.667 -58.667 274 -114.667 274 -168v-210h115v-120h-115z" />
    <glyph glyph-name="uni17dc" unicode="&#x17dc;" horiz-adv-x="1550" 
d="M420 1022c0 -88 29.666 -154.004 88.999 -198.004c58.667 -44 147.334 -66 266.001 -66c158 0 276.667 -31.333 356 -94c79.333 -63.333 119 -158.333 119 -285c0 -126 -39.667 -220.667 -119 -284s-198 -95 -356 -95s-276.667 24.333 -356 73s-119 122 -119 220
c0 58 15 101.667 45 131c30 28.667 74.667 43.334 134 44.001c20 0 35 -5 45 -15s15 -25 15 -45c0 -19.333 -5 -33.666 -15 -42.999c-10 -10 -25 -15 -45 -15c-19.333 0 -34 -5 -44 -15c-10 -9.33301 -15 -23.666 -15 -42.999c0 -58 29.667 -101.667 89 -131
c58.667 -28.667 147.334 -43 266.001 -43s207.667 21.667 267 65c59.333 44 89 109.667 89 197c0 88 -29.667 153.667 -89 197c-59.333 44 -148.333 66 -267 66c-158 0 -276.667 31.667 -356 95c-78.667 62.667 -118.334 157.334 -119.001 284.001
c0 126 39.667 220.667 119 284c79.333 62.667 198 94 356 94s276.667 -24.333 356 -73c79.333 -48 119 -120.333 119 -217c0 -58.667 -15 -102.667 -45 -132c-29.333 -29.333 -73.666 -44 -132.999 -44c-20 0 -35 5 -45 15s-15 24.667 -15 44s5 34 15 44
c10 9.33301 25 14 45 14s34.667 5 44 15c10 9.33301 15 24 15 44c0 58 -29.667 101.667 -89 131c-59.333 28.667 -148.333 43 -267 43s-207.334 -21.667 -266.001 -65c-59.333 -44 -89 -109.667 -89 -197z" />
    <glyph glyph-name="uni17dd" unicode="&#x17dd;" 
d="M-250 1600h-175c0 50 -25 87.333 -75 112c-50 25.333 -125 38 -225 38c-100.667 0 -176 -12.667 -226 -38c-50.667 -24.667 -76 -62 -76 -112h-173c0 83.333 39.667 146 119 188c79.333 41.333 198 62 356 62s276.667 -20.667 356 -62c79.333 -42 119 -104.667 119 -188z
" />
    <glyph glyph-name="uni17e0" unicode="&#x17e0;" horiz-adv-x="1450" 
d="M200 600v300c0 150 39.667 287.5 119 412.5s215 187.5 407 187.5c191.333 0 326.5 -62.5 405.5 -187.5s118.5 -262.5 118.5 -412.5v-300c0 -150 -39.5 -287.5 -118.5 -412.5s-214.167 -187.5 -405.5 -187.5c-192 0 -327.667 62.5 -407 187.5s-119 262.5 -119 412.5z
M380 900v-300c0 -102 25.333 -203.5 76 -304.5s140.667 -151.5 270 -151.5c128.667 0 218.167 50.5 268.5 151.5s75.5 202.5 75.5 304.5v300c0 102 -25.167 203.5 -75.5 304.5s-139.833 151.5 -268.5 151.5c-129.333 0 -219.333 -50.5 -270 -151.5s-76 -202.5 -76 -304.5z
" />
    <glyph glyph-name="uni17e1" unicode="&#x17e1;" horiz-adv-x="1450" 
d="M1072 233c-119.333 -155.333 -293.332 -233.001 -521.999 -233.001c-66.667 0 -100 24 -100 72s33.333 72 100 72c192.667 0 327.5 63.833 404.5 191.5s115.5 315.834 115.5 564.501c0 182 -35.167 303.5 -105.5 364.5s-156.5 91.5 -258.5 91.5
c-102.667 0 -182.667 -28.833 -240 -86.5s-86 -137.5 -86 -239.5c0 -83.333 17.5 -145.833 52.5 -187.5s84.833 -62.5 149.5 -62.5c47.333 0 80.333 23.333 99 70c-54 9.33301 -81 39.333 -81 90c0 86.667 41.667 130 125 130s125 -43.333 125 -130
c0 -91.333 -23 -163 -69 -215c-46.667 -52.667 -113 -79 -199 -79c-120.667 0 -214.334 36.333 -281.001 109c-67.333 72 -101 163.667 -101 275c0 130 43 241 129 333c86 91.333 211.667 137 377 137c164.667 0 296.667 -47.333 396 -142c98.667 -95.333 148 -248 148 -458
c0 -290 -59.333 -512.333 -178 -667z" />
    <glyph glyph-name="uni17e2" unicode="&#x17e2;" horiz-adv-x="1610" 
d="M790 875v-75c32 0 48 16.667 48 50c0 8 -4.33301 14.333 -13 19c-8 4 -19.667 6 -35 6zM750 0c-180 0 -316.667 38.332 -410 114.999s-140 171.667 -140 285v1050c0 77.333 -50 116 -150 116c0 89.333 43.333 134 130 134c133.333 0 200 -83.333 200 -250v-1050
c0 -85.333 32.333 -149.333 97 -192s155.667 -64 273 -64h110c117.333 0 208.333 21.333 273 64s97 106.667 97 192v800c0 42.667 -14.5 75.5 -43.5 98.5s-87.5 -26.5 -175.5 -148.5c-86.667 122 -145.167 171.5 -175.5 148.5s-45.5 -55.833 -45.5 -98.5v-225
c49.333 0 86.333 -10.333 111 -31c24.667 -21.333 37 -52.666 37 -93.999c0 -100 -49.333 -150 -148 -150c-120 0 -180 33.333 -180 100v400c0 81.333 36.333 151.666 109 210.999s119 89 139 89s71 -58 153 -174c82 116 132.667 174 152 174c20 0 66 -29.667 138 -89
c72.667 -59.333 109 -129.666 109 -210.999v-800c0 -113.333 -46.667 -208.333 -140 -285s-230 -115 -410 -115h-110z" />
    <glyph glyph-name="uni17e3" unicode="&#x17e3;" horiz-adv-x="1710" 
d="M380 175v-75c32 0 48 16.667 48 50c0 8 -4.33301 14.333 -13 19c-8 4 -19.667 6 -35 6zM770 1150c0 144 -65 215.999 -195 215.999s-195 -72 -195 -216v-875c49.333 0 86.333 -10.333 111 -31c24.667 -21.333 37 -52.666 37 -93.999c0 -100 -49.333 -150 -148 -150
c-120 -0 -180 33.333 -180 100v1050c0 233.333 125 350 375 350c131.333 0 228.333 -29 291 -87c62.667 58 153 87 271 87c248.667 0 373 -116.667 373 -350v-1050c0 -66.667 -30 -100 -90 -100s-90 33.333 -90 100v1050c0 144 -64.333 216 -193 216
c-124.667 0 -187 -72 -187 -216v-1050c0 -66.667 -30 -100 -90 -100s-90 33.333 -90 100v1050z" />
    <glyph glyph-name="uni17e4" unicode="&#x17e4;" horiz-adv-x="1450" 
d="M1130 700c6.66699 6.66699 10 18.333 10 35c0 20.667 -13.333 37.667 -40 51v-97c13.333 0 23.333 3.66699 30 11zM200 799.999c0 229.333 121.665 380.668 364.998 454.001l283 91c148 45.333 222 107 222 185c0 46.667 -36 70 -108 70c0 66.667 33.333 100 100 100
c125.333 0 188 -56.667 188 -170c0 -140 -114 -246 -342 -318l-304 -95c-149.333 -52.667 -224 -158.334 -224 -317.001v-500c0 -38.667 27.333 -74.334 82 -107.001s117.334 -49 188.001 -49h412c-94.667 151.333 -142 253.333 -142 306v250c0 133.333 42 200 126 200
c49.333 0 89.166 -8.16699 119.499 -24.5s52 -39.333 65 -69s19.5 -63.5 19.5 -101.5c0 -36.667 -11.667 -71.667 -35 -105s-61.666 -50 -114.999 -50v-100c0 -67.333 25 -138.333 75 -213l75 -112v-125h-600c-133.333 0 -241.666 33.333 -324.999 100
s-125 133.334 -125 200.001v500z" />
    <glyph glyph-name="uni17e5" unicode="&#x17e5;" horiz-adv-x="1450" 
d="M622 1212c22.667 22.667 34 44.667 34 66c0 58.667 -26 88 -78 88s-78 -29.333 -78 -88c0 -29.333 40.667 -51.333 122 -66zM1130 600c6.66699 6.66699 10 18.333 10 35c0 20.667 -13.333 37.667 -40 51v-97c13.333 0 23.333 3.66699 30 11zM765 1187l200.998 -26.0039
c69.333 -11.333 104 35 104 139v230c0 113.333 53.333 170 160 170c80 0 120 -33.333 120 -100c-66.667 0 -100 -23.333 -100 -70v-230c0 -200 -75 -300 -225 -300l-386 65c-20.667 -13.333 -43.667 -26.666 -69 -39.999c-126.667 -46 -190 -151 -190 -315v-410
c0 -38.667 27.333 -74.334 82 -107.001s117.334 -49 188.001 -49h412c-94.667 118 -142 203.333 -142 256v200c0 133.333 42 200 126 200c49.333 0 89.166 -8.16699 119.499 -24.5s52 -39.333 65 -69s19.5 -63.5 19.5 -101.5c0 -36.667 -11.667 -71.667 -35 -105
s-61.666 -50 -114.999 -50v-50c0 -67.333 50 -159 150 -275v-125h-600c-133.333 0 -241.666 33.333 -324.999 100s-125 133.334 -125 200.001v410c0 186.667 88.667 322.334 266 407.001c-66.667 36.667 -100 90.334 -100 161.001c0 148 70.667 222 212 222
s212 -74 212 -222c0 -31.333 -8.33301 -61.666 -25 -90.999z" />
    <glyph glyph-name="uni17e6" unicode="&#x17e6;" horiz-adv-x="1450" 
d="M380 1365c92 90 208.999 135.001 350.999 135.001c168 0 296.5 -52.5 385.5 -157.5s133.5 -285.833 133.5 -542.5v-200c0 -190 -44.5 -337.5 -133.5 -442.5s-219.167 -157.5 -390.5 -157.5c-192 0 -327.667 47.333 -407 142c-79.333 95.333 -119 204.666 -119 327.999
c0 102 30.333 182.333 91 241c46.667 59.333 130.334 89 251.001 89c86 0 150.5 -19.5 193.5 -58.5s64.5 -104.167 64.5 -195.5c0 -66.667 -33.333 -100 -100 -100s-100 33.333 -100 100c0 37.333 10.333 64 31 80c-18.667 26.667 -48.334 40 -89.001 40
c-108 0 -162 -65.333 -162 -196c0 -95.333 25.333 -173.5 76 -234.5s140.667 -91.5 270 -91.5c108.667 0 193.167 35.5 253.5 106.5s90.5 187.5 90.5 349.5v200c0 228.667 -30.167 378.5 -90.5 449.5s-143.166 106.5 -248.499 106.5c-152.667 0 -269.667 -85.333 -351 -256
c0 -66.667 -32 -100 -96 -100c-56 0 -84 33.333 -84 100v400c0 77.333 -50 116 -150 116c0 89.333 43.333 134 130 134c133.333 0 200 -83.333 200 -250v-135z" />
    <glyph glyph-name="uni17e7" unicode="&#x17e7;" horiz-adv-x="1680" 
d="M380 222c65.333 60 98 115.666 98 166.999c0 26.667 -9 46.334 -27 59.001c-18 12 -41.667 18 -71 18v-244zM1225 143.999c50 0 75.001 18.667 75.001 56v1250c0 77.333 -50 116 -150 116c0 89.333 43.333 134 130 134c133.333 0 200 -83.333 200 -250v-1250
c0 -133.333 -85 -200 -255 -200s-255 66.667 -255 200v1000c0 42.667 -26.167 81.5 -78.5 116.5s-124.166 -4.16699 -215.499 -117.5c-92 113.333 -164.333 152.5 -217 117.5s-79 -73.833 -79 -116.5v-600c96.667 0 159.667 -19.667 189 -59c28.667 -40 43 -82 43 -126
c0 -52 -13.333 -107 -40 -165c-26.667 -58.667 -65.334 -115 -116.001 -169s-94.667 -81 -132 -81c-82.667 0 -124 33.333 -124 100v1100c0 81.333 38.667 151.666 116 210.999s137 89 179 89c34.667 0 95 -44.667 181 -134c85.333 89.333 145.666 134 180.999 134
c41.333 0 100.333 -29.667 177 -89c77.333 -59.333 116 -129.666 116 -210.999v-1000c0 -37.333 25 -56 75 -56z" />
    <glyph glyph-name="uni17e8" unicode="&#x17e8;" horiz-adv-x="1450" 
d="M1070 589l-0.000976562 97.001c-40 -13.333 -60 -30.333 -60 -51c0 -16.667 3.33301 -28.334 10 -35.001c6.66699 -7.33301 23.334 -11 50.001 -11zM199.999 1000c0 143.333 39.3369 262.333 118.004 357c79.333 95.333 209.666 143 390.999 143
c148.667 0 269 -45 361 -135v135c0 166.667 66.667 250 200 250c86.667 0 130 -44.667 130 -134c-100 0 -150 -38.667 -150 -116v-350c0 -66.667 -31.333 -100 -94 -100c-48 0 -79.333 16.667 -94 50c-76 170.667 -193.667 256 -353 256
c-118.667 0 -203.167 -30.5 -253.5 -91.5s-75.5 -149.167 -75.5 -264.5v-700c0 -42.667 32.333 -81.5 97 -116.5s147.667 10.833 249 137.5c101.333 -126.667 184 -172.5 248 -137.5s96 73.833 96 116.5v150c-66.667 0 -111.667 16.667 -135 50s-35 68.333 -35 105
c0 38 6.5 71.833 19.5 101.5s34.667 52.667 65 69s74.166 24.5 131.499 24.5c89.333 0 134 -66.667 134 -200v-300c0 -81.333 -42.667 -151.666 -128 -210.999c-84.667 -59.333 -150 -89 -196 -89c-38.667 0 -105.334 48 -200.001 144
c-94.667 -96 -161.334 -144 -200.001 -144c-46.667 0 -112.667 29.667 -198 89s-128 129.666 -128 210.999v700z" />
    <glyph glyph-name="uni17e9" unicode="&#x17e9;" horiz-adv-x="1450" 
d="M1004 237l77 53c-13.333 22 -29.666 29 -48.999 21c-15.333 -6 -25 -13.333 -29 -22c-4.66699 -8.66699 -4.33398 -26 0.999023 -52zM914 187c-32.667 62.667 -40.999 111.001 -24.999 145.001s41 57.667 75 71c35.333 14 69.333 20.333 102 19
c32 -1.33301 62.333 -13 91 -35c28.667 -22.667 43 -68.667 43 -138c0 -70 -48.667 -129 -146 -177c-98 -48 -216 -72 -354 -72c-165.333 0 -287.333 34.667 -366 104c-89.333 78 -134 193.333 -134 346c0 113.333 24.667 207 74 281c50 74.667 124.667 129.667 224 165
c-65.333 58 -98 142.667 -98 254c0 124.667 34.333 216 103 274c59.333 50.667 151.333 76 276 76c102 0 199 -45 291 -135v135c0 77.333 -52.667 116 -158 116c0 89.333 43.333 134 130 134c138.667 0 208 -83.333 208 -250v-300c0 -66.667 -31.333 -100 -94 -100
c-48 0 -79.333 16.667 -94 50c-96 144 -190.333 216 -283 216c-58 0 -105.667 -15.833 -143 -47.5s-56 -86.167 -56 -163.5c0 -70 21.5 -122.667 64.5 -158s104.833 -53 185.5 -53c129.333 0 250.666 -45.667 363.999 -137c37.333 -32.667 56 -79 56 -139
c0 -60.667 -38.333 -53.667 -115 21c-76.667 74 -178.334 111 -305.001 111c-147.333 0 -259.166 -29.167 -335.499 -87.5s-114.5 -145.833 -114.5 -262.5c0 -104.667 27.5 -181.834 82.5 -231.501s134.167 -74.5 237.5 -74.5c70.667 0 142 14.333 214 43z" />
    <glyph glyph-name="uni17f0" unicode="&#x17f0;" horiz-adv-x="800" 
d="M550 350c0 166.667 -50 250 -150 250s-150 -83.333 -150 -250s50 -250 150 -250s150 83.333 150 250zM150 350c0 233.333 83.333 350 250 350s250 -116.667 250 -350s-83.333 -350 -250 -350s-250 116.667 -250 350z" />
    <glyph glyph-name="uni17f1" unicode="&#x17f1;" horiz-adv-x="800" 
d="M459 700l242 -700h-105l-196 565l-195 -565h-104l239 700h119z" />
    <glyph glyph-name="uni17f2" unicode="&#x17f2;" horiz-adv-x="300" 
d="M200 700v-700h-100v700h100z" />
    <glyph glyph-name="uni17f3" unicode="&#x17f3;" horiz-adv-x="1296" 
d="M458 700l189 -549l188 549h119l242 -700h-105l-196 565l-195 -565h-105l-196 565l-195 -565h-104l239 700h119z" />
    <glyph glyph-name="uni17f4" unicode="&#x17f4;" horiz-adv-x="800" 
d="M342 0l-242 700h105l196 -565l195 565h104l-239 -700h-119z" />
    <glyph glyph-name="uni17f5" unicode="&#x17f5;" horiz-adv-x="800" 
d="M201 201c0 84.667 41.667 175.667 125 273l-226 226h151l149 -149l150 150h151l-227 -227c84.667 -97.333 127 -188.333 127 -273c0 -133.333 -66.667 -200 -200 -200s-200 66.667 -200 200zM500 200c0.666992 54.667 -32.667 120.332 -100 196.999
c-66 -76.667 -99 -142 -99 -196c0 -67.333 33.333 -100.666 100 -99.999c66.667 0 99.667 33 99 99z" />
    <glyph glyph-name="uni17f6" unicode="&#x17f6;" horiz-adv-x="550" 
d="M209 700l241 -700h-106l-244 700h109z" />
    <glyph glyph-name="uni17f7" unicode="&#x17f7;" horiz-adv-x="1050" 
d="M458 700l189 -549l188 549h115l-250 -700h-105l-196 565l-195 -565h-104l239 700h119z" />
    <glyph glyph-name="uni17f8" unicode="&#x17f8;" horiz-adv-x="800" 
d="M449 700l-245 -700h-104l239 700h110z" />
    <glyph glyph-name="uni17f9" unicode="&#x17f9;" horiz-adv-x="900" 
d="M100 112l584 456.001l34 -99l-471 -369l303 1c200.667 0 301 -75 301 -225c-0.666992 -150.667 -101 -226.334 -301 -227.001l-50 1v100l51 -1c133.333 0 200 42 200 126c0 83.333 -66.667 125 -200 125h-302h-110z" />
    <glyph glyph-name="uni19e0" unicode="&#x19e0;" horiz-adv-x="1550" 
d="M250 1400v300c0 150 39.667 287.5 119 412.5s215 187.5 407 187.5c191.333 0 326.5 -62.5 405.5 -187.5s118.5 -262.5 118.5 -412.5v-300c0 -150 -39.5 -287.5 -118.5 -412.5s-214.167 -187.5 -405.5 -187.5c-192 0 -327.667 62.5 -407 187.5s-119 262.5 -119 412.5z
M450 1700v-300c0 -102 22 -203.5 66 -304.5s130.667 -151.5 260 -151.5c128.667 0 214.834 50.5 258.501 151.5s65.5 202.5 65.5 304.5v300c0 102 -21.833 203.5 -65.5 304.5s-129.834 151.5 -258.501 151.5c-129.333 0 -216 -50.5 -260 -151.5s-66 -202.5 -66 -304.5z
M1100 -311v97.001c-26.667 -13.333 -40 -30.333 -40 -51c0 -16.667 3.33301 -28.334 10 -35.001c6.66699 -7.33301 16.667 -11 30 -11zM250 100.001c0 143.333 39.3369 262.333 118.004 357c79.333 95.333 209.666 143 390.999 143c148.667 0 262.334 -45 341.001 -135v135
c0 166.667 73.333 250 220 250c86.667 0 130 -44.667 130 -134c-100 0 -150 -38.667 -150 -116v-350c0 -66.667 -31.333 -100 -94 -100c-48 0 -79.333 16.667 -94 50c-76 170.667 -193.667 256 -353 256c-118.667 0 -199.834 -30.5 -243.501 -91.5
s-65.5 -149.167 -65.5 -264.5v-700c0 -42.667 29 -81.5 87 -116.5s137.667 10.833 239 137.5c101.333 -126.667 180.666 -172.5 237.999 -137.5s86 73.833 86 116.5v150c-53.333 0 -91.666 16.667 -114.999 50s-35 68.333 -35 105c0 38 6.5 71.833 19.5 101.5
s34.667 52.667 65 69s74.166 24.5 131.499 24.5c89.333 0 134 -66.667 134 -200v-300c0 -81.333 -42.667 -151.666 -128 -210.999c-84.667 -59.333 -150 -89 -196 -89c-38.667 0 -105.334 48 -200.001 144c-94.667 -96 -161.334 -144 -200.001 -144
c-46.667 0 -112.667 29.667 -198 89s-128 129.666 -128 210.999v700z" />
    <glyph glyph-name="uni19e1" unicode="&#x19e1;" horiz-adv-x="1550" 
d="M1122 1033c-119.333 -155.333 -293.331 -233.001 -521.998 -233.001c-66.667 0 -100 24 -100 72s33.333 72 100 72c192.667 0 324.167 63.833 394.5 191.5s105.5 315.834 105.5 564.501c0 182 -31.833 303.5 -95.5 364.5s-146.5 91.5 -248.5 91.5
c-102.667 0 -179.334 -28.833 -230.001 -86.5s-76 -137.5 -76 -239.5c0 -83.333 14.167 -145.833 42.5 -187.5s74.833 -62.5 139.5 -62.5c47.333 0 80.333 23.333 99 70c-54 9.33301 -81 39.333 -81 90c0 86.667 41.667 130 125 130s125 -43.333 125 -130
c0 -91.333 -23 -163 -69 -215c-46.667 -52.667 -113 -79 -199 -79c-120.667 0 -214.334 36.333 -281.001 109c-67.333 72 -101 163.667 -101 275c0 130 43 241 129 333c86 91.333 211.667 137 377 137c164.667 0 296.667 -47.333 396 -142c98.667 -95.333 148 -248 148 -458
c0 -290 -59.333 -512.333 -178 -667zM1100 491.999l0.000976562 108h200v-1295c0 -78 -24.167 -131.667 -72.5 -161s-104.166 -44 -167.499 -44c-36.667 0 -64 8.33301 -82 25c-18.667 16.667 -28 42 -28 76c42 0 77.5 6.16699 106.5 18.5s43.5 40.833 43.5 85.5v1016
l-134 -70c-182.667 -100.667 -331.334 -151 -446.001 -151c-180 0 -270 83.333 -270 250s90 250 270 250c66.667 0 100 -25 100 -75s-33.333 -75 -100 -75c-46.667 0 -70 -33.333 -70 -100s23.333 -100 70 -100c85.333 0 210.666 44.333 375.999 133z" />
    <glyph glyph-name="uni19e2" unicode="&#x19e2;" horiz-adv-x="1710" 
d="M860 1675v-75c32 0 48 16.667 48 50c0 8 -4.33301 14.333 -13 19c-8 4 -19.667 6 -35 6zM800 800c-180 0 -316.667 38.332 -410 114.999s-140 171.667 -140 285v1050c0 77.333 -50 116 -150 116c0 89.333 43.333 134 130 134c146.667 0 220 -83.333 220 -250v-1050
c0 -85.333 29 -149.333 87 -192s145.667 -64 263 -64h110c117.333 0 205 21.333 263 64s87 106.667 87 192v800c0 42.667 -11 75.667 -33 99c-22.667 22.667 -78 -27 -166 -149c-86.667 122 -141.667 171.667 -165 149c-24 -23.333 -36 -56.333 -36 -99v-225
c49.333 0 86.333 -10.333 111 -31c24.667 -21.333 37 -52.666 37 -93.999c0 -100 -49.333 -150 -148 -150c-133.333 0 -200 33.333 -200 100v400c0 81.333 36.333 151.666 109 211c72.667 59.333 119 89 139 89s71 -58 153 -174c82 116 132.667 174 152 174
c20 0 66 -29.667 138 -89c72.667 -59.333 109 -129.666 109 -211v-800c0 -113.333 -46.667 -208.333 -140 -285s-230 -115 -410 -115h-110zM1100 491.999l0.000976562 108h200v-1295c0 -78 -24.167 -131.667 -72.5 -161s-104.166 -44 -167.499 -44
c-36.667 0 -64 8.33301 -82 25c-18.667 16.667 -28 42 -28 76c42 0 77.5 6.16699 106.5 18.5s43.5 40.833 43.5 85.5v1016l-134 -70c-182.667 -100.667 -331.334 -151 -446.001 -151c-180 0 -270 83.333 -270 250s90 250 270 250c66.667 0 100 -25 100 -75
s-33.333 -75 -100 -75c-46.667 0 -70 -33.333 -70 -100s23.333 -100 70 -100c85.333 0 210.666 44.333 375.999 133z" />
    <glyph glyph-name="uni19e3" unicode="&#x19e3;" horiz-adv-x="1810" 
d="M450 975v-75c32 0 48 16.667 48 50c0 8 -4.33301 14.333 -13 19c-8 4 -19.667 6 -35 6zM810 1950c0 144 -61.667 215.999 -185 215.999c-116.667 0 -175 -72 -175 -216v-875c49.333 0 86.333 -10.333 111 -31c24.667 -21.333 37 -52.666 37 -93.999
c0 -100 -49.333 -150 -148 -150c-133.333 0 -200 33.333 -200 100v1050c0 233.333 125 350 375 350c131.333 0 228.333 -29 291 -87c62.667 58 153 87 271 87c248.667 0 373 -116.667 373 -350v-1050c0 -66.667 -33.333 -100 -100 -100s-100 33.333 -100 100v1050
c0 144 -57.667 216 -173 216c-118 0 -177 -72 -177 -216v-1050c0 -66.667 -33.333 -100 -100 -100s-100 33.333 -100 100v1050zM1230 491.999l0.000976562 108h200v-1295c0 -78 -24.167 -131.667 -72.5 -161s-104.166 -44 -167.499 -44c-36.667 0 -64 8.33301 -82 25
c-18.667 16.667 -28 42 -28 76c42 0 77.5 6.16699 106.5 18.5s43.5 40.833 43.5 85.5v1016l-134 -70c-182.667 -100.667 -331.334 -151 -446.001 -151c-180 0 -270 83.333 -270 250s90 250 270 250c66.667 0 100 -25 100 -75s-33.333 -75 -100 -75
c-46.667 0 -70 -33.333 -70 -100s23.333 -100 70 -100c85.333 0 210.666 44.333 375.999 133z" />
    <glyph glyph-name="uni19e4" unicode="&#x19e4;" horiz-adv-x="1550" 
d="M1180 1500c6.66699 6.66699 10 18.333 10 35c0 20.667 -13.333 37.667 -40 51v-97c13.333 0 23.333 3.66699 30 11zM250 1600c0 229.333 121.666 380.667 364.999 454l283 91c134.667 45.333 202 107 202 185c0 46.667 -29.333 70 -88 70c0 66.667 33.333 100 100 100
c125.333 0 188 -56.667 188 -170c0 -140 -114 -246 -342 -318l-304 -95c-136 -46 -204 -151.667 -204 -317v-500c0 -38.667 24 -74.334 72 -107.001s107.333 -49 178 -49h412c-108 151.333 -162 253.333 -162 306v250c0 133.333 48.667 200 146 200
c49.333 0 89.166 -8.16699 119.499 -24.5s52 -39.333 65 -69s19.5 -63.5 19.5 -101.5c0 -36.667 -11.667 -71.667 -35 -105s-61.666 -50 -114.999 -50v-100c0 -67.333 25 -138.333 75 -213l75 -112v-125h-600c-133.333 0 -241.666 33.333 -324.999 100
s-125 133.334 -125 200.001v500zM1100 492l0.000976562 108h200v-1295c0 -78 -24.167 -131.667 -72.5 -161s-104.166 -44 -167.499 -44c-36.667 0 -64 8.33301 -82 25c-18.667 16.667 -28 42 -28 76c42 0 77.5 6.16699 106.5 18.5s43.5 40.833 43.5 85.5v1016l-134 -70
c-182.667 -100.667 -331.334 -151 -446.001 -151c-180 0 -270 83.333 -270 250s90 250 270 250c66.667 0 100 -25 100 -75s-33.333 -75 -100 -75c-46.667 0 -70 -33.333 -70 -100s23.333 -100 70 -100c85.333 0 210.666 44.333 375.999 133z" />
    </font>
</defs>
</svg>
